<svg xmlns:xlink="http://www.w3.org/1999/xlink" viewBox="0 0 1024 1024" id="pay" class="icon"><defs><style type="text/css"></style></defs><path d="M922.78 335.55a447.17 447.17 0 1 0 35.05 173.55 444.35 444.35 0 0 0-35.05-173.55zM512 904.92c-218.26 0-395.83-177.56-395.83-395.82S293.74 113.27 512 113.27 907.83 290.84 907.83 509.1 730.26 904.92 512 904.92z" fill="#707070" p-id="4143"></path><path d="M512 189.92a319.18 319.18 0 1 0 225.69 93.48A317.08 317.08 0 0 0 512 189.92z m0 588.36c-148.43 0-269.18-120.76-269.18-269.18S363.57 239.92 512 239.92 781.18 360.67 781.18 509.1 660.43 778.28 512 778.28z" fill="#707070" p-id="4144"></path><path d="M611.36 348.57L509.21 450.72l-98.86-98.86A25 25 0 0 0 375 387.22l80.14 80.13h-50.5a25 25 0 0 0 0 50h79.26v48.45h-79.27a25 25 0 0 0 0 50h79.26v60.72a25 25 0 0 0 50 0V615.8h83.2a25 25 0 0 0 0-50h-83.2v-48.45h83.2a25 25 0 0 0 0-50H563.3l83.42-83.42a25 25 0 0 0-35.36-35.36z" fill="#707070" p-id="4145"></path></svg>