<?xml version="1.0" encoding="UTF-8" standalone="no"?>
<svg width="100px" height="40px" viewBox="0 0 100 40" version="1.1" xmlns="http://www.w3.org/2000/svg" xmlns:xlink="http://www.w3.org/1999/xlink">
    <!-- Generator: Sketch 39 (31667) - http://www.bohemiancoding.com/sketch -->
    <title>alipay</title>
    <desc>Created with Sketch.</desc>
    <defs>
        <polygon id="path-1" points="17.5154754 18.7477967 17.5154754 0.390157377 0.36655082 0.390157377 0.36655082 18.7477967 17.5154754 18.7477967"></polygon>
        <polygon id="path-3" points="35.3061443 0.103868852 0.00017704918 0.103868852 0.00017704918 35.409659 35.3061443 35.409659 35.3061443 0.103868852"></polygon>
    </defs>
    <g id="Page-1" stroke="none" stroke-width="1" fill="none" fill-rule="evenodd">
        <g id="alipay">
            <g id="Page-1" transform="translate(1.000000, 2.000000)">
                <path d="M41.1787475,5.94348197 L47.9249115,5.94348197 L47.9249115,3.81712131 C47.9249115,3.43410492 48.2382885,3.12131803 48.6213049,3.12131803 L51.1926492,3.12131803 C51.5756656,3.12131803 51.8890426,3.43410492 51.8890426,3.81712131 L51.8890426,5.94348197 L58.6352066,5.94348197 C58.8146164,5.94348197 58.960977,6.08984262 58.960977,6.2686623 L58.960977,7.0016459 C58.960977,7.18046557 58.8146164,7.32682623 58.6352066,7.32682623 L51.8890426,7.32682623 L51.8890426,9.47502295 L51.8884525,9.48328525 L57.1509443,9.48328525 C57.1757311,9.48328525 57.1993377,9.48741639 57.2217639,9.49449836 L57.9270098,9.48328525 C57.9270098,9.48328525 56.5377639,13.8316131 51.6736328,17.6139738 C53.5916656,18.8981705 56.0077967,20.0903016 58.9279279,20.7518754 L58.9279279,22.3311541 C58.9279279,22.3311541 54.4916656,21.5798754 49.9279279,18.8426951 C47.6339607,20.3009902 44.7303541,21.5769246 41.0784197,22.3429574 L41.0430098,20.8852525 C41.0406492,20.7825639 45.3222885,19.5939738 48.2176328,17.7196131 C46.2842557,16.3303672 44.4252393,14.551023 42.9775672,12.2847934 L46.112518,12.2847934 C46.112518,12.2847934 47.3784197,14.2352852 49.9296984,16.3215148 C52.264977,13.852859 53.4010426,12.0056459 53.9475344,10.8672197 L42.3891738,10.8672197 C42.2097639,10.8672197 42.0634033,10.7202689 42.0634033,10.5414492 L42.0634033,9.80905574 C42.0634033,9.63023607 42.2097639,9.48328525 42.3891738,9.48328525 L47.9255016,9.48328525 L47.9249115,9.47502295 L47.9249115,7.32682623 L41.1787475,7.32682623 C40.9999279,7.32682623 40.852977,7.18046557 40.852977,7.0016459 L40.852977,6.2686623 C40.852977,6.08984262 40.9999279,5.94348197 41.1787475,5.94348197" id="Fill-1" fill="#231814"></path>
                <path d="M67.9368393,10.1459803 C67.8264787,10.1459803 67.7692328,10.2362754 67.8099541,10.3466361 L69.9315934,16.1562098 C69.9717246,16.2659803 70.0950689,16.3562754 70.2054295,16.3562754 L72.9095607,16.3562754 C73.0199213,16.3562754 73.0771672,16.2659803 73.0364459,16.1562098 L70.9148066,10.3466361 C70.8746754,10.2362754 70.7513311,10.1459803 70.6409705,10.1459803 L67.9368393,10.1459803 Z M66.9530361,6.87057049 L74.5472656,6.87057049 C74.5460852,5.9688 74.5449049,5.06761967 74.5449049,4.16820984 C74.5449049,3.92034098 74.7479213,3.71791475 74.9952,3.71791475 L77.1829377,3.71791475 C77.4308066,3.71791475 77.6332328,3.92034098 77.6332328,4.16820984 L77.6332328,6.87057049 L78.8560525,6.87057049 C78.9799869,6.87057049 79.0809049,6.97207869 79.0809049,7.09542295 L79.0809049,7.86794754 C79.0809049,7.99188197 78.9799869,8.0928 78.8560525,8.0928 L77.6332328,8.0928 L77.6332328,18.129718 L77.6692328,18.1196852 L77.6692328,20.617259 C77.6692328,21.887882 76.0917246,21.7568656 76.0917246,21.7568656 L72.3447738,21.8442098 L72.3447738,20.595423 C72.3447738,20.595423 73.7493639,20.7553574 74.2504131,20.3894557 C74.6918557,20.0666361 74.5714623,19.6995541 74.5714623,19.3401443 C74.5714623,15.6073574 74.5567082,11.8444721 74.5496262,8.0928 L66.9530361,8.0928 C66.8291016,8.0928 66.7275934,7.99188197 66.7275934,7.86794754 L66.7275934,7.09542295 C66.7275934,6.97207869 66.8291016,6.87057049 66.9530361,6.87057049 L66.9530361,6.87057049 Z M65.4575607,8.89011148 L65.4634623,21.8507016 C65.4634623,22.0000131 65.3412984,22.122177 65.1913967,22.122177 L62.650741,22.122177 C62.5014295,22.122177 62.3786754,22.0000131 62.3786754,21.8507016 L62.3786754,20.2979803 C62.3786754,17.5100459 62.3898885,14.7144393 62.3963803,11.9235541 L59.367659,11.9235541 L63.3913967,3.37916066 L66.7228721,3.37916066 L64.1054951,8.91666885 L65.4575607,8.89011148 Z" id="Fill-3" fill="#231814"></path>
                <g id="Group-7" transform="translate(80.852459, 2.847010)">
                    <mask id="mask-2" fill="white">
                        <use xlink:href="#path-1"></use>
                    </mask>
                    <g id="Clip-6"></g>
                    <path d="M10.7404525,7.79848525 L10.7404525,10.620059 L17.2653049,10.620059 C17.3892393,10.620059 17.4907475,10.7215672 17.4907475,10.8455016 L17.4907475,11.6174361 C17.4907475,11.7413705 17.3892393,11.8428787 17.2653049,11.8428787 L10.7404525,11.8428787 L10.7404525,17.524977 L14.1439279,17.524977 L13.2569115,14.8993377 C13.2197311,14.7895672 13.2734361,14.6992721 13.3837967,14.6992721 L16.088518,14.6992721 C16.1982885,14.6992721 16.3245836,14.7895672 16.3617639,14.8993377 L17.4907475,18.2396656 L17.5043213,18.2797967 C17.5237967,18.338223 17.5173049,18.3919279 17.4907475,18.428518 L17.4907475,18.5223541 C17.4907475,18.6462885 17.3892393,18.7477967 17.2653049,18.7477967 L0.662222951,18.7477967 C0.538878689,18.7477967 0.437370492,18.6462885 0.437370492,18.5223541 L0.437370492,17.7504197 C0.437370492,17.6264852 0.538878689,17.524977 0.662222951,17.524977 L7.15815738,17.524977 L7.15815738,11.8428787 L0.662222951,11.8428787 C0.538878689,11.8428787 0.437370492,11.7413705 0.437370492,11.6174361 L0.437370492,10.8455016 C0.437370492,10.7215672 0.538878689,10.620059 0.662222951,10.620059 L7.15815738,10.620059 L7.15815738,7.79848525 L0.662222951,7.79848525 C0.538878689,7.79848525 0.437370492,7.69756721 0.437370492,7.57304262 L0.437370492,6.8011082 C0.437370492,6.67776393 0.538878689,6.57625574 0.662222951,6.57625574 L17.2653049,6.57625574 C17.3892393,6.57625574 17.4907475,6.67776393 17.4907475,6.8011082 L17.4907475,7.57304262 C17.4907475,7.69756721 17.3892393,7.79848525 17.2653049,7.79848525 L10.7404525,7.79848525 Z M0.594354098,2.34241967 L2.05264918,2.34241967 L3.59474754,2.34241967 L7.12215738,2.34241967 L7.12215738,0.603796721 C7.12215738,0.486354098 7.23074754,0.390157377 7.36294426,0.390157377 L10.5356656,0.390157377 C10.6678623,0.390157377 10.7764525,0.486354098 10.7764525,0.603796721 L10.7764525,2.34241967 L14.1527803,2.34241967 L15.8748787,2.34241967 L17.1525836,2.34241967 C17.2782885,2.34241967 17.380977,2.44451803 17.380977,2.57022295 L17.380977,5.26668197 C17.380977,5.39179672 17.2782885,5.49448525 17.1525836,5.49448525 L14.1527803,5.49448525 C14.0270754,5.49448525 13.924977,5.39179672 13.924977,5.26668197 L13.924977,3.51389508 L3.82255082,3.51389508 L3.82255082,5.26668197 C3.82255082,5.39179672 3.7198623,5.49448525 3.59474754,5.49448525 L0.594354098,5.49448525 C0.46864918,5.49448525 0.36655082,5.39179672 0.36655082,5.26668197 L0.36655082,2.57022295 C0.36655082,2.44451803 0.46864918,2.34241967 0.594354098,2.34241967 L0.594354098,2.34241967 Z" id="Fill-5" fill="#231814" mask="url(#mask-2)"></path>
                </g>
                <path d="M94.6322557,29.7119213 L94.6322557,32.6609705 C94.6322557,32.6922492 94.6234033,32.7217574 94.6056984,32.7471344 C94.5879934,32.7725115 94.5590754,32.7913967 94.5154033,32.8061508 C94.4729115,32.8209049 94.4138951,32.8315279 94.3407148,32.8421508 C94.2681246,32.8527738 94.1796,32.8592656 94.0757311,32.8592656 C93.9677311,32.8592656 93.8797967,32.8527738 93.8066164,32.8421508 C93.7357967,32.8315279 93.6785508,32.8209049 93.632518,32.8061508 C93.5882557,32.7913967 93.556977,32.7725115 93.5398623,32.7471344 C93.5221574,32.7217574 93.5133049,32.6922492 93.5133049,32.6609705 L93.5133049,29.7119213 L91.1467475,25.2024787 C91.0983541,25.1074623 91.0700262,25.0336918 91.0588131,24.9788066 C91.0476,24.9256918 91.0588131,24.8837902 91.0918623,24.8560525 C91.1249115,24.8265443 91.1821574,24.807659 91.2659607,24.7993967 C91.3497639,24.7911344 91.4624852,24.7870033 91.6058951,24.7870033 C91.7339607,24.7870033 91.8401902,24.7911344 91.9192721,24.7993967 C91.9989443,24.807659 92.062682,24.8206426 92.1093049,24.8330361 C92.1576984,24.8477902 92.1931082,24.8690361 92.2173049,24.8961836 C92.2397311,24.9215607 92.2639279,24.9552 92.2834033,24.9976918 L93.4424852,27.2969705 C93.5504852,27.5141508 93.6567148,27.7437246 93.7647148,27.9821508 C93.8727148,28.220577 93.9830754,28.4631344 94.0957967,28.7056918 L94.1093705,28.7056918 C94.2061574,28.4696262 94.3100262,28.2376918 94.4156656,28.0033967 C94.5218951,27.7714623 94.6275344,27.5412984 94.7355344,27.3158557 L95.8993377,25.0035934 C95.9123213,24.9616918 95.9300262,24.9280525 95.954223,24.8985443 C95.9784197,24.8690361 96.0096984,24.8477902 96.0516,24.8330361 C96.091141,24.8206426 96.1483869,24.807659 96.2233377,24.7993967 C96.296518,24.7911344 96.3891738,24.7870033 96.5018951,24.7870033 C96.6559279,24.7870033 96.7775016,24.7929049 96.8660262,24.8035279 C96.9539607,24.8141508 97.0159279,24.8330361 97.0513377,24.8625443 C97.0843869,24.8896918 97.0973705,24.9321836 97.0867475,24.9847082 C97.0755344,25.0395934 97.0466164,25.1115934 96.998223,25.2024787 L94.6322557,29.7119213 Z M84.1161246,25.887659 L84.1090426,25.887659 L82.6678623,29.8742164 L85.5773705,29.8742164 L84.1161246,25.887659 Z M87.7178951,32.4437902 C87.7509443,32.5340852 87.7710098,32.6078557 87.7733705,32.662741 C87.7757311,32.7199869 87.7580262,32.7624787 87.724977,32.7896262 C87.6895672,32.8191344 87.6323213,32.8380197 87.5526492,32.846282 C87.472977,32.8551344 87.3673377,32.8592656 87.2327803,32.8592656 C87.0999934,32.8592656 86.9919934,32.8551344 86.9123213,32.8486426 C86.8332393,32.8421508 86.7736328,32.8315279 86.7317311,32.8191344 C86.6898295,32.8043803 86.6609115,32.7831344 86.6408459,32.760118 C86.6213705,32.734741 86.6036656,32.7028721 86.5859607,32.6668721 L85.8683213,30.7199213 L82.3898951,30.7199213 L81.7035344,32.6420852 C81.6905508,32.6798557 81.6722557,32.7117246 81.6527803,32.7365115 C81.6309443,32.7642492 81.5996656,32.7872656 81.5577639,32.8061508 C81.518223,32.8232656 81.4586164,32.8380197 81.3836656,32.846282 C81.3081246,32.8551344 81.2113377,32.8592656 81.0897639,32.8592656 C80.964059,32.8592656 80.8625508,32.8527738 80.7828787,32.8421508 C80.7037967,32.8315279 80.6459607,32.8126426 80.6152721,32.7831344 C80.582223,32.7559869 80.5668787,32.7134951 80.5692393,32.6568393 C80.5710098,32.6019541 80.5887148,32.5281836 80.6241246,32.4372984 L83.4297639,25.0100852 C83.4474689,24.9640525 83.4693049,24.9280525 83.498223,24.8985443 C83.5265508,24.8690361 83.566682,24.8477902 83.6215672,24.8312656 C83.674682,24.8141508 83.743141,24.8035279 83.8293049,24.7970361 C83.9131082,24.7911344 84.0187475,24.7870033 84.1491738,24.7870033 C84.2860918,24.7870033 84.4005836,24.7911344 84.4914689,24.7970361 C84.5817639,24.8035279 84.6543541,24.8141508 84.7098295,24.8312656 C84.7670754,24.8477902 84.808977,24.8708066 84.8396656,24.9026754 C84.8709443,24.9321836 84.8927803,24.9699541 84.9104852,25.016577 L87.7178951,32.4437902 Z M75.740518,27.252118 C75.740518,26.9275279 75.6767803,26.6554623 75.5487148,26.438282 C75.4230098,26.218741 75.2642557,26.0564459 75.0765836,25.9490361 C74.8889115,25.8410361 74.6971082,25.7737574 74.4958623,25.7466098 C74.2952066,25.7171016 74.1010426,25.7023475 73.9110098,25.7023475 L72.8823541,25.7023475 L72.8823541,28.908118 L73.8844525,28.908118 C74.2202557,28.908118 74.5005836,28.8679869 74.7213049,28.7859541 C74.9443869,28.7039213 75.1296984,28.5900197 75.2819607,28.4418885 C75.4318623,28.2967082 75.5463541,28.1214295 75.6236656,27.9166426 C75.700977,27.7142164 75.740518,27.4929049 75.740518,27.252118 L75.740518,27.252118 Z M76.9108131,27.1659541 C76.9108131,27.5666754 76.8423541,27.9272656 76.7030754,28.2483148 C76.5661574,28.5687738 76.3678623,28.8426098 76.1117311,29.0704131 C75.8556,29.2964459 75.5398623,29.4717246 75.1668787,29.5962492 C74.7962557,29.7184131 74.350682,29.7815607 73.8319279,29.7815607 L72.8823541,29.7815607 L72.8823541,32.6609705 C72.8823541,32.6922492 72.8717311,32.7217574 72.8540262,32.7471344 C72.8339607,32.7725115 72.8032721,32.7913967 72.763141,32.8061508 C72.7218295,32.8209049 72.6663541,32.8315279 72.5931738,32.8421508 C72.5229443,32.8527738 72.4344197,32.8592656 72.3264197,32.8592656 C72.2178295,32.8592656 72.1298951,32.8527738 72.0573049,32.8421508 C71.9864852,32.8315279 71.9292393,32.8209049 71.8873377,32.8061508 C71.8430754,32.7913967 71.8123869,32.7725115 71.7964525,32.7471344 C71.7793377,32.7217574 71.7698951,32.6922492 71.7698951,32.6609705 L71.7698951,25.2821508 C71.7698951,25.1174951 71.8141574,24.9994623 71.9044525,24.929823 C71.9953377,24.8607738 72.0968459,24.8247738 72.2095672,24.8247738 L74.0018951,24.8247738 C74.1824852,24.8247738 74.3548131,24.8312656 74.520059,24.8460197 C74.6882557,24.8607738 74.8841902,24.8920525 75.1096328,24.9386754 C75.3368459,24.9870689 75.5664197,25.0755934 75.8024852,25.2042492 C76.0367803,25.3352656 76.2350754,25.4934295 76.4009115,25.6828721 C76.5643869,25.8729049 76.6900918,26.0924459 76.7780262,26.3409049 C76.8665508,26.5899541 76.9108131,26.866741 76.9108131,27.1659541 L76.9108131,27.1659541 Z M65.7301574,32.6609705 C65.7301574,32.6922492 65.7213049,32.7217574 65.7036,32.7471344 C65.6858951,32.7725115 65.6575672,32.7913967 65.6133049,32.8061508 C65.5714033,32.8209049 65.5141574,32.8315279 65.440977,32.8421508 C65.3701574,32.8527738 65.282223,32.8592656 65.174223,32.8592656 C65.0703541,32.8592656 64.9818295,32.8527738 64.9092393,32.8421508 C64.836059,32.8315279 64.7764525,32.8209049 64.7345508,32.8061508 C64.6908787,32.7913967 64.6596,32.7725115 64.6442557,32.7471344 C64.6265508,32.7217574 64.6176984,32.6922492 64.6176984,32.6609705 L64.6176984,24.9847082 C64.6176984,24.9534295 64.6265508,24.9239213 64.6466164,24.8985443 C64.6660918,24.8731672 64.6997311,24.854282 64.7434033,24.8395279 C64.7900262,24.8247738 64.8472721,24.8141508 64.9180918,24.8035279 C64.9883213,24.7929049 65.0744852,24.7870033 65.174223,24.7870033 C65.282223,24.7870033 65.3701574,24.7929049 65.440977,24.8035279 C65.5141574,24.8141508 65.5714033,24.8247738 65.6133049,24.8395279 C65.6575672,24.854282 65.6858951,24.8731672 65.7036,24.8985443 C65.7213049,24.9239213 65.7301574,24.9534295 65.7301574,24.9847082 L65.7301574,32.6609705 Z M59.5753377,32.3570361 C59.5753377,32.4390689 59.5712066,32.5087082 59.5623541,32.5635934 C59.5535016,32.6208393 59.5399279,32.6668721 59.5204525,32.7075934 C59.5003869,32.7453639 59.4761902,32.7748721 59.4496328,32.7937574 C59.4207148,32.8126426 59.3876656,32.8209049 59.3481246,32.8209049 L55.648977,32.8209049 C55.5498295,32.8209049 55.4565836,32.7896262 55.3686492,32.7258885 C55.2801246,32.6609705 55.2358623,32.5488393 55.2358623,32.3889049 L55.2358623,24.9847082 C55.2358623,24.9534295 55.2447148,24.9239213 55.2624197,24.8985443 C55.2783541,24.8731672 55.3090426,24.854282 55.3533049,24.8395279 C55.3952066,24.8247738 55.4548131,24.8141508 55.5274033,24.8035279 C55.6005836,24.7929049 55.688518,24.7870033 55.7923869,24.7870033 C55.9003869,24.7870033 55.9889115,24.7929049 56.059141,24.8035279 C56.1323213,24.8141508 56.1895672,24.8247738 56.2314689,24.8395279 C56.2757311,24.854282 56.3046492,24.8731672 56.3217639,24.8985443 C56.3394689,24.9239213 56.3483213,24.9534295 56.3483213,24.9847082 L56.3483213,31.8990689 L59.3481246,31.8990689 C59.3876656,31.8990689 59.4207148,31.910282 59.4496328,31.9291672 C59.4761902,31.9456918 59.5003869,31.9734295 59.5204525,32.0088393 C59.5399279,32.0430689 59.5535016,32.0891016 59.5623541,32.148118 C59.5712066,32.2053639 59.5753377,32.2750033 59.5753377,32.3570361 L59.5753377,32.3570361 Z M46.4217639,25.887659 L46.4152721,25.887659 L44.9740918,29.8742164 L47.8830098,29.8742164 L46.4217639,25.887659 Z M50.0241246,32.4437902 C50.0571738,32.5340852 50.0766492,32.6078557 50.0790098,32.662741 C50.0813705,32.7199869 50.0636656,32.7624787 50.0306164,32.7896262 C49.9952066,32.8191344 49.9379607,32.8380197 49.8582885,32.846282 C49.7792066,32.8551344 49.672977,32.8592656 49.5384197,32.8592656 C49.406223,32.8592656 49.2976328,32.8551344 49.2185508,32.8486426 C49.1388787,32.8421508 49.0792721,32.8315279 49.0373705,32.8191344 C48.9954689,32.8043803 48.9665508,32.7831344 48.9470754,32.760118 C48.9270098,32.734741 48.9093049,32.7028721 48.8916,32.6668721 L48.1745508,30.7199213 L44.6955344,30.7199213 L44.0091738,32.6420852 C43.9961902,32.6798557 43.9784852,32.7117246 43.9584197,32.7365115 C43.9365836,32.7642492 43.9053049,32.7872656 43.8634033,32.8061508 C43.8238623,32.8232656 43.7642557,32.8380197 43.6893049,32.846282 C43.6143541,32.8551344 43.516977,32.8592656 43.3954033,32.8592656 C43.2696984,32.8592656 43.1681902,32.8527738 43.0891082,32.8421508 C43.0094361,32.8315279 42.9521902,32.8126426 42.9209115,32.7831344 C42.8878623,32.7559869 42.872518,32.7134951 42.8748787,32.6568393 C42.8772393,32.6019541 42.8943541,32.5281836 42.9297639,32.4372984 L45.7354033,25.0100852 C45.7531082,24.9640525 45.7749443,24.9280525 45.8038623,24.8985443 C45.8321902,24.8690361 45.8723213,24.8477902 45.9272066,24.8312656 C45.9803213,24.8141508 46.0487803,24.8035279 46.1349443,24.7970361 C46.2187475,24.7911344 46.3243869,24.7870033 46.4548131,24.7870033 C46.5917311,24.7870033 46.706223,24.7911344 46.7971082,24.7970361 C46.8874033,24.8035279 46.9605836,24.8141508 47.0154689,24.8312656 C47.0727148,24.8477902 47.1146164,24.8708066 47.1458951,24.9026754 C47.1765836,24.9321836 47.1984197,24.9699541 47.2161246,25.016577 L50.0241246,32.4437902 Z" id="Fill-8" fill="#231814"></path>
                <g id="Group-12" transform="translate(0.000000, 0.486354)">
                    <mask id="mask-4" fill="white">
                        <use xlink:href="#path-3"></use>
                    </mask>
                    <g id="Clip-11"></g>
                    <path d="M18.471718,21.7084131 C12.005882,18.1922164 8.29965246,18.5356918 6.35742295,19.6758885 C4.22339016,20.9288066 3.26791475,23.8566098 5.53709508,25.7563475 C6.06588197,26.1983803 6.84371803,26.5223803 7.87178361,26.7525443 C14.0891607,28.1441508 18.471718,21.7084131 18.471718,21.7084131 M6.9015541,0.103691803 L28.404177,0.103691803 C32.2001115,0.103691803 35.3061443,3.20972459 35.3061443,7.00506885 L35.3061443,24.2236918 C32.7554557,23.342577 27.2610295,21.4528721 23.4290951,20.1863803 C25.574341,16.4571344 26.4837836,12.9822492 26.4837836,12.9822492 L19.677423,12.9822492 L19.677423,10.5218557 L28.0217508,10.5218557 L28.0217508,9.41529836 L19.677423,9.41529836 L19.677423,5.35556066 L15.9045049,5.35556066 L15.9045049,9.41529836 L7.56076721,9.41529836 L7.56076721,10.5218557 L15.9045049,10.5218557 L15.9045049,12.9822492 L8.64725902,12.9822492 L8.64725902,14.2947738 L22.1785377,14.2947738 C21.924177,16.5279541 21.1906033,17.8027082 20.1902754,19.2710361 C13.356177,17.4155607 8.0895541,16.2753639 4.62883279,19.0922164 C1.10260328,21.9621836 2.98817705,30.942118 12.9117836,28.9332 C16.5938164,28.187823 19.411259,25.7988393 21.499259,23.0893967 L35.2860787,29.0364787 C35.013423,32.5880852 32.0230623,35.409659 28.404177,35.409659 L6.9015541,35.409659 C3.10561967,35.409659 0.00017704918,32.3042164 0.00017704918,28.508282 L0.00017704918,7.00506885 C0.00017704918,3.20972459 3.10561967,0.103691803 6.9015541,0.103691803" id="Fill-10" fill="#009FE8" mask="url(#mask-4)"></path>
                </g>
            </g>
        </g>
    </g>
</svg>