<?xml version="1.0" encoding="utf-8"?>
<!-- Generator: Adobe Illustrator 17.1.0, SVG Export Plug-In . SVG Version: 6.00 Build 0)  -->
<!DOCTYPE svg PUBLIC "-//W3C//DTD SVG 1.1//EN" "http://www.w3.org/Graphics/SVG/1.1/DTD/svg11.dtd">
<svg version="1.1" id="图层_1" xmlns="http://www.w3.org/2000/svg" xmlns:xlink="http://www.w3.org/1999/xlink" x="0px" y="0px"
	 viewBox="0 0 20 20" enable-background="new 0 0 20 20" xml:space="preserve">
<path fill-rule="evenodd" clip-rule="evenodd" fill="none" d="M17.1,6.7H2.9V5.5c0-0.3,0.2-0.6,0.5-0.6h13.2c0.3,0,0.5,0.3,0.5,0.6
	L17.1,6.7L17.1,6.7z M17.1,14.5c0,0.3-0.2,0.6-0.5,0.6H3.4c-0.3,0-0.5-0.3-0.5-0.6V9.1h14.2L17.1,14.5L17.1,14.5z M18.1,14.5v-9
	c0-1-0.7-1.8-1.5-1.8H3.4c-0.8,0-1.5,0.8-1.5,1.8v9c0,1,0.7,1.8,1.5,1.8h13.2C17.5,16.3,18.1,15.5,18.1,14.5z"/>
<path d="M16.6,3.7H3.4c-0.8,0-1.5,0.8-1.5,1.8v9c0,1,0.7,1.8,1.5,1.8h13.2c0.8,0,1.5-0.8,1.5-1.8v-9C18.1,4.5,17.5,3.7,16.6,3.7z
	 M16.6,15.2H3.4c-0.3,0-0.5-0.3-0.5-0.6V9.2h14.2v5.4h0C17.1,14.9,16.9,15.2,16.6,15.2z M17.1,6.7L17.1,6.7H2.9V5.5
	c0-0.3,0.2-0.6,0.5-0.6h13.2c0.3,0,0.5,0.3,0.5,0.6V6.7z"/>
</svg>
