<?xml version="1.0" encoding="utf-8"?>
<!-- Generator: Adobe Illustrator 17.1.0, SVG Export Plug-In . SVG Version: 6.00 Build 0)  -->
<!DOCTYPE svg PUBLIC "-//W3C//DTD SVG 1.1//EN" "http://www.w3.org/Graphics/SVG/1.1/DTD/svg11.dtd">
<svg version="1.1" id="图层_1" xmlns="http://www.w3.org/2000/svg" xmlns:xlink="http://www.w3.org/1999/xlink" x="0px" y="0px"
	 viewBox="0 0 24 24" enable-background="new 0 0 24 24" xml:space="preserve">
<g>
	<path d="M5.2,17.2l4-5.4l3.7,2.6c0.3,0.2,0.8,0.2,1.1,0l7.5-6.2c0.2-0.2,0.3-0.4,0.3-0.6c0-0.3,0-0.5-0.2-0.7
		c-0.3-0.4-0.9-0.5-1.3-0.2l-7,5.7L9.5,9.7c-0.4-0.3-1-0.2-1.3,0.2l-4.5,6.2c-0.3,0.4-0.2,1,0.2,1.3c0.2,0.1,0.4,0.2,0.6,0.2
		C4.8,17.6,5.1,17.5,5.2,17.2z"/>
	<path d="M2.3,2.6c-0.5,0-0.9,0.4-0.9,1v16.9c0,0.5,0.4,1,0.9,1h19.5c0.5,0,0.9-0.4,0.9-1s-0.4-1-0.9-1H3.2v-16
		C3.2,3,2.8,2.6,2.3,2.6z"/>
</g>
</svg>
