<?xml version="1.0" encoding="utf-8"?>
<!-- Generator: Adobe Illustrator 17.1.0, SVG Export Plug-In . SVG Version: 6.00 Build 0)  -->
<!DOCTYPE svg PUBLIC "-//W3C//DTD SVG 1.1//EN" "http://www.w3.org/Graphics/SVG/1.1/DTD/svg11.dtd">
<svg version="1.1" id="图层_1" xmlns="http://www.w3.org/2000/svg" xmlns:xlink="http://www.w3.org/1999/xlink" x="0px" y="0px"
	 viewBox="0 0 30 30" enable-background="new 0 0 30 30" xml:space="preserve">
<path d="M4.4,18.2h0.4c0.1,0,0.1,0.1,0.1,0.2c0,0.1-0.1,0.2-0.1,0.2H4.4v0.4c0,0.1-0.1,0.1-0.2,0.1c0,0-0.1,0-0.2-0.1c0,0,0,0,0-0.1
	v-0.4H3.7c-0.1,0-0.2-0.1-0.2-0.2c0-0.1,0.1-0.2,0.2-0.2h0.4v-0.4c0-0.1,0.1-0.2,0.2-0.2c0.1,0,0.2,0,0.2,0.2V18.2z M27.8,16.8v-0.4
	c0,0,0-0.1,0-0.1c-0.1,0-0.1,0-0.2,0c-0.1,0-0.2,0-0.2,0.2v0.4h-0.4c0,0-0.1,0-0.1,0c-0.1,0.1-0.1,0.1-0.1,0.2
	c0,0.1,0.1,0.2,0.2,0.2h0.4v0.4c0,0.1,0.1,0.2,0.1,0.2c0.1,0,0.2-0.1,0.2-0.2v-0.4h0.4c0.1,0,0.2-0.1,0.2-0.2c0-0.1-0.1-0.2-0.2-0.2
	H27.8L27.8,16.8z M14.9,22.6H6c-0.1,0-0.2,0-0.3-0.1c-0.1-0.1-0.1-0.2-0.1-0.3c0-0.2,0.2-0.3,0.4-0.3h1.6c-0.1-0.2-0.2-0.5-0.2-0.7
	V11c0-0.4,0.2-0.8,0.4-1c0.3-0.3,0.6-0.4,1-0.4h1.1V9.2c0-0.4,0.1-0.8,0.4-1c0.3-0.3,0.6-0.4,1-0.4h8.5c0.4,0,0.8,0.2,1,0.4
	c0.3,0.3,0.4,0.6,0.4,1v10.3c0,0.3-0.1,0.5-0.2,0.7h2c0.2,0,0.4,0.1,0.4,0.4c0,0.2-0.2,0.3-0.3,0.4c0,0,0,0,0,0h-4.2v0.4
	c0,0.3-0.1,0.5-0.2,0.7h0.2c0.2,0,0.4,0.2,0.4,0.4c0,0.2-0.1,0.4-0.3,0.4c0,0,0,0,0,0h-1.9c0.2,0.3,0.1,0.6-0.1,0.9
	c-0.1,0.1-0.3,0.2-0.5,0.2c-0.2,0-0.4-0.1-0.5-0.2L14.9,22.6L14.9,22.6z M16.2,21.9h1.1c0.4,0,0.7-0.3,0.7-0.7c0,0,0,0,0,0V10.9
	c0-0.4-0.3-0.7-0.7-0.7H8.8c-0.4,0-0.7,0.3-0.7,0.7v10.3c0,0.4,0.3,0.7,0.7,0.7h5.4L14,21.7c-0.2-0.2-0.3-0.5-0.2-0.7l-0.4-0.4
	c-1.1,0.8-2.5,0.6-3.4-0.4c-0.9-1-0.8-2.5,0.1-3.4c0.9-0.9,2.4-1,3.4-0.1c1,0.9,1.2,2.3,0.4,3.4l0.4,0.4c0.3-0.1,0.5,0,0.7,0.2
	L16.2,21.9L16.2,21.9z M18.8,20.2h1.1c0.4,0,0.7-0.3,0.7-0.7c0,0,0,0,0,0V9.1c0-0.4-0.3-0.7-0.7-0.7c0,0,0,0,0,0h-8.5
	c-0.4,0-0.7,0.3-0.7,0.7c0,0,0,0,0,0v0.4h6.7c0.4,0,0.8,0.2,1,0.4c0.3,0.3,0.4,0.6,0.4,1V20.2z M6.3,7.1h0.5C6.9,7.1,7,7.2,7,7.4
	c0,0.2-0.1,0.3-0.3,0.3H6.3v0.5c0,0.2-0.1,0.3-0.3,0.3c-0.1,0-0.2,0-0.2-0.1c-0.1-0.1,0-0.1,0-0.2V7.6H5.2c-0.1,0-0.2,0-0.2-0.1
	C5,7.4,4.9,7.4,4.9,7.3C4.9,7.1,5,7,5.2,7h0.6V6.5c0-0.2,0.1-0.3,0.3-0.3c0.2,0,0.3,0.1,0.3,0.3L6.3,7.1L6.3,7.1z M2.1,22.3
	c0-0.2,0.2-0.3,0.4-0.3h2.1c0.2,0,0.4,0.1,0.4,0.3c0,0.2-0.1,0.4-0.4,0.4H2.4c-0.1,0-0.2,0-0.3-0.1C2.1,22.5,2.1,22.4,2.1,22.3
	L2.1,22.3z M13.2,20c0.7-0.7,0.7-1.8,0-2.5c0,0,0,0,0,0c-0.7-0.7-1.8-0.7-2.5,0c0,0,0,0,0,0c-0.7,0.7-0.7,1.8,0,2.5c0,0,0,0,0,0
	C11.4,20.7,12.5,20.7,13.2,20C13.2,20,13.2,20,13.2,20z M9.6,11.7c0-0.2,0.2-0.4,0.4-0.4h3.9c0.2,0,0.4,0.1,0.4,0.3c0,0,0,0,0,0
	c0,0.2-0.1,0.4-0.3,0.4c0,0,0,0,0,0H9.9c-0.1,0-0.2,0-0.3-0.1C9.6,11.8,9.6,11.7,9.6,11.7z M9.6,13.4c0-0.2,0.2-0.4,0.4-0.4h5.7
	c0.2,0,0.4,0.1,0.4,0.3c0,0,0,0,0,0c0,0.2-0.1,0.4-0.3,0.4c0,0,0,0,0,0H9.9c-0.1,0-0.2,0-0.3-0.1C9.6,13.6,9.6,13.5,9.6,13.4z
	 M9.6,15.2c0-0.2,0.2-0.4,0.4-0.4h2.5c0.2,0,0.4,0.2,0.4,0.3c0,0,0,0,0,0c0,0.2-0.1,0.3-0.3,0.4c0,0,0,0,0,0H9.9
	c-0.1,0-0.2,0-0.3-0.1C9.6,15.4,9.6,15.3,9.6,15.2z M2.8,13.1c-0.4,0-0.7-0.2-0.9-0.6s-0.2-0.8,0-1.1c0.2-0.3,0.5-0.5,0.9-0.6
	c0.6,0,1.1,0.5,1.1,1.1C3.9,12.6,3.4,13.1,2.8,13.1z M2.8,12.5c0.2,0,0.4-0.1,0.5-0.3c0.1-0.2,0.1-0.4,0-0.5
	c-0.1-0.2-0.3-0.3-0.5-0.3c-0.3,0-0.6,0.3-0.6,0.6C2.3,12.3,2.5,12.5,2.8,12.5z M24.8,11c-0.4,0-0.8-0.2-0.9-0.6
	c-0.2-0.3-0.2-0.7,0-1.1c0.2-0.3,0.6-0.6,0.9-0.6c0.6,0,1.1,0.5,1.1,1.1C25.9,10.5,25.4,11,24.8,11z M24.8,10.4
	c0.2,0,0.4-0.1,0.5-0.3c0.1-0.2,0.1-0.4,0-0.6c-0.1-0.2-0.3-0.3-0.5-0.3c-0.3,0-0.6,0.2-0.6,0.6C24.3,10.1,24.5,10.4,24.8,10.4z"/>
</svg>
