<?xml version="1.0" encoding="utf-8"?>
<!-- Generator: Adobe Illustrator 17.1.0, SVG Export Plug-In . SVG Version: 6.00 Build 0)  -->
<!DOCTYPE svg PUBLIC "-//W3C//DTD SVG 1.1//EN" "http://www.w3.org/Graphics/SVG/1.1/DTD/svg11.dtd">
<svg version="1.1" id="图层_1" xmlns="http://www.w3.org/2000/svg" xmlns:xlink="http://www.w3.org/1999/xlink" x="0px" y="0px"
	 viewBox="0 0 20 20" enable-background="new 0 0 20 20" xml:space="preserve">
<rect x="-606" y="-363.3" fill="none" width="1440" height="742"/>
<path d="M4,17c0,1.1,0.9,2,2,2h8c1.1,0,2-0.9,2-2V5H4V17z M6.5,9.9l1.4-1.4l2.1,2.1l2.1-2.1l1.4,1.4L11.4,12l2.1,2.1l-1.4,1.4
	L10,13.4l-2.1,2.1l-1.4-1.4L8.6,12L6.5,9.9z M13.5,2l-1-1h-5l-1,1H3v2h14V2H13.5z"/>
</svg>
