<?xml version="1.0" encoding="utf-8"?>
<!-- Generator: Adobe Illustrator 17.1.0, SVG Export Plug-In . SVG Version: 6.00 Build 0)  -->
<!DOCTYPE svg PUBLIC "-//W3C//DTD SVG 1.1//EN" "http://www.w3.org/Graphics/SVG/1.1/DTD/svg11.dtd">
<svg version="1.1" id="图层_1" xmlns="http://www.w3.org/2000/svg" xmlns:xlink="http://www.w3.org/1999/xlink" x="0px" y="0px"
	 viewBox="0 0 30 30" enable-background="new 0 0 30 30" xml:space="preserve">
<path d="M25,9.1c-1.7,0-3,1.3-3,3c0,0.3,0.1,0.7,0.2,1C21.6,13.7,20.8,14,20,14c-1.4,0-2.6-0.9-2.9-2.3L17,10.3c0.6-0.6,1-1.3,1-2.2
	c0-1.6-1.3-3-3-3s-3,1.3-3,3c0,0.8,0.4,1.6,1,2.2l-0.1,1.5C12.5,13.1,11.4,14,10,14c-0.8,0-1.6-0.3-2.2-0.9c0.1-0.3,0.2-0.7,0.2-1
	c0-1.6-1.3-3-3-3s-3,1.3-3,3c0,1.3,0.9,2.4,2.1,2.8l4.2,9.9h13.3l4.2-9.9c1.2-0.4,2.1-1.5,2.1-2.8C28,10.4,26.7,9.1,25,9.1z M15,7.2
	c0.6,0,1,0.4,1,1c0,0.3-0.2,0.6-0.5,0.8L15,9.2L14.5,9C14.2,8.8,14,8.5,14,8.1C14,7.6,14.4,7.2,15,7.2z M4.9,13
	C4.4,13,4,12.6,4,12.1c0-0.5,0.4-1,1-1s1,0.4,1,1c0,0.2-0.1,0.4-0.2,0.5l-0.3,0.5L4.9,13z M20.3,22.8H9.7l-3.9-9.1l0,0
	C6.7,15.1,8.3,16,10,16c2.3,0,4.3-1.5,4.8-3.8L15,9.9l0.1,2.2l0.1,0.3c0.6,2.2,2.6,3.7,4.8,3.7c1.7,0,3.3-0.9,4.2-2.3l0,0L20.3,22.8
	z M25.1,13l-0.6,0.1l-0.3-0.5c-0.1-0.2-0.2-0.3-0.2-0.5c0-0.5,0.4-1,1-1s1,0.4,1,1C26,12.6,25.6,13,25.1,13z"/>
</svg>
