<?xml version="1.0" encoding="utf-8"?>
<!-- Generator: Adobe Illustrator 17.1.0, SVG Export Plug-In . SVG Version: 6.00 Build 0)  -->
<!DOCTYPE svg PUBLIC "-//W3C//DTD SVG 1.1//EN" "http://www.w3.org/Graphics/SVG/1.1/DTD/svg11.dtd">
<svg version="1.1" id="图层_1" xmlns="http://www.w3.org/2000/svg" xmlns:xlink="http://www.w3.org/1999/xlink" x="0px" y="0px"
	 viewBox="0 0 30 30" enable-background="new 0 0 30 30" xml:space="preserve">
<path d="M21,23.8H9L4.8,14c-1-0.1-1.8-0.9-1.8-1.9c0-1.1,0.9-2,2-2s2,0.9,2,2c0,0.4-0.1,0.8-0.4,1.1C7.3,14.3,8.6,15,10,15
	c1.9,0,3.4-1.3,3.9-2.9l0-0.2L14,9.8c-0.6-0.3-1-1-1-1.7c0-1.1,0.9-2,2-2s2,0.9,2,2c0,0.7-0.4,1.3-1,1.7l0.1,2l0.1,0.2
	c0.4,1.7,2,2.9,3.9,2.9c1.4,0,2.7-0.7,3.4-1.8c-0.2-0.3-0.4-0.7-0.4-1.1c0-1.1,0.9-2,2-2c1.1,0,2,0.9,2,2c0,1-0.8,1.9-1.8,1.9
	L21,23.8z"/>
</svg>
