<?xml version="1.0" encoding="utf-8"?>
<!-- Generator: Adobe Illustrator 17.1.0, SVG Export Plug-In . SVG Version: 6.00 Build 0)  -->
<!DOCTYPE svg PUBLIC "-//W3C//DTD SVG 1.1//EN" "http://www.w3.org/Graphics/SVG/1.1/DTD/svg11.dtd">
<svg version="1.1" id="图层_1" xmlns="http://www.w3.org/2000/svg" xmlns:xlink="http://www.w3.org/1999/xlink" x="0px" y="0px"
	 viewBox="0 0 24 24" enable-background="new 0 0 24 24" xml:space="preserve">
<rect x="-919.2" y="-390.7" fill="none" width="1728" height="890.4"/>
<rect x="-858.1" y="-420.5" fill="none" width="1728" height="890.4"/>
<rect x="-858.1" y="-420.5" fill="none" width="1728" height="890.4"/>
<path d="M14.5,14.4c0-1.4-1.1-2.5-2.5-2.5S9.6,13,9.6,14.4c0,1,0.6,1.9,1.5,2.3c0,0.1,0,0.1,0,0.2v0.4c0,0.2,0,0.4,0,0.6
	c0,0.5,0.2,0.8,0.8,0.8h0.1h0.1c0.6,0,0.8-0.2,0.8-0.8c0-0.4,0-0.8,0-1.1C13.9,16.3,14.5,15.4,14.5,14.4z M12.1,13.6
	c0.4,0,0.8,0.3,0.8,0.8c0,0.4-0.3,0.8-0.8,0.8s-0.8-0.3-0.8-0.8C11.3,14,11.6,13.6,12.1,13.6z"/>
<path d="M21.5,10.4l-0.1-0.8h-2.1c-0.2-4.5-3-7.2-7.3-7.2c-4,0-7.1,3.2-7.1,5.8v0.4h1.8V8.2c0-1.8,2.5-4.1,5.4-4.1
	c2,0,5.3,0.7,5.6,5.5H3l-0.1,0.8c0,0.2-0.4,4,1.2,6.8c0.8,1.4,3.1,4.7,8.1,4.7c5,0,7.4-3.3,8.1-4.7C22,14.3,21.5,10.6,21.5,10.4z
	 M12.2,20.1c-4.1,0-6-2.6-6.6-3.8c-0.9-1.6-1-3.8-1-5h15.2c0,1.2-0.1,3.3-1,5C18.2,17.5,16.3,20.1,12.2,20.1z"/>
</svg>
