<?xml version="1.0" encoding="UTF-8" standalone="no"?>
<svg width="46px" height="46px" viewBox="0 0 46 46" version="1.1" xmlns="http://www.w3.org/2000/svg" xmlns:xlink="http://www.w3.org/1999/xlink">
    <!-- Generator: Sketch 39 (31667) - http://www.bohemiancoding.com/sketch -->
    <title>pay_select</title>
    <desc>Created with Sketch.</desc>
    <defs></defs>
    <g id="Page-1" stroke="none" stroke-width="1" fill="none" fill-rule="evenodd">
        <g id="pay_select">
            <g id="Group-3" transform="translate(2.000000, 2.000000)">
                <polygon id="Path-11" fill="#1194F6" points="0.850404593 0 40.5164423 0 0 42.0485477"></polygon>
                <g id="Group" transform="translate(5.000000, 8.000000)" fill="#FFFFFF">
                    <path d="M17.1517237,1.65582498 L7.38998927,11.4178128 L7.38872246,11.4190795 L7.03047042,11.7773316 C6.88792368,11.9199025 6.69457431,12 6.4929657,12 C6.29135709,12 6.09800772,11.9199025 5.95546098,11.7773316 L0.222668414,6.04453902 C0.0800975231,5.90199228 1.14214831e-16,5.70864291 0,5.5070343 C-1.14235169e-16,5.30542569 0.0800975231,5.11207632 0.222668414,4.96952958 L0.58092045,4.61127754 C0.877819319,4.31452621 1.35903103,4.31452621 1.6559299,4.61127754 L6.49283903,9.44844003 L15.7184622,0.222563498 C16.0153611,-0.0741878327 16.4965728,-0.0741878327 16.7934716,0.222563498 L17.1517237,0.581068883 C17.2943413,0.723539373 17.3744754,0.91685916 17.3744754,1.11844693 C17.3744754,1.3200347 17.2943413,1.51335449 17.1517237,1.65582498 L17.1517237,1.65582498 Z" id="Shape"></path>
                </g>
            </g>
        </g>
    </g>
</svg>