<?xml version="1.0" encoding="utf-8"?>
<!-- Generator: Adobe Illustrator 17.1.0, SVG Export Plug-In . SVG Version: 6.00 Build 0)  -->
<!DOCTYPE svg PUBLIC "-//W3C//DTD SVG 1.1//EN" "http://www.w3.org/Graphics/SVG/1.1/DTD/svg11.dtd">
<svg version="1.1" id="图层_1" xmlns="http://www.w3.org/2000/svg" xmlns:xlink="http://www.w3.org/1999/xlink" x="0px" y="0px"
	 viewBox="0 0 20 20" enable-background="new 0 0 20 20" xml:space="preserve">
<g>
	<path d="M16.9,4.6h-2.3l-1.4-1.6H6.8L5.4,4.6H3.1c-0.8,0-1.5,0.7-1.5,1.5v9.2c0,0.9,0.7,1.5,1.5,1.5h13.8c0.8,0,1.5-0.7,1.5-1.5
		V6.2C18.4,5.3,17.7,4.6,16.9,4.6z M10,15.4c-2.8,0-5.1-2.3-5.1-5.2c0-2.9,2.3-5.2,5.1-5.2s5.1,2.3,5.1,5.2
		C15.1,13.1,12.8,15.4,10,15.4z"/>
	<ellipse cx="10" cy="10.3" rx="3.4" ry="3.5"/>
</g>
</svg>
