<?xml version="1.0" encoding="utf-8"?>
<!-- Generator: Adobe Illustrator 17.1.0, SVG Export Plug-In . SVG Version: 6.00 Build 0)  -->
<!DOCTYPE svg PUBLIC "-//W3C//DTD SVG 1.1//EN" "http://www.w3.org/Graphics/SVG/1.1/DTD/svg11.dtd">
<svg version="1.1" id="图层_1" xmlns="http://www.w3.org/2000/svg" xmlns:xlink="http://www.w3.org/1999/xlink" x="0px" y="0px"
	 viewBox="0 0 20 20" enable-background="new 0 0 20 20" xml:space="preserve">
<rect x="-660.7" y="-274.1" fill="none" width="1440" height="742"/>
<g>
	<path d="M14.8,4.1c-1.3-1.3-3-2-4.8-2s-3.5,0.7-4.8,2s-2,3-2,4.8c0,1,0.2,1.9,0.6,2.8c0.4,0.9,1,1.7,1.8,2.4l4.4,3.9l4.4-3.9
		c0.8-0.7,1.4-1.5,1.8-2.4c0.4-0.9,0.6-1.8,0.6-2.8C16.8,7.1,16.1,5.4,14.8,4.1z M15.6,8.8c0,0.8-0.2,1.5-0.5,2.2
		c-0.3,0.7-0.9,1.4-1.5,2L10,16.2l-3.5-3.2c-0.7-0.6-1.2-1.2-1.5-2c-0.3-0.7-0.5-1.5-0.5-2.2C4.4,7.4,5,6,6.1,5
		c1.1-1,2.4-1.6,3.9-1.6c1.5,0,2.9,0.6,3.9,1.6C15,6,15.6,7.4,15.6,8.8z"/>
	<path d="M10,6.7c-0.7,0-1.4,0.3-2,0.8l0,0v0C7.5,8.1,7.2,8.7,7.2,9.4c0,0.7,0.3,1.4,0.8,1.9c0.5,0.5,1.2,0.8,2,0.8
		c0.7,0,1.4-0.3,2-0.8c0.5-0.5,0.8-1.2,0.8-1.9c0-0.7-0.3-1.4-0.8-1.9C11.4,7,10.7,6.7,10,6.7z M11.5,9.4c0,0.4-0.2,0.8-0.4,1
		c-0.3,0.3-0.7,0.4-1.1,0.4c-0.4,0-0.8-0.2-1.1-0.4c-0.3-0.3-0.4-0.6-0.4-1c0-0.4,0.1-0.7,0.4-1l0,0C9.2,8.1,9.6,8,10,8
		c0.4,0,0.8,0.2,1.1,0.4l0,0C11.3,8.7,11.5,9,11.5,9.4z"/>
</g>
</svg>
