<?xml version="1.0" encoding="utf-8"?>
<!-- Generator: Adobe Illustrator 17.1.0, SVG Export Plug-In . SVG Version: 6.00 Build 0)  -->
<!DOCTYPE svg PUBLIC "-//W3C//DTD SVG 1.1//EN" "http://www.w3.org/Graphics/SVG/1.1/DTD/svg11.dtd">
<svg version="1.1" id="图层_1" xmlns="http://www.w3.org/2000/svg" xmlns:xlink="http://www.w3.org/1999/xlink" x="0px" y="0px"
	 viewBox="0 0 20 20" enable-background="new 0 0 20 20" xml:space="preserve">
<rect x="-606" y="-274.1" fill="none" width="1440" height="742"/>
<g>
	<rect x="4.8" y="10.4" width="4.8" height="1.4"/>
	<path d="M17.5,16.1v-5.5c0-1.3-1.1-2.4-2.4-2.4H13V4.9c0-1.3-1.1-2.4-2.4-2.4H4.9c-1.3,0-2.4,1.1-2.4,2.4v11.2H1.4v1.4h17.2v-1.4
		H17.5z M3.9,16.1V4.9c0-0.6,0.5-1,1-1h5.7c0.6,0,1,0.5,1,1v11.2H3.9z M13,16.1V9.6h2.1c0.6,0,1,0.5,1,1v5.5H13z"/>
	<rect x="4.8" y="8.2" width="4.8" height="1.4"/>
	<rect x="4.8" y="5.9" width="4.8" height="1.4"/>
</g>
</svg>
