<?xml version="1.0" encoding="utf-8"?>
<!-- Generator: Adobe Illustrator 17.1.0, SVG Export Plug-In . SVG Version: 6.00 Build 0)  -->
<!DOCTYPE svg PUBLIC "-//W3C//DTD SVG 1.1//EN" "http://www.w3.org/Graphics/SVG/1.1/DTD/svg11.dtd">
<svg version="1.1" id="图层_1" xmlns="http://www.w3.org/2000/svg" xmlns:xlink="http://www.w3.org/1999/xlink" x="0px" y="0px"
	 viewBox="0 0 20 20" enable-background="new 0 0 20 20" xml:space="preserve">
<rect x="-579" y="-274.1" fill="none" width="1440" height="742"/>
<g>
	<path d="M17.2,5.8c0-0.8-0.6-1.5-1.4-1.6c-0.9-0.1-1.7-0.3-2.5-0.6c-0.8-0.3-1.5-0.7-2.2-1.3c-0.6-0.4-1.5-0.4-2.1,0.1
		C8.2,2.9,7.5,3.4,6.7,3.6C5.9,3.9,5.1,4.1,4.2,4.2C3.4,4.3,2.8,5,2.8,5.8v4.3c0.1,4,4.7,7.9,7.3,7.9c2.5,0,6.5-2.8,7.1-7.8
		C17.3,8.7,17.3,7.2,17.2,5.8z M10,16.6c-1.8,0-5.8-3.3-5.9-6.5l0-4.3c0-0.1,0.1-0.2,0.1-0.2c1-0.1,1.9-0.3,2.8-0.7
		c1-0.3,1.9-0.8,2.7-1.5c0.1,0,0.1-0.1,0.2-0.1h0l0-0.1l0-0.1l0,0.1c0.1,0,0.1,0,0.2,0C11,4,11.8,4.5,12.7,4.9
		c0.9,0.3,1.9,0.5,2.8,0.6c0.1,0,0.2,0.1,0.3,0.3c0,0.4,0.1,1.9,0,4.2C15.2,14.4,11.8,16.6,10,16.6z"/>
	<path d="M14,7.4c-0.3-0.1-0.5,0-0.7,0.2l-4,3.7l-2-2.1C7.1,9.1,6.9,9,6.6,9C6.3,9.1,6.1,9.3,6,9.5C6,9.8,6,10.1,6.2,10.3l2.5,2.6
		L8.8,13c0.1,0.1,0.3,0.1,0.4,0.1c0.2,0,0.4-0.1,0.5-0.2l4.5-4.2l0,0c0.2-0.2,0.3-0.5,0.2-0.7S14.3,7.5,14,7.4z M14.2,8.6L14.2,8.6
		C14.2,8.6,14.2,8.6,14.2,8.6L14.2,8.6L14.2,8.6z"/>
</g>
</svg>
