<?xml version="1.0" encoding="utf-8"?>
<!-- Generator: Adobe Illustrator 17.1.0, SVG Export Plug-In . SVG Version: 6.00 Build 0)  -->
<!DOCTYPE svg PUBLIC "-//W3C//DTD SVG 1.1//EN" "http://www.w3.org/Graphics/SVG/1.1/DTD/svg11.dtd">
<svg version="1.1" id="图层_1" xmlns="http://www.w3.org/2000/svg" xmlns:xlink="http://www.w3.org/1999/xlink" x="0px" y="0px"
	 viewBox="0 0 20 20" enable-background="new 0 0 20 20" xml:space="preserve">
<rect x="-632.9" y="-274.1" fill="none" width="1440" height="742"/>
<g>
	<path d="M10,11.5c1.9,0,3.5-1.6,3.5-3.5S11.9,4.6,10,4.6C8,4.6,6.5,6.1,6.5,8S8,11.5,10,11.5z M7.7,8c0-1.3,1-2.3,2.3-2.3
		c1.3,0,2.3,1,2.3,2.3c0,1.3-1,2.3-2.3,2.3C8.7,10.3,7.7,9.3,7.7,8z"/>
	<path d="M16.6,15.4L14.7,12c1.1-1.3,1.6-3,1.4-4.7c-0.3-2.8-2.6-5.1-5.4-5.4c-0.2,0-0.5,0-0.7,0C6.6,1.9,3.8,4.6,3.8,8
		c0,1.4,0.5,2.8,1.4,4l-1.9,3.4c-0.1,0.1-0.1,0.2,0,0.3c0.1,0.1,0.2,0.2,0.3,0.2h2.2c0.1,0,0.2,0,0.2,0.1l1.3,2
		c0.1,0.1,0.2,0.1,0.3,0.1c0.1,0,0.2-0.1,0.3-0.2l2-3.6l2,3.6c0.1,0.2,0.4,0.2,0.5,0l1.3-2c0-0.1,0.1-0.1,0.2-0.1h2.2
		c0.1,0,0.2-0.1,0.3-0.2C16.7,15.6,16.7,15.5,16.6,15.4z M13.8,12.8l1,1.8h-1.2c-0.2,0-0.3,0.1-0.4,0.2l-0.8,1.2l-1.2-2
		C12.2,13.9,13.1,13.5,13.8,12.8z M8.8,14.1l-1.1,2l-0.8-1.2c-0.1-0.1-0.3-0.2-0.4-0.2l-1.2,0l1-1.8C6.9,13.5,7.8,13.9,8.8,14.1z
		 M5,7.4c0.3-2.2,2-4,4.3-4.3c0.2,0,0.4,0,0.7,0c1.4,0,2.8,0.6,3.7,1.7c0.9,1.1,1.4,2.5,1.2,3.9c-0.3,2.2-2.1,4-4.3,4.3
		c-1.6,0.2-3.3-0.4-4.4-1.6C5.3,10.3,4.9,8.8,5,7.4z"/>
</g>
</svg>
