<?xml version="1.0" encoding="utf-8"?>
<!-- Generator: Adobe Illustrator 17.1.0, SVG Export Plug-In . SVG Version: 6.00 Build 0)  -->
<!DOCTYPE svg PUBLIC "-//W3C//DTD SVG 1.1//EN" "http://www.w3.org/Graphics/SVG/1.1/DTD/svg11.dtd">
<svg version="1.1" id="图层_1" xmlns="http://www.w3.org/2000/svg" xmlns:xlink="http://www.w3.org/1999/xlink" x="0px" y="0px"
	 viewBox="0 0 153 153" enable-background="new 0 0 153 153" xml:space="preserve">
<g>
	<path d="M111.7,13.8H41.3c-6.9,0-13,5.4-13,11.5v103.3c0,6.1,5.4,11.5,13,11.5h70.4c6.9,0,13-5.4,13-11.5v-104
		C123.9,18.4,118.6,13.8,111.7,13.8z M38.2,100.2l-0.1-74.3c0-1.6,1-2.9,3.2-2.9h70.4c2.1,0,3.2,1,3.2,2.9l0.1,74.3
		C114.9,100.2,38.2,100.2,38.2,100.2z M114.9,110v17.1c0,2.7-2.5,3-3.2,3H41.3c-0.8,0-3.1-0.4-3.1-3V110
		C38.2,110,114.9,110,114.9,110z"/>
</g>
<rect x="-4217.4" y="-2096.9" fill="none" width="11016" height="5676.3"/>
<circle cx="76.5" cy="120" r="6.8"/>
</svg>
