<?xml version="1.0" encoding="utf-8"?>
<!-- Generator: Adobe Illustrator 17.1.0, SVG Export Plug-In . SVG Version: 6.00 Build 0)  -->
<!DOCTYPE svg PUBLIC "-//W3C//DTD SVG 1.1//EN" "http://www.w3.org/Graphics/SVG/1.1/DTD/svg11.dtd">
<svg version="1.1" id="图层_1" xmlns="http://www.w3.org/2000/svg" xmlns:xlink="http://www.w3.org/1999/xlink" x="0px" y="0px"
	 viewBox="0 0 20 20" enable-background="new 0 0 20 20" xml:space="preserve">
<path fill-rule="evenodd" clip-rule="evenodd" d="M13.4,12.1h-0.7l-0.3-0.3c0.9-1,1.4-2.4,1.4-3.9c0-3.3-2.7-5.9-5.9-5.9
	S2,4.7,2,7.9s2.7,5.9,5.9,5.9c1.5,0,2.8-0.5,3.9-1.4l0.3,0.3v0.7l4.6,4.6l1.4-1.4L13.4,12.1z M7.9,12.1c-2.3,0-4.1-1.8-4.1-4.1
	c0-2.3,1.8-4.1,4.1-4.1c2.3,0,4.1,1.8,4.1,4.1C12.1,10.2,10.2,12.1,7.9,12.1z"/>
<rect x="-634.5" y="-112.1" fill="none" width="1440" height="960"/>
</svg>
