<?xml version="1.0" encoding="utf-8"?>
<!-- Generator: Adobe Illustrator 17.1.0, SVG Export Plug-In . SVG Version: 6.00 Build 0)  -->
<!DOCTYPE svg PUBLIC "-//W3C//DTD SVG 1.1//EN" "http://www.w3.org/Graphics/SVG/1.1/DTD/svg11.dtd">
<svg version="1.1" id="图层_1" xmlns="http://www.w3.org/2000/svg" xmlns:xlink="http://www.w3.org/1999/xlink" x="0px" y="0px"
	 viewBox="0 0 20 20" enable-background="new 0 0 20 20" xml:space="preserve">
<g>
	<path d="M4.5,3.2c0-0.5-0.4-0.9-1-0.9s-1,0.4-1,0.9v13.7c0,0.5,0.4,0.9,1,0.9s1-0.4,1-0.9v-4.2h0L4.5,3.2L4.5,3.2L4.5,3.2z"/>
	<path d="M17.4,5.1h-4.2V3.2h-8v9.4H11v1.5h6.4l-1.8-5.2L17.4,5.1z M10.6,9c0.3,0,0.5,0.1,0.5,0.4c0,0.3-0.2,0.5-0.5,0.5H9.4V10
		c0,0.6-0.2,0.9-0.5,0.9c-0.3,0-0.5-0.3-0.5-0.9V9.8H7.3C7,9.8,6.8,9.7,6.8,9.4C6.8,9.1,7,9,7.3,9h1.2V8.3H7.3C7,8.3,6.9,8,6.9,7.8
		c0-0.3,0.2-0.4,0.5-0.4h0.9L7.5,6.1C7.3,5.5,8,5.1,8.3,5.5C8.5,6,9,7,9,7s0.5-1,0.8-1.6C10,4.9,10.7,5.5,10.5,6
		c-0.2,0.4-0.7,1.3-0.7,1.3h0.9c0.3,0,0.5,0.1,0.5,0.4c0,0.3-0.2,0.5-0.5,0.5H9.4V9H10.6z"/>
</g>
</svg>
