<?xml version="1.0" encoding="utf-8"?>
<!-- Generator: Adobe Illustrator 17.1.0, SVG Export Plug-In . SVG Version: 6.00 Build 0)  -->
<!DOCTYPE svg PUBLIC "-//W3C//DTD SVG 1.1//EN" "http://www.w3.org/Graphics/SVG/1.1/DTD/svg11.dtd">
<svg version="1.1" id="图层_1" xmlns="http://www.w3.org/2000/svg" xmlns:xlink="http://www.w3.org/1999/xlink" x="0px" y="0px"
	 viewBox="0 0 20 20" enable-background="new 0 0 20 20" xml:space="preserve">
<path d="M9.9,10.9C8.3,12.6,9,15.1,9,15.1c0.2,0.6-0.2,0.7-0.2,0.7C8,16,4.3,15.7,4.2,15.7c-2.3-0.2-1.9-1-1.9-1L3,12.5
	c0.4-1.8,2-2.2,2-2.2H10C10.2,10.6,9.9,10.9,9.9,10.9z M8.7,9.2c-1.9,0-3.5-1.5-3.5-3.5c0-1.9,1.6-3.5,3.5-3.5s3.5,1.5,3.5,3.5
	C12.2,7.6,10.6,9.2,8.7,9.2z M13.7,12.2c-0.9,0-1.6,0.7-1.6,1.6c0,0.9,0.7,1.6,1.6,1.6c0.9,0,1.6-0.7,1.6-1.6
	C15.3,13,14.6,12.2,13.7,12.2z M17.6,14.7c-0.1,0-1.9,0.2-0.4,1.1c-0.4,0.6-1,1.2-1.6,1.5c-0.1-0.2-1-1.2-1.1,0.4
	c-0.5,0.1-1,0.1-1.5,0c0,0,0-1.6-1.2-0.5l0,0c-0.6-0.3-1-0.8-1.3-1.3c0.2-0.1,1.3-1.1-0.4-1.1c0-0.3-0.1-0.6-0.1-0.9
	c0-0.2,0-0.5,0-0.7h0c0,0,1.8,0.2,0.4-1.2c0.3-0.5,0.7-1,1.2-1.3c0,0,1.3,1.3,1.4-0.6c0.5-0.1,1.1-0.1,1.6,0c0,0,0,1.9,1.3,0.5
	c0.5,0.2,1,0.7,1.3,1.3c0,0-1.6,1.1,0.4,1.2h0C17.7,13.6,17.7,14.2,17.6,14.7z"/>
</svg>
