<?xml version="1.0" encoding="utf-8"?>
<!-- Generator: Adobe Illustrator 17.1.0, SVG Export Plug-In . SVG Version: 6.00 Build 0)  -->
<!DOCTYPE svg PUBLIC "-//W3C//DTD SVG 1.1//EN" "http://www.w3.org/Graphics/SVG/1.1/DTD/svg11.dtd">
<svg version="1.1" id="图层_1" xmlns="http://www.w3.org/2000/svg" xmlns:xlink="http://www.w3.org/1999/xlink" x="0px" y="0px"
	 viewBox="0 0 20 20" enable-background="new 0 0 20 20" xml:space="preserve">
<path d="M15.6,11.1V6.3c0-1.8-1.4-3.3-3.2-3.3H4.1C3.6,3,3.2,3.5,3.2,4v9.7c0,1.8,1.4,3.3,3.2,3.3h9.4c0.5,0,1-0.5,1-1v-4
	C16.8,11.3,16.3,11.1,15.6,11.1z M6.6,6.4h5.5c0.3,0,0.5,0.3,0.5,0.6c0,0.3-0.3,0.5-0.5,0.5H6.6C6.4,7.5,6.1,7.2,6.1,7
	C6.1,6.6,6.4,6.4,6.6,6.4z M9.3,13.4H6.6c-0.3,0-0.5-0.2-0.5-0.5c0-0.3,0.3-0.5,0.5-0.5h2.6c0.3,0,0.5,0.3,0.5,0.5
	C9.8,13.2,9.5,13.4,9.3,13.4z M10.7,10.4H6.6c-0.3,0-0.5-0.2-0.5-0.5c0-0.3,0.3-0.5,0.5-0.5h4.1c0.3,0,0.5,0.3,0.5,0.5
	C11.3,10.2,11,10.4,10.7,10.4z M15.3,14.4c0.2,0,0.3,0.1,0.3,0.3s-0.1,0.3-0.3,0.3h-1.1v0.8c0,0.2-0.1,0.3-0.3,0.3
	c-0.2,0-0.3-0.1-0.3-0.3v-0.8h-1.1c-0.2,0-0.3-0.1-0.3-0.3s0.1-0.3,0.3-0.3h1.1v-0.5h-1.1c-0.2,0-0.3-0.1-0.3-0.3s0.1-0.3,0.3-0.3
	h0.8l-0.7-0.9c-0.1-0.1-0.1-0.3,0-0.5s0.3-0.1,0.5,0l0.9,1.1l0.9-1.1c0.1-0.1,0.3-0.1,0.5,0s0.1,0.3,0,0.5l-0.7,0.9h0.7
	c0.2,0,0.3,0.1,0.3,0.3s-0.1,0.3-0.3,0.3h-1.1v0.5H15.3z"/>
</svg>
