<?xml version="1.0" encoding="utf-8"?>
<!-- Generator: Adobe Illustrator 17.1.0, SVG Export Plug-In . SVG Version: 6.00 Build 0)  -->
<!DOCTYPE svg PUBLIC "-//W3C//DTD SVG 1.1//EN" "http://www.w3.org/Graphics/SVG/1.1/DTD/svg11.dtd">
<svg version="1.1" id="图层_1" xmlns="http://www.w3.org/2000/svg" xmlns:xlink="http://www.w3.org/1999/xlink" x="0px" y="0px"
	 viewBox="0 0 20 20" enable-background="new 0 0 20 20" xml:space="preserve">
<g>
	<path d="M11.4,4.3c-0.3-0.3-0.7-0.3-1,0L9.6,5.1c-0.3,0.3-0.3,0.7,0,1l0.6,0.6l-3.4,3.5L6.1,9.6c-0.3-0.3-0.8-0.3-1,0l-0.8,0.8
		c-0.3,0.3-0.3,0.8,0,1l4.3,4.3c0.3,0.3,0.8,0.3,1,0l0.8-0.8c0.3-0.3,0.3-0.8,0-1l-0.6-0.6l3.4-3.5l0.6,0.6c0.3,0.3,0.7,0.3,1,0
		l0.8-0.8c0.3-0.3,0.3-0.7,0-1L11.4,4.3z"/>
	<path d="M3.3,12.5c-0.3-0.3-0.8-0.3-1,0c-0.3,0.3-0.3,0.8,0,1l1.3,1.3l-0.1,0.1c-0.3,0.3-0.3,0.7,0,1l0.7,0.7c0.3,0.3,0.7,0.3,1,0
		l0.1-0.1l1.3,1.3c0.3,0.3,0.8,0.3,1,0c0.3-0.3,0.3-0.8,0-1L3.3,12.5z"/>
	<path d="M17.8,6.5l-1.3-1.3l0,0c0.3-0.3,0.3-0.7,0-1l-0.7-0.7c-0.3-0.3-0.7-0.3-1,0l0,0l-1.3-1.3c-0.3-0.3-0.8-0.3-1,0
		c-0.3,0.3-0.3,0.8,0,1l4.3,4.3c0.3,0.3,0.8,0.3,1,0C18.1,7.2,18.1,6.8,17.8,6.5z"/>
</g>
</svg>
