<?xml version="1.0" encoding="utf-8"?>
<!-- Generator: Adobe Illustrator 17.1.0, SVG Export Plug-In . SVG Version: 6.00 Build 0)  -->
<!DOCTYPE svg PUBLIC "-//W3C//DTD SVG 1.1//EN" "http://www.w3.org/Graphics/SVG/1.1/DTD/svg11.dtd">
<svg version="1.1" id="图层_1" xmlns="http://www.w3.org/2000/svg" xmlns:xlink="http://www.w3.org/1999/xlink" x="0px" y="0px"
	 viewBox="0 0 24 24" enable-background="new 0 0 24 24" xml:space="preserve">
<g>
	<path d="M9.3,20.5h5.4l-2.2,1.1c-0.4,0.1-0.7,0.1-1.1,0L9.3,20.5L9.3,20.5z"/>
	<path d="M9,18.1h6c0.4,0,0.6,0.2,0.6,0.6s-0.2,0.6-0.6,0.6H9c-0.4,0-0.6-0.2-0.6-0.6S8.6,18.1,9,18.1z"/>
	<path d="M12,2.3c-4,0-7.3,3.3-7.3,7.3c0,2.5,1.3,4.7,3.2,6.1h0c0.2,0.1,0.3,0.3,0.4,0.5c0.1,0.2,0.2,0.4,0.4,0.5
		c0.1,0.1,0.4,0.1,0.6,0.1h5.7c0.3,0,0.5,0,0.6-0.1c0.1-0.1,0.1-0.2,0.2-0.5c0.1-0.2,0.2-0.4,0.4-0.5h0c1.9-1.3,3.2-3.5,3.2-6.1
		C19.3,5.6,16,2.3,12,2.3z M16,9.8c-0.4,0-0.6-0.4-0.6-0.6c0-1-0.2-1.7-1-2.3c-0.6-0.6-1.3-0.8-2-0.8c-0.4,0-0.6-0.2-0.6-0.6
		c0-0.4,0.2-0.6,0.7-0.6c1.1,0,2,0.5,2.9,1.2c0.8,0.7,1.2,1.8,1.2,3.1C16.6,9.6,16.4,9.8,16,9.8z"/>
</g>
</svg>
