<?xml version="1.0" encoding="utf-8"?>
<!-- Generator: Adobe Illustrator 17.1.0, SVG Export Plug-In . SVG Version: 6.00 Build 0)  -->
<!DOCTYPE svg PUBLIC "-//W3C//DTD SVG 1.1//EN" "http://www.w3.org/Graphics/SVG/1.1/DTD/svg11.dtd">
<svg version="1.1" id="图层_1" xmlns="http://www.w3.org/2000/svg" xmlns:xlink="http://www.w3.org/1999/xlink" x="0px" y="0px"
	 viewBox="0 0 24 24" enable-background="new 0 0 24 24" xml:space="preserve">
<g>
	<path d="M19.7,5.9c-0.6-0.6-1.2-1.1-1.8-1.4C17.3,4.3,14.7,3.3,13,5L9.2,8.6C9.1,8.8,9.1,8.8,9.1,8.8c0,0.1,0.1,0.2,0.4,0.4
		c0.6,0.1,1.3,0,1.8-0.5l1-0.8c0.8-0.7,1.8-0.5,2.6-0.2c1,0.2,1.8,0.6,2.8-0.2c0.2-0.1,0.6-0.1,0.7,0.1s0.1,0.6-0.1,0.7
		c-1.3,1.1-2.6,0.6-3.6,0.4c-0.8-0.2-1.3-0.4-1.7,0l-1,1c-1.1,1.1-2.9,0.8-3.6,0.1C7.9,9.1,8,8.5,8.4,7.9l2.4-2.4L10.3,5
		C8.4,3.2,5.7,4,4.2,5.6c-1.4,1.6-2.3,4.1-0.4,5.9l1,1.1l1-0.8c0.6-0.6,1.7-0.6,2.3,0l0.1,0.1c0.2,0.2,0.4,0.5,0.5,0.6
		c0.6-0.6,1.7-0.6,2.3,0l0.1,0.1c0.5,0.6,0.6,1.4,0.2,2c0.2,0.1,0.5,0.2,0.7,0.5l0.1,0.1c0.5,0.5,0.7,1.4,0.4,2l1.2,1.2l0.5,0.4
		c0.3,0.2,0.7,0.1,0.9-0.1c0.1-0.1,0.4-0.5-0.1-1l-2.2-2.3c-0.2-0.2-0.2-0.5,0-0.7s0.5-0.2,0.7,0l2.5,2.5c0.4,0.4,0.8,0.1,1.1-0.1
		c0.2-0.2,0.5-0.6,0-1.1l-2.3-2.3l-0.1-0.1c-0.2-0.2-0.2-0.5,0-0.7s0.5-0.2,0.7,0l2.4,2.5c0.5,0.5,0.7,0.4,1,0.1
		c0.2-0.2,0.5-0.7,0.1-1.1l-4.8-5c-0.2-0.2-0.2-0.5,0-0.7s0.5-0.2,0.7,0l4.3,4.4l1.2-1.1C22.3,10.2,21.2,7.6,19.7,5.9z"/>
	<path d="M11.5,15.6l-0.1-0.1c-0.2-0.2-0.6-0.2-0.8,0l-1.8,1.8c-0.2,0.2-0.2,0.6,0,0.8l0.1,0.1c0.2,0.2,0.6,0.2,0.8,0l1.8-1.8
		C11.8,16.2,11.8,15.8,11.5,15.6z"/>
	<path d="M10.4,13.3l-0.1-0.1c-0.2-0.2-0.6-0.2-0.8,0L7,15.7c-0.2,0.2-0.2,0.6,0,0.8l0.1,0.1c0.2,0.2,0.6,0.2,0.8,0l2.5-2.5
		C10.7,13.9,10.7,13.6,10.4,13.3z"/>
	<path d="M7.8,12.6l-0.1-0.1c-0.2-0.2-0.6-0.2-0.8,0L5.3,14c-0.2,0.2-0.2,0.6,0,0.8L5.4,15c0.2,0.2,0.6,0.2,0.8,0l1.6-1.6
		C8,13.2,8,12.8,7.8,12.6z"/>
	<path d="M12.7,18L12.7,18c-0.3-0.3-0.6-0.4-0.8-0.2L10.6,19c-0.2,0.2-0.2,0.6,0,0.8l0.1,0.1c0.2,0.2,0.5,0.2,0.7,0.1l1.3-1.3
		C12.9,18.5,12.9,18.2,12.7,18z"/>
</g>
</svg>
