<?xml version="1.0" encoding="utf-8"?>
<!-- Generator: Adobe Illustrator 17.1.0, SVG Export Plug-In . SVG Version: 6.00 Build 0)  -->
<!DOCTYPE svg PUBLIC "-//W3C//DTD SVG 1.1//EN" "http://www.w3.org/Graphics/SVG/1.1/DTD/svg11.dtd">
<svg version="1.1" id="图层_1" xmlns="http://www.w3.org/2000/svg" xmlns:xlink="http://www.w3.org/1999/xlink" x="0px" y="0px"
	 viewBox="0 0 20 20" enable-background="new 0 0 20 20" xml:space="preserve">
<path d="M2,5.5c0-0.4,0.1-0.7,0.2-0.9C2.3,4.5,2.6,4.4,3,4.4h2.6v11.2H4.5c-0.3,0-0.6,0-0.9,0c-0.3,0-0.5,0-0.6,0
	c-0.4,0-0.6-0.1-0.8-0.2C2.1,15.2,2,14.9,2,14.5v-3.2c0-0.2,0-0.3,0.1-0.4c0-0.1,0.1-0.1,0.3-0.2c0.1,0,0.1,0,0.2-0.1
	c0.1,0,0.2-0.1,0.3-0.2c0.1-0.1,0.2-0.2,0.2-0.4c0.1-0.2,0.1-0.3,0.1-0.6c0-0.3-0.1-0.6-0.3-0.8C2.8,8.5,2.6,8.4,2.4,8.4
	c-0.1,0-0.3-0.1-0.3-0.1C2,8.2,2,8.1,2,7.9L2,5.5L2,5.5L2,5.5z M17.6,7.9c-0.2,0-0.3,0.1-0.4,0.3C17.1,8.3,17,8.4,17,8.6
	c0,0.1,0,0.3,0.1,0.4c0.1,0.1,0.2,0.2,0.4,0.3c0.1,0.1,0.3,0.1,0.3,0.3c0.1,0.1,0.1,0.2,0.1,0.4c0,0.1,0,0.3-0.1,0.4
	c-0.1,0.1-0.1,0.2-0.3,0.3C17.2,10.7,17,11,17,11.2c0,0.3,0.1,0.5,0.4,0.6c0.1,0.1,0.2,0.2,0.3,0.3c0.1,0.1,0.1,0.3,0.1,0.4
	c0,0.1,0,0.3-0.1,0.4c-0.1,0.1-0.2,0.2-0.3,0.2c-0.2,0-0.3,0.1-0.4,0.2C17,13.5,17,13.6,17,13.7c0,0.1,0,0.3,0.1,0.4
	c0.1,0.1,0.2,0.2,0.4,0.3c0.1,0.1,0.2,0.2,0.3,0.3c0.1,0.1,0.1,0.3,0.1,0.4c0,0.1-0.1,0.2-0.1,0.3c-0.1,0.1-0.2,0.1-0.3,0.1l-10.7,0
	V4.4h10.9c0.1,0,0.2,0,0.3,0.1c0.1,0.1,0.1,0.2,0.1,0.3c0,0.1,0,0.2-0.1,0.4c-0.1,0.1-0.2,0.2-0.3,0.2c-0.1,0-0.2,0.1-0.3,0.2
	c-0.1,0.1-0.1,0.2-0.1,0.3c0,0.1,0,0.3,0.1,0.4c0.1,0.1,0.2,0.2,0.4,0.3c0.1,0.1,0.2,0.1,0.3,0.3C17.9,7.1,18,7.2,18,7.3
	c0,0.1,0,0.2-0.1,0.4C17.8,7.8,17.7,7.9,17.6,7.9L17.6,7.9L17.6,7.9z M13.2,9.4c-0.1,0-0.2,0-0.2,0c-0.1,0-0.1-0.1-0.1-0.1
	c0,0,0.1-0.1,0.2-0.3c0.1-0.2,0.3-0.4,0.4-0.6C13.7,8.2,13.9,8,14,7.8c0.1-0.2,0.2-0.3,0.2-0.3c0.1-0.1,0-0.3-0.1-0.4
	C14.1,7,14,7,14,6.9c-0.1-0.1-0.2-0.1-0.2-0.1c-0.1,0-0.2-0.1-0.3,0c-0.1,0-0.1,0.1-0.2,0.2c0,0-0.1,0.2-0.2,0.3
	c-0.1,0.2-0.2,0.4-0.4,0.5c-0.1,0.2-0.3,0.4-0.4,0.5c-0.1,0.2-0.2,0.3-0.2,0.3c0,0.1-0.1,0.1-0.2,0.1c-0.1,0-0.1-0.1-0.2-0.1
	c0,0-0.1-0.1-0.2-0.3c-0.1-0.1-0.2-0.3-0.4-0.5c-0.1-0.2-0.3-0.3-0.4-0.5c-0.1-0.2-0.2-0.3-0.3-0.3c-0.1-0.3-0.3-0.3-0.4-0.2
	C10,6.8,9.9,6.9,9.8,7C9.8,7,9.7,7.1,9.6,7.1C9.5,7.2,9.4,7.4,9.5,7.5c0.3,0.3,0.5,0.6,0.7,0.8c0.2,0.2,0.3,0.4,0.5,0.6
	c0.1,0.2,0.2,0.3,0.3,0.3c0,0.1,0,0.1-0.1,0.1l-0.3,0c-0.1,0-0.2,0-0.3,0c-0.1,0-0.3,0-0.4,0c-0.1,0-0.2,0-0.3,0.1
	C9.5,9.5,9.5,9.6,9.5,9.7c0,0.1,0,0.1,0,0.3v0.3c0,0.1,0,0.1,0.1,0.1c0,0,0.1,0,0.2,0h1.3c0.2,0,0.3,0,0.3,0.1v0.4
	c0,0.1,0,0.1,0,0.1h-0.1h-0.2l-0.4,0h-0.4H9.8c-0.1,0-0.1,0-0.2,0.1c0,0.1-0.1,0.1-0.1,0.2c0,0.1,0,0.1,0,0.2c0,0.1,0,0.1,0,0.2
	c0,0.2,0.1,0.3,0.3,0.3h1.3c0.1,0,0.1,0,0.1,0c0,0,0,0.1,0,0.1c0,0.1,0,0.2,0,0.4c0,0.2,0,0.3,0,0.4c0,0.2,0.1,0.2,0.3,0.2h0.7
	c0.1,0,0.2,0,0.2-0.1v-0.2v-0.7c0-0.1,0.1-0.2,0.2-0.2h0.2c0.1,0,0.2,0,0.3,0c0.1,0,0.2,0,0.4,0h0.3c0.2,0,0.3-0.1,0.3-0.2l0-0.5
	c0-0.1-0.1-0.2-0.2-0.2h-1.3c-0.1,0-0.2,0-0.2-0.1c0,0,0-0.1,0-0.2c0-0.1,0-0.1,0-0.2c0-0.1,0-0.1,0.1-0.1c0.1,0,0.1,0,0.2,0H14
	c0.1,0,0.2-0.1,0.2-0.2V9.7c0-0.1,0-0.1-0.1-0.2c-0.1-0.1-0.1-0.1-0.2-0.1L13.2,9.4L13.2,9.4L13.2,9.4z"/>
</svg>
