<?xml version="1.0" encoding="utf-8"?>
<!-- Generator: Adobe Illustrator 17.1.0, SVG Export Plug-In . SVG Version: 6.00 Build 0)  -->
<!DOCTYPE svg PUBLIC "-//W3C//DTD SVG 1.1//EN" "http://www.w3.org/Graphics/SVG/1.1/DTD/svg11.dtd">
<svg version="1.1" id="图层_1" xmlns="http://www.w3.org/2000/svg" xmlns:xlink="http://www.w3.org/1999/xlink" x="0px" y="0px"
	 viewBox="0 0 20 20" enable-background="new 0 0 20 20" xml:space="preserve">
<path d="M17.3,8.2h-3.5l-3.2-4.8c-0.1-0.2-0.4-0.3-0.6-0.3S9.5,3.2,9.4,3.4L6.2,8.2H2.7C2.3,8.2,2,8.5,2,8.9C2,9,2,9,2,9.1l1.8,6.7
	c0.2,0.6,0.7,1.1,1.4,1.1h9.5c0.7,0,1.2-0.5,1.4-1.1L18,9.1l0-0.2C18,8.5,17.7,8.2,17.3,8.2z M10,14c-0.8,0-1.5-0.7-1.5-1.5
	c0-0.8,0.7-1.5,1.5-1.5s1.5,0.7,1.5,1.5C11.5,13.3,10.8,14,10,14z M7.8,8.2L10,5l2.2,3.2H7.8z"/>
</svg>
