<?xml version="1.0" encoding="utf-8"?>
<!-- Generator: Adobe Illustrator 17.1.0, SVG Export Plug-In . SVG Version: 6.00 Build 0)  -->
<!DOCTYPE svg PUBLIC "-//W3C//DTD SVG 1.1//EN" "http://www.w3.org/Graphics/SVG/1.1/DTD/svg11.dtd">
<svg version="1.1" id="图层_1" xmlns="http://www.w3.org/2000/svg" xmlns:xlink="http://www.w3.org/1999/xlink" x="0px" y="0px"
	 viewBox="0 0 20 20" enable-background="new 0 0 20 20" xml:space="preserve">
<path d="M11.5,3.4C11.5,2.6,10.8,2,10,2C9.2,2,8.5,2.6,8.5,3.4c0,0.1,0,0.2,0,0.2c-2,0.7-3.7,2.8-3.7,5.3v2c0,0,0,2.8-0.7,2.8
	c-0.4,0-0.8,0.3-0.8,0.7c0,0.4,0.3,0.7,0.7,0.7h11.9c0.4,0,0.7-0.3,0.7-0.7c0-0.4-0.3-0.7-0.7-0.7c-0.7,0-0.7-2.8-0.7-2.8v-2
	c0-2.5-1.6-4.6-3.7-5.3C11.5,3.6,11.5,3.5,11.5,3.4z M12.2,15.9c0,1.2-1,2.1-2.2,2.1c-1.2,0-2.2-1-2.2-2.1H12.2z"/>
</svg>
