<?xml version="1.0" encoding="utf-8"?>
<!-- Generator: Adobe Illustrator 17.1.0, SVG Export Plug-In . SVG Version: 6.00 Build 0)  -->
<!DOCTYPE svg PUBLIC "-//W3C//DTD SVG 1.1//EN" "http://www.w3.org/Graphics/SVG/1.1/DTD/svg11.dtd">
<svg version="1.1" id="图层_1" xmlns="http://www.w3.org/2000/svg" xmlns:xlink="http://www.w3.org/1999/xlink" x="0px" y="0px"
	 viewBox="0 0 20 20" enable-background="new 0 0 20 20" xml:space="preserve">
<g>
	<path d="M4.7,4.4h4h0.4H11h2.1h2.2c0.4,0,0.7-0.3,0.7-0.6s-0.3-0.6-0.7-0.6h-2.2H11H9.1H8.7h-4c-0.4,0-0.7,0.3-0.7,0.6
		C4.1,4.1,4.4,4.4,4.7,4.4z"/>
	<polygon points="11.3,9.8 11.3,9.8 11.3,9.8 	"/>
	<path d="M16.3,5.6H3.7C3.3,5.6,3,5.9,3,6.3V8v6.3v1.8c0,0.4,0.3,0.7,0.7,0.7h12.7c0.4,0,0.7-0.3,0.7-0.7v-1.8V8V6.3
		C17,5.9,16.7,5.6,16.3,5.6z M12.2,11.8c0.4,0,0.7,0.3,0.7,0.6c0,0.3-0.3,0.6-0.7,0.6h-1.6v1.4c0,0.4-0.3,0.7-0.6,0.7
		c-0.3,0-0.6-0.3-0.6-0.7V13H7.8c-0.4,0-0.7-0.3-0.7-0.6c0-0.3,0.3-0.6,0.7-0.6h1.6v-0.8H7.8c-0.4,0-0.7-0.3-0.7-0.6
		c0-0.3,0.3-0.6,0.7-0.6h0.9L8.4,9.1l0,0L8,8.4C7.8,8.1,7.9,7.7,8.2,7.5c0.3-0.2,0.7,0,0.8,0.3l0.3,0.6c0,0,0,0,0,0l0.3,0.6l0,0
		L10,9.7l0.3-0.6l0,0l0.3-0.6c0,0,0,0,0,0L11,7.9c0.2-0.3,0.5-0.5,0.8-0.3c0.3,0.2,0.4,0.5,0.2,0.9l-0.4,0.7l0,0l-0.3,0.6h0h0.9
		c0.4,0,0.7,0.3,0.7,0.6c0,0.3-0.3,0.6-0.7,0.6h-1.6v0.8H12.2z"/>
	<polygon points="8.7,9.8 8.7,9.8 8.7,9.8 	"/>
</g>
</svg>
