<?xml version="1.0" encoding="utf-8"?>
<!-- Generator: Adobe Illustrator 17.1.0, SVG Export Plug-In . SVG Version: 6.00 Build 0)  -->
<!DOCTYPE svg PUBLIC "-//W3C//DTD SVG 1.1//EN" "http://www.w3.org/Graphics/SVG/1.1/DTD/svg11.dtd">
<svg version="1.1" id="图层_1" xmlns="http://www.w3.org/2000/svg" xmlns:xlink="http://www.w3.org/1999/xlink" x="0px" y="0px"
	 viewBox="0 0 20 20" enable-background="new 0 0 20 20" xml:space="preserve">
<path d="M16.4,1.7H3.6c-1,0-1.7,0.8-1.7,1.9c0,0.5,0.2,1,0.5,1.3l5,5c0,0,0.1,0.2,0.2,0.3v4.4l0-0.3l0,1.1l0-0.4v0.5l0.3,0.2l3,2.4
	c0.2,0.1,0.4,0.2,0.6,0.2c0.1,0,0.3,0,0.4-0.1c0.3-0.2,0.5-0.4,0.5-0.7l0-7.4c0,0,0-0.1,0-0.1l5.1-5l0.1-0.1
	c0.3-0.3,0.5-0.8,0.5-1.3C18.1,2.5,17.4,1.7,16.4,1.7z M10.7,9.9l0,5.9l-1.5-1.3V9.7c0-0.4-0.2-0.8-0.5-1.1L3.9,3.7
	c0,0-0.1-0.1-0.1-0.2c0,0,0-0.1,0-0.2h12.4c0,0.1,0,0.2,0,0.2L11,8.7C10.7,9,10.7,9.5,10.7,9.9z"/>
</svg>
