<?xml version="1.0" encoding="utf-8"?>
<!-- Generator: Adobe Illustrator 17.1.0, SVG Export Plug-In . SVG Version: 6.00 Build 0)  -->
<!DOCTYPE svg PUBLIC "-//W3C//DTD SVG 1.1//EN" "http://www.w3.org/Graphics/SVG/1.1/DTD/svg11.dtd">
<svg version="1.1" id="图层_1" xmlns="http://www.w3.org/2000/svg" xmlns:xlink="http://www.w3.org/1999/xlink" x="0px" y="0px"
	 viewBox="0 0 310 120" enable-background="new 0 0 310 120" xml:space="preserve">
<g>
	<g>
		<polygon opacity="0.75" fill="#272121" points="147.8,93.9 151,93.9 151,103.8 149.6,103.8 149.6,105.8 153.2,105.8 153.2,91.9 
			145.5,91.9 145.5,106.8 147.8,106.8 		"/>
		<polygon opacity="0.75" fill="#272121" points="137.7,94.8 134.4,91.3 133.2,93.2 136.5,96.7 		"/>
		<polygon opacity="0.75" fill="#272121" points="144.4,104.9 143.4,103.1 141.4,103.7 141.4,93.6 144.5,92.9 143.6,91.4 
			139.1,92.2 139.1,104.4 137.8,104.7 138.8,106.3 		"/>
		<polygon opacity="0.75" fill="#272121" points="114.6,95.6 114.6,91.9 106.2,91.9 106.2,94 112.2,94 112.2,95.7 110.2,100.1 
			108,95.5 106.4,96.9 109.1,102.5 106,109.5 107.6,110.7 110.3,104.9 113.1,110.7 114.8,109.4 111.4,102.5 		"/>
		<polygon opacity="0.75" fill="#272121" points="119.6,93.9 124.5,93.9 124.1,97.3 126,98.5 126.8,91.9 119.3,91.9 119.3,91.9 
			117.7,91.1 117.1,101.8 119,102.8 		"/>
		<path opacity="0.75" fill="#272121" d="M174.2,102.8h5.9v-6.7h-5.6v-1.7h6.3v-2.1h-6.3v-1.1h-2.3v1.1h-6.3v2.1h6.3v1.7h-5.6v6.7
			h5.4l-0.6,2.7l-4.2-1.6l-1.4,1.5l4,1.6l-4.4,2.8l2,1l4.8-3l7.6,3l1.3-1.6l-7.6-2.9L174.2,102.8z M174.5,98.1h3.3v2.6h-3.3V98.1z
			 M172.2,100.7h-3.4v-2.6h3.4V100.7z"/>
		<polygon opacity="0.75" fill="#272121" points="162.6,91.3 159.9,99.9 161,100.7 161,110.7 163.4,110.7 163.4,100.1 162,100.1 
			164.4,92.6 		"/>
		<polygon opacity="0.75" fill="#272121" points="136.4,106.2 136.4,97.6 133,97.6 133,99.6 134,99.6 134,106.6 132.6,109.4 
			134.1,111 135.5,108.5 138.1,110.7 153.4,110.7 153.4,108.7 139,108.7 		"/>
		<polygon opacity="0.75" fill="#272121" points="124.9,101.9 124.9,99.5 122.6,99.5 122.6,101.7 116.8,110.4 118.8,110.7 
			121.9,106.4 124.8,110.7 126.9,110.3 123.1,104.6 		"/>
		<path opacity="0.75" fill="#272121" d="M187.9,91.6v15.1l-0.6,3.5l2.2,0.6l0.6-3.4v-2h6.1v5.3h2.2v-5.3h6.1v3.3h-1.4v2.1h3.7V91.6
			H187.9z M196.3,103.3h-6.1v-3.9h6.1V103.3z M196.3,97.4h-6.1v-3.8h6.1V97.4z M204.6,103.3h-6.1v-3.9h6.1V103.3z M204.6,97.4h-6.1
			v-3.8h6.1V97.4z"/>
	</g>
	<g>
		<path fill="#333333" d="M78.5,16.1c-0.2,0-0.3,0.1-0.4,0.2c-0.1,0.1-0.2,0.3-0.2,0.4v28.8L64.2,26.3c0.1-0.2,0.3-0.5,0.7-1
			c0.4-0.5,0.8-1.1,1.3-1.8c0.5-0.7,1-1.4,1.6-2.1c0.5-0.7,1-1.4,1.5-2.1c0.5-0.6,0.8-1.2,1.1-1.6c0.3-0.5,0.5-0.7,0.5-0.8
			c0-0.2-0.1-0.3-0.2-0.5c-0.1-0.1-0.3-0.2-0.5-0.2c-0.2,0-0.3,0.1-0.4,0.2c-0.2,0.3-0.7,1-1.5,2.1c-0.8,1.1-1.7,2.3-2.7,3.8
			s-2.3,3.1-3.6,4.9c-1.3,1.8-2.6,3.6-4,5.4c-1.3,1.8-2.6,3.6-3.9,5.3c-1.2,1.7-2.3,3.3-3.3,4.6c-1,1.4-1.8,2.5-2.3,3.3
			c-0.6,0.9-0.9,1.3-0.9,1.4c0,0.2,0.1,0.3,0.2,0.4C48,48,48.1,48,48.3,48c0.2,0,0.4-0.1,0.5-0.3l14.6-20.4l14.6,20.5
			c0.1,0.2,0.3,0.2,0.5,0.2c0.2,0,0.3-0.1,0.4-0.2c0.1-0.1,0.2-0.3,0.2-0.4V16.7c0-0.2-0.1-0.3-0.2-0.4
			C78.8,16.2,78.7,16.1,78.5,16.1z"/>
		<path fill="#333333" d="M48.3,41.5c0.2,0,0.4-0.1,0.5-0.3c0.2-0.3,0.6-0.8,1.2-1.6c0.6-0.8,1.3-1.8,2.2-3c0.9-1.2,1.8-2.5,2.8-3.9
			c1-1.4,2-2.8,3.1-4.3c1-1.5,2-2.9,3-4.2c1-1.4,1.8-2.6,2.6-3.7c0.8-1.1,1.4-2,1.8-2.6c0.5-0.7,0.7-1,0.7-1.1
			c0-0.2-0.1-0.3-0.2-0.5c-0.1-0.1-0.3-0.2-0.4-0.2c-0.2,0-0.4,0.1-0.5,0.3L48.9,39V16.9c0-0.2-0.1-0.3-0.2-0.4
			c-0.1-0.1-0.3-0.2-0.4-0.2c-0.2,0-0.3,0.1-0.4,0.2s-0.2,0.3-0.2,0.4v23.9c0,0.2,0.1,0.3,0.2,0.5C47.9,41.5,48.1,41.5,48.3,41.5z"
			/>
		<path fill="#333333" d="M108,17.4c0.2,0,0.3-0.1,0.4-0.2c0.1-0.1,0.2-0.3,0.2-0.4c0-0.2-0.1-0.3-0.2-0.4c-0.1-0.1-0.3-0.2-0.4-0.2
			H88.4c-0.2,0-0.3,0.1-0.5,0.2c-0.1,0.1-0.2,0.3-0.2,0.4v30.7c0,0.2,0.1,0.3,0.2,0.5c0.1,0.1,0.3,0.2,0.5,0.2H108
			c0.2,0,0.3-0.1,0.4-0.2c0.1-0.1,0.2-0.3,0.2-0.5c0-0.2-0.1-0.3-0.2-0.5c-0.1-0.1-0.3-0.2-0.4-0.2H89V35h15c0.2,0,0.3-0.1,0.4-0.2
			c0.1-0.1,0.2-0.3,0.2-0.4c0-0.4-0.2-0.6-0.6-0.6H89l0-2.8h14.8c0.2,0,0.3-0.1,0.4-0.2c0.1-0.1,0.2-0.3,0.2-0.4
			c0-0.2-0.1-0.3-0.2-0.4c-0.1-0.1-0.3-0.2-0.4-0.2H89V17.4H108z"/>
		<path fill="#333333" d="M133.5,46.9h-14.4V16.8c0-0.4-0.2-0.6-0.6-0.6c-0.2,0-0.3,0.1-0.4,0.2c-0.1,0.1-0.2,0.3-0.2,0.4v30.1h-2.6
			v-30c0-0.2-0.1-0.3-0.2-0.4s-0.3-0.2-0.4-0.2c-0.2,0-0.3,0.1-0.4,0.2s-0.2,0.3-0.2,0.4v30.6c0,0.4,0.2,0.6,0.6,0.6h19
			c0.4,0,0.6-0.2,0.6-0.6C134.2,47.1,134,46.9,133.5,46.9z"/>
		<path fill="#333333" d="M142.1,21.7c1.3-1.3,2.9-2.4,4.7-3.2c1.8-0.8,3.7-1.2,5.7-1.2c1,0,1.9,0.1,2.8,0.3
			c0.9,0.2,1.7,0.4,2.5,0.7c0.8,0.3,1.5,0.7,2.3,1.2c0.7,0.5,1.5,1,2.3,1.6c0.1,0.1,0.2,0.2,0.4,0.2s0.3-0.1,0.5-0.2
			c0.1-0.1,0.2-0.3,0.2-0.4s-0.1-0.3-0.2-0.5c-0.7-0.7-1.5-1.2-2.3-1.7c-0.8-0.5-1.7-0.9-2.6-1.3c-0.9-0.3-1.9-0.6-2.8-0.8
			c-1-0.2-1.9-0.3-2.9-0.3c-2.2,0-4.3,0.4-6.2,1.3c-1.9,0.8-3.6,2-5.1,3.4c-1.4,1.4-2.6,3.1-3.4,5.1c-0.8,1.9-1.3,4-1.3,6.2
			c0,2.2,0.4,4.3,1.3,6.2c0.8,1.9,2,3.6,3.4,5.1c1.4,1.4,3.1,2.6,5.1,3.4c1.9,0.8,4,1.3,6.2,1.3c1.9,0,3.8-0.3,5.7-1
			c1.9-0.7,3.5-1.7,5-3c0.2-0.2,0.2-0.3,0.2-0.5s-0.1-0.3-0.2-0.5c-0.1-0.1-0.3-0.2-0.4-0.2s-0.3,0.1-0.4,0.2
			c-1.5,1.2-3,2.1-4.6,2.8c-1.6,0.7-3.3,1-5.2,1c-2,0-3.9-0.4-5.7-1.2c-1.8-0.8-3.4-1.8-4.7-3.2c-1.3-1.3-2.4-2.9-3.2-4.7
			c-0.8-1.8-1.2-3.7-1.2-5.7c0-2,0.4-3.9,1.2-5.7C139.7,24.6,140.7,23.1,142.1,21.7z"/>
		<path fill="#333333" d="M194.1,20.8c-1.4-1.4-3.1-2.6-5.1-3.4c-1.9-0.8-4-1.3-6.2-1.3c-2.2,0-4.3,0.4-6.2,1.3
			c-1.9,0.8-3.6,2-5.1,3.4c-1.4,1.4-2.6,3.1-3.4,5.1c-0.8,1.9-1.3,4-1.3,6.2c0,2.2,0.4,4.3,1.3,6.2c0.8,1.9,2,3.6,3.4,5.1
			c1.4,1.4,3.1,2.6,5.1,3.4c1.9,0.8,4,1.3,6.2,1.3c2.2,0,4.3-0.4,6.2-1.3c1.9-0.8,3.6-2,5.1-3.4c1.4-1.4,2.6-3.1,3.4-5.1
			c0.8-1.9,1.3-4,1.3-6.2c0-2.2-0.4-4.3-1.3-6.2C196.7,24,195.6,22.3,194.1,20.8z M196.4,37.9c-0.8,1.8-1.8,3.4-3.2,4.7
			c-1.3,1.3-2.9,2.4-4.7,3.2s-3.7,1.2-5.7,1.2s-3.9-0.4-5.7-1.2c-1.8-0.8-3.4-1.8-4.7-3.2c-1.3-1.3-2.4-2.9-3.2-4.7
			c-0.8-1.8-1.2-3.7-1.2-5.7c0-2,0.4-3.9,1.2-5.7c0.8-1.8,1.8-3.4,3.2-4.7c1.3-1.3,2.9-2.4,4.7-3.2c1.8-0.8,3.7-1.2,5.7-1.2
			s3.9,0.4,5.7,1.2c1.8,0.8,3.4,1.8,4.7,3.2c1.3,1.3,2.4,2.9,3.2,4.7c0.8,1.8,1.2,3.7,1.2,5.7C197.6,34.2,197.2,36.1,196.4,37.9z"/>
		<path fill="#333333" d="M235.8,16.1c-0.2,0-0.3,0.1-0.4,0.2l-14.6,20.6L206,16.5c-0.1-0.2-0.3-0.3-0.5-0.3c-0.2,0-0.3,0.1-0.4,0.2
			c-0.1,0.1-0.2,0.3-0.2,0.4c0,0.2,0,0.3,0.1,0.4l22,30.6c0.1,0.2,0.3,0.2,0.5,0.2c0.2,0,0.3-0.1,0.4-0.2c0.1-0.1,0.2-0.3,0.2-0.5
			c0-0.1-0.2-0.4-0.5-0.8c-0.3-0.5-0.7-1-1.1-1.7c-0.5-0.7-1-1.3-1.5-2.1c-0.6-0.7-1.1-1.4-1.6-2.1c-0.5-0.7-0.9-1.3-1.3-1.8
			c-0.4-0.5-0.6-0.9-0.7-1l13.8-19.3v28.9c0,0.2,0.1,0.3,0.2,0.4c0.1,0.1,0.2,0.2,0.4,0.2s0.3-0.1,0.4-0.2c0.1-0.1,0.2-0.3,0.2-0.4
			V16.9c0,0,0-0.1,0-0.2c0-0.2-0.1-0.3-0.2-0.4C236.1,16.2,235.9,16.1,235.8,16.1z"/>
		<path fill="#333333" d="M220.8,43.7c-0.8-1.1-1.6-2.3-2.6-3.7c-1-1.4-2-2.8-3-4.2c-1-1.5-2.1-2.9-3.1-4.3c-1-1.4-2-2.7-2.8-3.9
			c-0.8-1.2-1.6-2.2-2.2-3c-0.6-0.8-1-1.4-1.2-1.6c-0.1-0.2-0.3-0.3-0.5-0.3c-0.2,0-0.4,0.1-0.5,0.2c-0.1,0.2-0.2,0.3-0.2,0.5v23.8
			c0,0.2,0.1,0.3,0.2,0.4c0.1,0.1,0.3,0.2,0.4,0.2s0.3-0.1,0.4-0.2c0.1-0.1,0.2-0.3,0.2-0.4v-22l16.1,22.6c0.1,0.2,0.3,0.2,0.5,0.2
			c0.2,0,0.3-0.1,0.4-0.2c0.1-0.1,0.2-0.3,0.2-0.4c0-0.1-0.2-0.5-0.7-1.2S221.6,44.8,220.8,43.7z"/>
		<path fill="#333333" d="M265.3,46.8h-19V35h15c0.2,0,0.3-0.1,0.4-0.2c0.1-0.1,0.2-0.3,0.2-0.4c0-0.4-0.2-0.6-0.6-0.6h-15l0-2.8
			h14.8c0.2,0,0.3-0.1,0.4-0.2c0.1-0.1,0.2-0.3,0.2-0.4c0-0.2-0.1-0.3-0.2-0.4c-0.1-0.1-0.3-0.2-0.4-0.2h-14.8V17.4h19
			c0.2,0,0.3-0.1,0.4-0.2c0.1-0.1,0.2-0.3,0.2-0.4c0-0.2-0.1-0.3-0.2-0.4c-0.1-0.1-0.3-0.2-0.4-0.2h-19.6c-0.2,0-0.3,0.1-0.5,0.2
			c-0.1,0.1-0.2,0.3-0.2,0.4v30.7c0,0.2,0.1,0.3,0.2,0.5c0.1,0.1,0.3,0.2,0.5,0.2h19.6c0.2,0,0.3-0.1,0.4-0.2
			c0.1-0.1,0.2-0.3,0.2-0.5c0-0.2-0.1-0.3-0.2-0.5C265.6,46.9,265.5,46.8,265.3,46.8z"/>
	</g>
	<line fill="none" stroke="#D8D8D8" stroke-linecap="square" stroke-miterlimit="10" x1="6.4" y1="72.1" x2="306.4" y2="72.1"/>
	<path fill="#D8D8D8" d="M306.9,71.8v-0.1h-0.4l-11.4-3.2v3.2H17.7v-3.2L6.3,71.6H5.9v0.1l-1.4,0.4l1.4,0.4v0.1h0.4l11.4,3.2v-3.2
		h277.4v3.2l11.4-3.2h0.4v-0.1l1.4-0.4L306.9,71.8z M16.7,74.5l-6.6-1.8h6.6V74.5z M16.7,71.6h-6.6l6.6-1.8V71.6z M296.1,74.5v-1.8
		h6.6L296.1,74.5z M296.1,71.6v-1.8l6.6,1.8H296.1z"/>
</g>
<rect x="-478.6" y="-233.9" fill="none" width="1260" height="692"/>
</svg>
