<svg xmlns="http://www.w3.org/2000/svg" xmlns:xlink="http://www.w3.org/1999/xlink"
     style="position:absolute;width:0;height:0">
    <defs>
        <symbol xmlns:xlink="http://www.w3.org/1999/xlink" viewBox="0 0 20 20" id="back">
            <polygon points="18,9 5.8,9 11.4,3.4 10,2 2,10 10,18 11.4,16.6 5.8,11 18,11 "></polygon>
        </symbol>
        <symbol xmlns:xlink="http://www.w3.org/1999/xlink" viewBox="0 0 20 20" id="cancel">
            <polygon fill-rule="evenodd" clip-rule="evenodd"
                     points="17,4.4 15.6,3 10,8.6 4.4,3 3,4.4 8.6,10 3,15.6 4.4,17 10,11.4 15.6,17   17,15.6 11.4,10 "></polygon>
        </symbol>
        <symbol xmlns:xlink="http://www.w3.org/1999/xlink" viewBox="0 0 20 20" id="card">
            <path fill-rule="evenodd" clip-rule="evenodd" fill="none"
                  d="M17.1,6.7H2.9V5.5c0-0.3,0.2-0.6,0.5-0.6h13.2c0.3,0,0.5,0.3,0.5,0.6  L17.1,6.7L17.1,6.7z M17.1,14.5c0,0.3-0.2,0.6-0.5,0.6H3.4c-0.3,0-0.5-0.3-0.5-0.6V9.1h14.2L17.1,14.5L17.1,14.5z M18.1,14.5v-9  c0-1-0.7-1.8-1.5-1.8H3.4c-0.8,0-1.5,0.8-1.5,1.8v9c0,1,0.7,1.8,1.5,1.8h13.2C17.5,16.3,18.1,15.5,18.1,14.5z"></path>
            <path d="M16.6,3.7H3.4c-0.8,0-1.5,0.8-1.5,1.8v9c0,1,0.7,1.8,1.5,1.8h13.2c0.8,0,1.5-0.8,1.5-1.8v-9C18.1,4.5,17.5,3.7,16.6,3.7z   M16.6,15.2H3.4c-0.3,0-0.5-0.3-0.5-0.6V9.2h14.2v5.4h0C17.1,14.9,16.9,15.2,16.6,15.2z M17.1,6.7L17.1,6.7H2.9V5.5  c0-0.3,0.2-0.6,0.5-0.6h13.2c0.3,0,0.5,0.3,0.5,0.6V6.7z"></path>
        </symbol>
        <symbol xmlns:xlink="http://www.w3.org/1999/xlink" viewBox="0 0 24 24" id="chart">
            <g>
                <path d="M5.2,17.2l4-5.4l3.7,2.6c0.3,0.2,0.8,0.2,1.1,0l7.5-6.2c0.2-0.2,0.3-0.4,0.3-0.6c0-0.3,0-0.5-0.2-0.7   c-0.3-0.4-0.9-0.5-1.3-0.2l-7,5.7L9.5,9.7c-0.4-0.3-1-0.2-1.3,0.2l-4.5,6.2c-0.3,0.4-0.2,1,0.2,1.3c0.2,0.1,0.4,0.2,0.6,0.2   C4.8,17.6,5.1,17.5,5.2,17.2z"></path>
                <path d="M2.3,2.6c-0.5,0-0.9,0.4-0.9,1v16.9c0,0.5,0.4,1,0.9,1h19.5c0.5,0,0.9-0.4,0.9-1s-0.4-1-0.9-1H3.2v-16   C3.2,3,2.8,2.6,2.3,2.6z"></path>
            </g>
        </symbol>
        <symbol xmlns:xlink="http://www.w3.org/1999/xlink" viewBox="0 0 16 16" id="config_open">
            <g>
                <rect x="3" y="1" width="10" height="3"></rect>
                <rect x="3" y="12" width="10" height="3"></rect>
                <rect x="3" y="6.4" width="6" height="3"></rect>
                <polygon points="10.8,10.6 10.8,5.1 13,7.9  "></polygon>
            </g>
        </symbol>
        <symbol xmlns:xlink="http://www.w3.org/1999/xlink" viewBox="0 0 16 16" id="config_shrink">
            <g>
                <rect x="3" y="1" width="10" height="3"></rect>
                <rect x="3" y="12" width="10" height="3"></rect>
                <rect x="7" y="6.4" width="6" height="3"></rect>
                <polygon points="5.2,10.6 5.2,5.1 3,7.9  "></polygon>
            </g>
        </symbol>
        <symbol xmlns:xlink="http://www.w3.org/1999/xlink" viewBox="0 0 30 30" id="default_avatar">
            <path d="M15,3C8.4,3,3,8.4,3,15c0,6.6,5.4,12,12,12c6.6,0,12-5.4,12-12C27,8.4,21.6,3,15,3z M15,25.9c-3,0-5.7-1.2-7.7-3.2  c1.2-0.9,3.1-1.5,5.5-1.8v-1.2c-1.7-1.1-3-3.4-3-6c0-3.6,1.2-6.5,5.2-6.5c4,0,5.2,2.9,5.2,6.5c0,2.6-1.3,4.9-3,6v1.2  c2.3,0.3,4.3,0.9,5.5,1.8C20.7,24.7,18,25.9,15,25.9z"></path>
        </symbol>
        <symbol xmlns:xlink="http://www.w3.org/1999/xlink" viewBox="0 0 153 153" id="default_no_data">
            <g>
                <path d="M28.7,41.1c0,0.9,0.7,1.6,1.6,1.6s1.6-0.7,1.6-1.6v-2.2h2.2c0.9,0,1.6-0.7,1.6-1.6s-0.7-1.6-1.6-1.6h-2.2v-2.2   c0-0.9-0.7-1.6-1.6-1.6s-1.6,0.7-1.6,1.6v2.2h-2.2c-0.9,0-1.6,0.7-1.6,1.6s0.7,1.6,1.6,1.6h2.2V41.1z"></path>
                <path d="M23.9,92.3h-1.6v-1.6c0-0.5-0.4-1-1-1c-0.5,0-1,0.4-1,1v1.6h-1.6c-0.5,0-1,0.4-1,1c0,0.5,0.4,1,1,1h1.6v1.6   c0,0.5,0.4,1,1,1c0.5,0,1-0.4,1-1v-1.6h1.6c0.5,0,1-0.4,1-1C24.9,92.7,24.4,92.3,23.9,92.3z"></path>
                <path d="M143.2,86.1h-1.7v-1.7c0-0.6-0.5-1.1-1.1-1.1s-1.1,0.5-1.1,1.1v1.7h-1.7c-0.6,0-1.1,0.5-1.1,1.1s0.5,1.1,1.1,1.1h1.7v1.7   c0,0.6,0.5,1.1,1.1,1.1s1.1-0.5,1.1-1.1v-1.7h1.7c0.6,0,1.1-0.5,1.1-1.1S143.8,86.1,143.2,86.1z"></path>
                <path d="M25.5,113.5c0,1-0.8,1.8-1.8,1.8H12.5c-1,0-1.8-0.8-1.8-1.8l0,0c0-1,0.8-1.8,1.8-1.8h11.2   C24.7,111.7,25.5,112.5,25.5,113.5L25.5,113.5z"></path>
                <path d="M72.9,59.4c0,1-0.8,1.8-1.8,1.8H50.7c-1,0-1.8-0.8-1.8-1.8l0,0c0-1,0.8-1.8,1.8-1.8h20.4C72.1,57.6,72.9,58.4,72.9,59.4   L72.9,59.4z"></path>
                <path d="M82.1,68.1c0,1-0.8,1.8-1.8,1.8H50.7c-1,0-1.8-0.8-1.8-1.8l0,0c0-1,0.8-1.8,1.8-1.8h29.6C81.3,66.3,82.1,67.1,82.1,68.1   L82.1,68.1z"></path>
                <path d="M65.8,77.3c0,1-0.8,1.8-1.8,1.8H50.7c-1,0-1.8-0.8-1.8-1.8l0,0c0-1,0.8-1.8,1.8-1.8H64C65,75.5,65.8,76.3,65.8,77.3   L65.8,77.3z"></path>
                <path d="M14.3,55.3c-3.1,0-5.6,2.5-5.6,5.6s2.5,5.6,5.6,5.6s5.6-2.5,5.6-5.6S17.4,55.3,14.3,55.3z M14.3,64c-1.7,0-3.1-1.4-3.1-3.1   s1.4-3.1,3.1-3.1s3.1,1.4,3.1,3.1S16,64,14.3,64z"></path>
                <path d="M126.7,44.9c-3.1,0-5.6,2.5-5.6,5.6s2.5,5.6,5.6,5.6c3.1,0,5.6-2.5,5.6-5.6S129.8,44.9,126.7,44.9z M126.7,53.5   c-1.7,0-3.1-1.4-3.1-3.1s1.4-3.1,3.1-3.1c1.7,0,3.1,1.4,3.1,3.1S128.4,53.5,126.7,53.5z"></path>
                <path d="M118.1,103h-0.8h-10.2c0.5-1,1-2,1-3.6V46.9c0-2-0.5-3.6-2-5.1c-1-1-3.1-2-5.1-2H57.6c-2,0-3.6,0.5-5.1,2   c-1.5,1-2,3.1-2,5.1v2h-5.6c-2,0-3.6,0.5-5.1,2c-1,1-2,3.1-2,5.1v52c0,1,0.5,2.5,1,3.5h-7.9c-1,0-1.8,0.8-1.8,1.8s0.8,1.8,1.8,1.8   h45.3l5.5,6c0.5,0.5,1.5,1,2.5,1c1,0,2-0.5,2.6-1c1-1.5,1.9-2.9-1-6h10.9c1,0,1.8-0.8,1.8-1.8s-0.8-1.8-1.8-1.8h-0.8   c0.3-0.7,0.5-1.5,0.5-2.5v-2h21.4c0,0,0.1-0.1,0.2-0.1h0.2c1.1,0,2-0.9,2-2C120.2,103.9,119.3,103,118.1,103z M92.5,108.6   c0,2-2.1,3-4,3.1h-6.3l-5.7-6.1c-1-1-2-1.5-3.6-1l-1.9-1.9c1.8-2.2,2.9-5.1,2.9-8.1c0-7.2-5.8-13-13-13c-4.2,0-7.9,2-10.2,5   c0,0-0.1,0.1-0.1,0.1c-0.2,0.2-0.3,0.4-0.4,0.6c-3.3,4.6-3.3,11.2,0.8,15.7c3,3.4,7.2,4.9,11.2,4.5c0,0,0.1,0,0.1,0   c0.2,0,0.5-0.1,0.7-0.1c2-0.3,3.8-1.1,5.4-2.2l1.9,1.9c-0.5,1,0,2.6,1,3.6l1,1H44.6c-1.9-0.1-3.3-1.6-3.3-3.5V55.6   c0-2,1.5-3.6,3.6-3.6h43.3c2,0,4.3,2,4.3,4.1V108.6z M51.3,94.5c0-5.3,4.3-9.6,9.6-9.6s9.6,4.3,9.6,9.6c0,5.3-4.3,9.6-9.6,9.6   S51.3,99.9,51.3,94.5z M105.1,99.5c0,2-1.5,3.6-3.6,3.6h-3.6h-2V55.6c0-2-0.5-3.6-2-5.1c-1-1-3.1-2-5.1-2l-35,0.3v-2   c0-2,2.4-3.9,4.4-3.9h43.3c2,0,3.6,1.5,3.6,3.6V99.5z"></path>
            </g>
        </symbol>
        <symbol xmlns:xlink="http://www.w3.org/1999/xlink" viewBox="0 0 20 20" id="delete">
            <g>
                <path d="M12.5,15V7.3c0-0.4-0.3-0.7-0.7-0.7s-0.7,0.3-0.7,0.7V15c0,0.4,0.3,0.7,0.7,0.7S12.5,15.4,12.5,15z"></path>
                <path d="M17.1,3.7H2.9C2.5,3.7,2.2,4,2.2,4.4c0,0.4,0.3,0.7,0.7,0.7h14.2c0.4,0,0.7-0.3,0.7-0.7C17.8,4,17.5,3.7,17.1,3.7z"></path>
                <path d="M15.3,6c-0.4,0-0.7,0.3-0.7,0.7v8.9c0,0.6-0.5,1.1-1.1,1.1H6.4c-0.4,0-0.8-0.3-1-0.6c-0.1-0.1-0.1-0.3-0.1-0.4V6.7   c0-0.2-0.1-0.4-0.2-0.5C5,6.1,4.9,6,4.7,6C4.4,6,4.1,6.2,4,6.5c0,0.1-0.1,0.2-0.1,0.3v10.1c0,0.2,0,0.3,0.1,0.5   c0.2,0.5,0.7,0.8,1.2,0.8h9.5c0.5,0,1-0.3,1.2-0.8c0.1-0.2,0.1-0.3,0.1-0.5V6.7C16.1,6.3,15.7,6,15.3,6z"></path>
                <path d="M7.6,3.3h4.7c0.4,0,0.7-0.3,0.7-0.7c0-0.4-0.3-0.7-0.7-0.7H7.6c-0.4,0-0.7,0.3-0.7,0.7C6.9,3,7.2,3.3,7.6,3.3z"></path>
                <path d="M8.9,15V7.3c0-0.4-0.3-0.7-0.7-0.7S7.5,6.9,7.5,7.3V15c0,0.4,0.3,0.7,0.7,0.7S8.9,15.4,8.9,15z"></path>
            </g>
        </symbol>
        <symbol xmlns:xlink="http://www.w3.org/1999/xlink" viewBox="0 0 20 20" id="done">
            <polygon fill-rule="evenodd" clip-rule="evenodd"
                     points="6.8,13.9 2.6,9.7 1.2,11.1 6.8,16.7 18.8,4.7 17.4,3.3 "></polygon>
        </symbol>
        <symbol xmlns:xlink="http://www.w3.org/1999/xlink" viewBox="0 0 20 20" id="edit">
            <g>
                <path d="M17.1,8.9c-0.4,0-0.8,0.4-0.8,0.8v5.9c0,0.5-0.2,0.9-0.7,0.9h-11c-0.5,0-1-0.5-1-0.9V4.2c0-0.4,0.5-0.7,1-0.7h6   c0.4,0,0.8-0.4,0.8-0.8S11,1.9,10.6,1.9h-6C4,1.9,3.4,2.1,2.9,2.4C2.3,2.9,2,3.5,2,4.2v11.5c0,0.6,0.3,1.3,0.8,1.8   c0.5,0.5,1.2,0.8,1.8,0.8h11c0.7,0,1.3-0.3,1.7-0.9c0.4-0.5,0.6-1.1,0.6-1.7V9.7C17.9,9.3,17.6,8.9,17.1,8.9z"></path>
                <path d="M9.2,10.6c0.2,0.2,0.4,0.3,0.6,0.3s0.4-0.1,0.6-0.3l7.3-7.3c0.3-0.3,0.3-0.9,0-1.2c-0.3-0.3-0.9-0.3-1.2,0L9.2,9.3   C8.9,9.7,8.9,10.2,9.2,10.6z"></path>
            </g>
        </symbol>
        <symbol xmlns:xlink="http://www.w3.org/1999/xlink" viewBox="0 0 20 20" id="exit">
            <g>
                <path d="M17.4,4.3L17.4,4.3C17.3,3.6,16.7,3,16,3h-0.7v0L4.7,3C4,3,3.3,3.6,3.3,4.4v0.7h0l0,0.7c0,0.4,0.3,0.7,0.7,0.7   c0.4,0,0.7-0.3,0.7-0.7l0-0.2c0-0.9,0.3-1.2,1.3-1.2l-1.3,0l0,0.9l0-0.9l11.2,0v0l-1.3,0c1,0,1.3,0.2,1.3,1l0,9.4l0-0.6   c0,1-0.2,1.3-1.1,1.4l-8.8,0c-1,0-1.2-0.3-1.3-1.2l0-0.2c0-0.4-0.3-0.7-0.7-0.7c-0.4,0-0.7,0.3-0.7,0.7l0,0.7h0v0.7   C3.3,16.4,4,17,4.7,17l11.4,0c0.7-0.1,1.3-0.7,1.3-1.4L17.4,4.3z"></path>
                <path d="M9.1,12.2L9.1,12.2c-0.3,0.3-0.3,0.7,0,1c0.3,0.3,0.7,0.3,1,0l2.7-2.8c0,0,0.1-0.1,0.1-0.1c0.1-0.1,0.2-0.3,0.2-0.5   c0-0.2-0.1-0.4-0.2-0.5c0,0-0.1-0.1-0.1-0.1l-2.7-2.8c-0.3-0.3-0.7-0.3-1,0c-0.3,0.3-0.3,0.7,0,1l1.6,1.6l-7.3,0   C3,9.1,2.6,9.4,2.6,9.8c0,0.4,0.3,0.7,0.7,0.7l7.4,0L9.1,12.2z"></path>
            </g>
        </symbol>
        <symbol xmlns:xlink="http://www.w3.org/1999/xlink" viewBox="0 0 20 20" id="female">
            <path d="M11.1,4.1c-1.3,0-2.5,0.5-3.4,1.4c-1.7,1.7-1.9,4.5-0.4,6.4l-0.8,0.8l-1.2-1.2c-0.3-0.3-0.7-0.3-1,0c-0.3,0.3-0.3,0.7,0,1  l1.2,1.2l-1.2,1.2c-0.1,0.1-0.2,0.3-0.2,0.5c0,0.2,0.1,0.4,0.2,0.5c0.3,0.3,0.7,0.3,1,0l1.2-1.2l1.2,1.2c0.1,0.1,0.3,0.2,0.5,0.2  c0.2,0,0.4-0.1,0.5-0.2s0.2-0.3,0.2-0.5c0-0.2-0.1-0.4-0.2-0.5l-1.2-1.2l0.8-0.8c0.8,0.6,1.8,0.9,2.9,0.9c1.3,0,2.5-0.5,3.4-1.4  c1.9-1.9,1.9-5,0-6.9C13.6,4.6,12.4,4.1,11.1,4.1z M13.5,11.4c-0.7,0.7-1.5,1-2.4,1c-0.9,0-1.8-0.4-2.4-1c-1.4-1.4-1.4-3.5,0-4.9  c0.7-0.7,1.5-1,2.4-1c0.9,0,1.8,0.4,2.4,1C14.9,7.8,14.9,10,13.5,11.4z"></path>
        </symbol>
        <symbol xmlns:xlink="http://www.w3.org/1999/xlink" viewBox="0 0 30 30" id="home_crown">
            <path d="M21,23.8H9L4.8,14c-1-0.1-1.8-0.9-1.8-1.9c0-1.1,0.9-2,2-2s2,0.9,2,2c0,0.4-0.1,0.8-0.4,1.1C7.3,14.3,8.6,15,10,15  c1.9,0,3.4-1.3,3.9-2.9l0-0.2L14,9.8c-0.6-0.3-1-1-1-1.7c0-1.1,0.9-2,2-2s2,0.9,2,2c0,0.7-0.4,1.3-1,1.7l0.1,2l0.1,0.2  c0.4,1.7,2,2.9,3.9,2.9c1.4,0,2.7-0.7,3.4-1.8c-0.2-0.3-0.4-0.7-0.4-1.1c0-1.1,0.9-2,2-2c1.1,0,2,0.9,2,2c0,1-0.8,1.9-1.8,1.9  L21,23.8z"></path>
        </symbol>
        <symbol xmlns:xlink="http://www.w3.org/1999/xlink" viewBox="0 0 30 30" id="home_crown_line">
            <path d="M25,9.1c-1.7,0-3,1.3-3,3c0,0.3,0.1,0.7,0.2,1C21.6,13.7,20.8,14,20,14c-1.4,0-2.6-0.9-2.9-2.3L17,10.3c0.6-0.6,1-1.3,1-2.2  c0-1.6-1.3-3-3-3s-3,1.3-3,3c0,0.8,0.4,1.6,1,2.2l-0.1,1.5C12.5,13.1,11.4,14,10,14c-0.8,0-1.6-0.3-2.2-0.9c0.1-0.3,0.2-0.7,0.2-1  c0-1.6-1.3-3-3-3s-3,1.3-3,3c0,1.3,0.9,2.4,2.1,2.8l4.2,9.9h13.3l4.2-9.9c1.2-0.4,2.1-1.5,2.1-2.8C28,10.4,26.7,9.1,25,9.1z M15,7.2  c0.6,0,1,0.4,1,1c0,0.3-0.2,0.6-0.5,0.8L15,9.2L14.5,9C14.2,8.8,14,8.5,14,8.1C14,7.6,14.4,7.2,15,7.2z M4.9,13  C4.4,13,4,12.6,4,12.1c0-0.5,0.4-1,1-1s1,0.4,1,1c0,0.2-0.1,0.4-0.2,0.5l-0.3,0.5L4.9,13z M20.3,22.8H9.7l-3.9-9.1l0,0  C6.7,15.1,8.3,16,10,16c2.3,0,4.3-1.5,4.8-3.8L15,9.9l0.1,2.2l0.1,0.3c0.6,2.2,2.6,3.7,4.8,3.7c1.7,0,3.3-0.9,4.2-2.3l0,0L20.3,22.8  z M25.1,13l-0.6,0.1l-0.3-0.5c-0.1-0.2-0.2-0.3-0.2-0.5c0-0.5,0.4-1,1-1s1,0.4,1,1C26,12.6,25.6,13,25.1,13z"></path>
        </symbol>
        <symbol xmlns:xlink="http://www.w3.org/1999/xlink" viewBox="0 0 20 20" id="home_custom">
            <polygon points="18,3.2 12.3,3.2 6.6,9.8 6.6,3.2 2,3.2 2,4.3 3.1,4.3 3.1,16.8 6.6,16.8 "></polygon>
        </symbol>
        <symbol xmlns:xlink="http://www.w3.org/1999/xlink" viewBox="0 0 30 30" id="logo">
            <g>
                <path fill-rule="evenodd" clip-rule="evenodd"
                      d="M4.6,22.9c-0.1-0.3-0.1-0.6-0.2-0.9c-0.1-0.3-0.3-0.4-0.6-0.3   c-0.2,0.1-0.4,0.2-0.4,0.5c0,0,0,0.1,0,0.1c0.2,0.7,0.3,1.4,0.5,2c0.1,0.3,0.4,0.4,0.6,0.4C4.8,24.6,5,24.3,4.9,24   C4.8,23.6,4.7,23.3,4.6,22.9z"></path>
                <path fill-rule="evenodd" clip-rule="evenodd"
                      d="M14.2,22.1c0.2-0.1,0.4-0.3,0.4-0.5c-0.2-0.7-0.4-1.5-0.6-2.2   c-0.1-0.2-0.4-0.3-0.6-0.3c-0.2,0.1-0.4,0.3-0.4,0.6c0.2,0.7,0.4,1.4,0.6,2.2C13.7,22.1,13.9,22.2,14.2,22.1z"></path>
                <path fill-rule="evenodd" clip-rule="evenodd"
                      d="M27,12.9c-1.1-6.4-7.3-11.2-14.5-9.8C6.1,4.4,1.7,10.7,3.1,17.6   c0.1,0.6,0.3,1.2,0.6,1.8c0.5-0.3,0.8-0.7,1.1-1.1C5,17.8,5.1,17.4,5,16.9c-0.3-1.2-0.2-2.3,0-3.5c0.9-5.6,6.5-9.8,12.6-8.2   c3.9,1,6.4,3.7,7.4,7.6c0,0.1,0,0.2,0,0.4c-0.2-0.1-0.4-0.1-0.5-0.2c-1-0.4-1.8-1-2.5-1.7c-0.3-0.3-0.7-0.7-1.1-1   c-1.6-1.2-3.5-1.9-5.5-1.5c-2.5,0.4-4.1,2-5,4.3c-0.3,0.8-0.2,1.7,0.3,2.4c0.3,0.6,0.8,1,1.3,1.4c0.6,0.5,1.3,0.9,2,1.4   c0.6,0.4,1.1,0.7,1.7,1.1c0.5,0.4,1,0.8,1.4,1.3c1.3,1.7,0.2,3.6-1.1,4c-1.3,0.4-2.8,0.3-3.8-0.9c-0.4-0.5-0.7-1.1-1.1-1.6   c0-0.1,0-0.2-0.1-0.3c0.3-0.1,0.6-0.3,0.9-0.2c0,0.1,0.1,0.1,0.1,0.2c0.1,0.2,0.1,0.4,0.2,0.6s0.1,0.4,0.2,0.6   c0.1,0.3,0.4,0.4,0.6,0.3c0.2-0.1,0.4-0.3,0.4-0.6c0-0.1,0-0.2-0.1-0.3c-0.2-0.8-0.4-1.6-0.6-2.4c-0.1-0.4-0.2-0.9-0.4-1.3   c-0.1-0.3-0.4-0.5-0.7-0.4c-0.3,0.1-0.4,0.3-0.3,0.6c0,0.3,0.1,0.5,0.2,0.7c0.2,0.7,0.4,0.7-0.6,0.9c-0.4,0.1-0.4,0.1-0.6-0.2   c-0.2-0.3-0.5-0.6-0.9-0.7c-1.2-0.4-2.3,0.3-2.5,1.6c-0.1,0.3-0.2,0.5-0.5,0.6c-0.6,0.1-0.6,0.2-0.8-0.5c-0.1-0.3-0.2-0.6-0.3-0.9   c-0.1-0.3-0.3-0.4-0.6-0.3c-0.2,0.1-0.4,0.2-0.4,0.5c0,0.2,0,0.3,0.1,0.5c0.3,1.1,0.6,2.3,0.9,3.4c0,0.1,0,0.2,0.1,0.2   c0.1,0.3,0.3,0.4,0.6,0.4c0.3-0.1,0.4-0.3,0.4-0.6c0-0.2-0.1-0.4-0.1-0.6c-0.1-0.3-0.1-0.6-0.2-0.9c0.2-0.1,0.4-0.1,0.5-0.2   c0.1,0,0.2,0,0.4-0.1c0.1,0.2,0.2,0.3,0.2,0.5c0.7,1.3,1.7,2.3,3,2.8c1,0.4,2,0.7,3.1,0.8c2.2,0.3,4.2,0,6.2-0.8   C24.8,24.1,28,18.6,27,12.9z M19.1,13.5c-0.1,0-0.2,0-0.3,0c-0.1,0-0.2-0.1-0.3-0.2c0,0,0,0,0,0c-0.3-0.4-0.6-0.6-1-0.7   c-0.3-0.1-0.7-0.1-1.1,0.1c-0.1,0-0.1,0.1-0.2,0.1c-0.1,0-0.1,0.1-0.2,0.1c-0.1,0.1-0.1,0.1-0.2,0.2c0,0,0,0.1,0,0.1   c0,0.1,0,0.2,0.1,0.4c0,0,0.1,0.1,0.1,0.1c0.1,0.1,0.2,0.2,0.3,0.3c0.2,0.2,0.5,0.3,0.7,0.4c0.2,0.1,0.4,0.3,0.6,0.4   c0.2,0.2,0.4,0.3,0.5,0.5c0,0.1,0.1,0.2,0.1,0.3c0,0.1,0,0.3,0,0.4c-0.1,0.2-0.2,0.3-0.4,0.5c-0.1,0.1-0.2,0.1-0.3,0.2   c-0.6,0.3-1.2,0.4-1.9,0.5c-0.2,0-0.5,0-0.7,0c-0.3,0-0.6,0-0.9-0.1c-0.5-0.1-0.9-0.1-1.3-0.3c-0.2-0.1-0.5-0.2-0.7-0.4   c-0.1-0.1-0.2-0.2-0.3-0.3c-0.1-0.2-0.1-0.5-0.1-0.7c0-0.2,0.1-0.3,0.3-0.5c0.1-0.1,0.2-0.2,0.3-0.3c0.1-0.1,0.1-0.1,0.2-0.2   c0.1-0.1,0.2-0.2,0.3-0.2c0.1-0.1,0.2-0.1,0.3-0.2c0.1-0.1,0.2-0.2,0.3-0.3c0.1-0.1,0.1-0.1,0.1-0.2c0-0.1,0-0.2-0.1-0.3   c-0.5-0.5-1.4-0.2-1.7,0.4c0,0,0,0.1,0,0.1c0,0,0,0,0,0c0,0,0,0,0,0.1c0,0,0,0,0,0c-0.1,0-0.1,0.1-0.2,0.1c0,0-0.1,0-0.1,0   c-0.1,0-0.3-0.2-0.3-0.3c0,0,0-0.1,0-0.2c0-0.1,0-0.3,0-0.4c0.1-0.6,0.4-1.2,0.7-1.7c0.1-0.2,0.3-0.3,0.4-0.4   c0.3-0.3,0.6-0.4,0.9-0.5c0.3-0.1,0.7,0,1.1,0.1c0.4,0.2,0.7,0.2,1.1,0c0,0,0.1,0,0.1,0c0.3-0.1,0.7-0.2,1-0.3   c0.4-0.1,0.8-0.1,1.2,0c0.1,0,0.3,0.1,0.4,0.2c0.4,0.2,0.7,0.5,1,0.8c0.2,0.2,0.3,0.4,0.5,0.6c0.1,0.2,0.2,0.3,0.2,0.5   c0,0.1,0.1,0.3,0,0.4C19.5,13.2,19.3,13.4,19.1,13.5z"></path>
                <path fill-rule="evenodd" clip-rule="evenodd"
                      d="M15.5,13.9c-0.1-0.2-0.2-0.5-0.4-0.7c-0.3-0.3-0.6-0.3-0.9,0   c-0.1,0.1-0.2,0.3-0.3,0.5c-0.1,0.3-0.3,0.6-0.5,0.8c-0.4,0.4-0.3,0.8,0.2,1c0.3,0.1,0.7,0.1,0.9,0.2c0.4,0,0.7,0,1-0.1   c0.7-0.2,0.8-0.6,0.3-1.1C15.7,14.3,15.6,14.1,15.5,13.9z"></path>
            </g>
        </symbol>
        <symbol xmlns:xlink="http://www.w3.org/1999/xlink" viewBox="0 0 20 20" id="male">
            <path d="M15.2,4.1h-3.5c-0.4,0-0.7,0.3-0.7,0.7c0,0.4,0.3,0.7,0.7,0.7h1.9l-1.9,1.9c-0.8-0.6-1.8-0.9-2.8-0.9  c-1.3,0-2.5,0.5-3.4,1.4c-0.9,0.9-1.4,2.1-1.4,3.4c0,1.3,0.5,2.5,1.4,3.4c0.9,0.9,2.1,1.4,3.4,1.4s2.5-0.5,3.4-1.4  c1.7-1.7,1.9-4.3,0.4-6.2l1.9-1.9v1.9c0,0.2,0.1,0.4,0.2,0.5C14.9,8.9,15,9,15.2,9c0.4,0,0.7-0.3,0.7-0.7V4.8  C15.9,4.4,15.6,4.1,15.2,4.1z M11.2,8.8c1.3,1.3,1.3,3.5,0,4.8c-0.6,0.6-1.5,1-2.4,1s-1.7-0.4-2.4-1c-1.3-1.3-1.3-3.5,0-4.8  c0.6-0.6,1.5-1,2.4-1S10.6,8.2,11.2,8.8z"></path>
        </symbol>
        <symbol xmlns:xlink="http://www.w3.org/1999/xlink" viewBox="0 0 24 24" id="more_vert">
            <path fill-rule="evenodd" clip-rule="evenodd"
                  d="M12,15.7c-1,0-1.9,0.8-1.9,1.9s0.8,1.9,1.9,1.9s1.9-0.8,1.9-1.9S13,15.7,12,15.7z   M12,10.1c-1,0-1.9,0.8-1.9,1.9s0.8,1.9,1.9,1.9s1.9-0.8,1.9-1.9S13,10.1,12,10.1z M12,8.2c1,0,1.9-0.8,1.9-1.9S13,4.5,12,4.5  s-1.9,0.8-1.9,1.9S11,8.2,12,8.2z"></path>
        </symbol>
        <symbol xmlns:xlink="http://www.w3.org/1999/xlink" viewBox="0 0 24 24" id="password">
            <rect x="-919.2" y="-390.7" fill="none" width="1728" height="890.4"></rect>
            <rect x="-858.1" y="-420.5" fill="none" width="1728" height="890.4"></rect>
            <rect x="-858.1" y="-420.5" fill="none" width="1728" height="890.4"></rect>
            <path d="M14.5,14.4c0-1.4-1.1-2.5-2.5-2.5S9.6,13,9.6,14.4c0,1,0.6,1.9,1.5,2.3c0,0.1,0,0.1,0,0.2v0.4c0,0.2,0,0.4,0,0.6  c0,0.5,0.2,0.8,0.8,0.8h0.1h0.1c0.6,0,0.8-0.2,0.8-0.8c0-0.4,0-0.8,0-1.1C13.9,16.3,14.5,15.4,14.5,14.4z M12.1,13.6  c0.4,0,0.8,0.3,0.8,0.8c0,0.4-0.3,0.8-0.8,0.8s-0.8-0.3-0.8-0.8C11.3,14,11.6,13.6,12.1,13.6z"></path>
            <path d="M21.5,10.4l-0.1-0.8h-2.1c-0.2-4.5-3-7.2-7.3-7.2c-4,0-7.1,3.2-7.1,5.8v0.4h1.8V8.2c0-1.8,2.5-4.1,5.4-4.1  c2,0,5.3,0.7,5.6,5.5H3l-0.1,0.8c0,0.2-0.4,4,1.2,6.8c0.8,1.4,3.1,4.7,8.1,4.7c5,0,7.4-3.3,8.1-4.7C22,14.3,21.5,10.6,21.5,10.4z   M12.2,20.1c-4.1,0-6-2.6-6.6-3.8c-0.9-1.6-1-3.8-1-5h15.2c0,1.2-0.1,3.3-1,5C18.2,17.5,16.3,20.1,12.2,20.1z"></path>
        </symbol>
        <symbol xmlns:xlink="http://www.w3.org/1999/xlink" viewBox="0 0 70 70" id="pic_default">
            <g>
                <polygon points="48.4,20.8 28.6,48.7 18.3,34.5 1.6,58.4 68.4,58.4  "></polygon>
                <path d="M18.3,25c3.7,0,6.7-3,6.7-6.7c0-3.7-3-6.7-6.7-6.7c-3.7,0-6.7,3-6.7,6.7C11.6,22,14.6,25,18.3,25z"></path>
            </g>
        </symbol>
        <symbol xmlns:xlink="http://www.w3.org/1999/xlink" viewBox="0 0 20 20" id="pic_shot">
            <path d="M10,15.6c-1.3,0-2.4-0.3-3.4-0.9c-1-0.6-1.9-1.4-2.5-2.5c-0.6-1-0.9-2.2-0.9-3.4s0.3-2.4,0.9-3.4c0.6-1,1.4-1.9,2.5-2.5  C7.6,2.3,8.7,2,10,2s2.4,0.3,3.4,0.9c1,0.6,1.9,1.4,2.5,2.5c0.6,1,0.9,2.2,0.9,3.4s-0.3,2.4-0.9,3.4c-0.6,1-1.5,1.9-2.5,2.5  C12.4,15.2,11.2,15.6,10,15.6z M10,5.1c-1,0-1.9,0.3-2.6,1.1S6.3,7.8,6.3,8.8s0.4,1.9,1.1,2.6c0.7,0.7,1.6,1.1,2.6,1.1  s1.9-0.4,2.6-1.1c0.7-0.7,1.1-1.6,1.1-2.6s-0.3-1.9-1.1-2.6S11,5.1,10,5.1z M10,11c-0.6,0-1.2-0.2-1.6-0.7c-0.5-0.4-0.7-1-0.7-1.6  s0.2-1.2,0.7-1.6c0.4-0.4,1-0.7,1.6-0.7c0.6,0,1.2,0.2,1.6,0.7c0.4,0.4,0.7,1,0.7,1.6s-0.2,1.2-0.7,1.6C11.2,10.8,10.6,11,10,11z   M10,16.2c1,0,2-0.2,2.8-0.4c0.9-0.3,1.6-0.7,2.1-1.2l1.7,1.5c-0.7,0.6-1.6,1-2.8,1.3C12.7,17.8,11.4,18,10,18s-2.7-0.2-3.9-0.5  S4,16.7,3.3,16.1L5,14.5c0.5,0.5,1.2,0.9,2.1,1.2S8.9,16.2,10,16.2z"></path>
        </symbol>
        <symbol xmlns:xlink="http://www.w3.org/1999/xlink" viewBox="0 0 20 20" id="pic_upload">
            <g>
                <path d="M16.9,4.6h-2.3l-1.4-1.6H6.8L5.4,4.6H3.1c-0.8,0-1.5,0.7-1.5,1.5v9.2c0,0.9,0.7,1.5,1.5,1.5h13.8c0.8,0,1.5-0.7,1.5-1.5   V6.2C18.4,5.3,17.7,4.6,16.9,4.6z M10,15.4c-2.8,0-5.1-2.3-5.1-5.2c0-2.9,2.3-5.2,5.1-5.2s5.1,2.3,5.1,5.2   C15.1,13.1,12.8,15.4,10,15.4z"></path>
                <ellipse cx="10" cy="10.3" rx="3.4" ry="3.5"></ellipse>
            </g>
        </symbol>
        <symbol xmlns:xlink="http://www.w3.org/1999/xlink" viewBox="0 0 20 20" id="search">
            <path fill-rule="evenodd" clip-rule="evenodd"
                  d="M13.4,12.1h-0.7l-0.3-0.3c0.9-1,1.4-2.4,1.4-3.9c0-3.3-2.7-5.9-5.9-5.9  S2,4.7,2,7.9s2.7,5.9,5.9,5.9c1.5,0,2.8-0.5,3.9-1.4l0.3,0.3v0.7l4.6,4.6l1.4-1.4L13.4,12.1z M7.9,12.1c-2.3,0-4.1-1.8-4.1-4.1  c0-2.3,1.8-4.1,4.1-4.1c2.3,0,4.1,1.8,4.1,4.1C12.1,10.2,10.2,12.1,7.9,12.1z"></path>
            <rect x="-634.5" y="-112.1" fill="none" width="1440" height="960"></rect>
        </symbol>
        <symbol xmlns:xlink="http://www.w3.org/1999/xlink" viewBox="0 0 16 16" id="slide-adjust">
            <path d="M8,2C4.7,2,2,4.7,2,8s2.7,6,6,6s6-2.7,6-6S11.3,2,8,2z M8,12.8c-2.6,0-4.8-2.2-4.8-4.8S5.4,3.2,8,3.2s4.8,2.2,4.8,4.8  S10.6,12.8,8,12.8z M9.8,8C9.8,9,9,9.8,8,9.8S6.2,9,6.2,8S7,6.2,8,6.2S9.8,7,9.8,8z"></path>
            <g>
                <defs>
                    <path id="slide-adjust_SVGID_9_"
                          d="M-438.8-254.4h-12l-4.2-9.8c-1-0.1-1.8-0.9-1.8-1.9c0-1.1,0.9-2,2-2s2,0.9,2,2c0,0.4-0.1,0.8-0.4,1.1    c0.7,1.1,1.9,1.8,3.4,1.8c1.9,0,3.4-1.3,3.9-2.9l0-0.2l0.1-2.1c-0.6-0.3-1-1-1-1.7c0-1.1,0.9-2,2-2c1.1,0,2,0.9,2,2    c0,0.7-0.4,1.3-1,1.7l0.1,2l0.1,0.2c0.4,1.7,2,2.9,3.9,2.9c1.4,0,2.7-0.7,3.4-1.8c-0.2-0.3-0.4-0.7-0.4-1.1c0-1.1,0.9-2,2-2    c1.1,0,2,0.9,2,2c0,1-0.8,1.9-1.8,1.9L-438.8-254.4z"></path>
                </defs>
                <clipPath id="slide-adjust_SVGID_2_">
                    <use xlink:href="#slide-adjust_SVGID_9_" overflow="visible"></use>
                </clipPath>
                <g clip-path="url(#slide-adjust_SVGID_2_)">
                    <defs>
                        <rect id="slide-adjust_SVGID_11_" x="-702.6" y="-587.6" width="1440" height="1300"></rect>
                    </defs>
                    <clipPath id="slide-adjust_SVGID_4_">
                        <use xlink:href="#slide-adjust_SVGID_11_" overflow="visible"></use>
                    </clipPath>
                </g>
            </g>
            <g>
                <defs>
                    <rect id="slide-adjust_SVGID_13_" x="-702.6" y="-587.6" width="1440" height="1300"></rect>
                </defs>
                <clipPath id="slide-adjust_SVGID_6_">
                    <use xlink:href="#slide-adjust_SVGID_13_" overflow="visible"></use>
                </clipPath>
            </g>
        </symbol>
        <symbol xmlns:xlink="http://www.w3.org/1999/xlink" viewBox="0 0 20 20" id="slide_cashier">
            <g>
                <path d="M4.7,4.4h4h0.4H11h2.1h2.2c0.4,0,0.7-0.3,0.7-0.6s-0.3-0.6-0.7-0.6h-2.2H11H9.1H8.7h-4c-0.4,0-0.7,0.3-0.7,0.6   C4.1,4.1,4.4,4.4,4.7,4.4z"></path>
                <polygon points="11.3,9.8 11.3,9.8 11.3,9.8  "></polygon>
                <path d="M16.3,5.6H3.7C3.3,5.6,3,5.9,3,6.3V8v6.3v1.8c0,0.4,0.3,0.7,0.7,0.7h12.7c0.4,0,0.7-0.3,0.7-0.7v-1.8V8V6.3   C17,5.9,16.7,5.6,16.3,5.6z M12.2,11.8c0.4,0,0.7,0.3,0.7,0.6c0,0.3-0.3,0.6-0.7,0.6h-1.6v1.4c0,0.4-0.3,0.7-0.6,0.7   c-0.3,0-0.6-0.3-0.6-0.7V13H7.8c-0.4,0-0.7-0.3-0.7-0.6c0-0.3,0.3-0.6,0.7-0.6h1.6v-0.8H7.8c-0.4,0-0.7-0.3-0.7-0.6   c0-0.3,0.3-0.6,0.7-0.6h0.9L8.4,9.1l0,0L8,8.4C7.8,8.1,7.9,7.7,8.2,7.5c0.3-0.2,0.7,0,0.8,0.3l0.3,0.6c0,0,0,0,0,0l0.3,0.6l0,0   L10,9.7l0.3-0.6l0,0l0.3-0.6c0,0,0,0,0,0L11,7.9c0.2-0.3,0.5-0.5,0.8-0.3c0.3,0.2,0.4,0.5,0.2,0.9l-0.4,0.7l0,0l-0.3,0.6h0h0.9   c0.4,0,0.7,0.3,0.7,0.6c0,0.3-0.3,0.6-0.7,0.6h-1.6v0.8H12.2z"></path>
                <polygon points="8.7,9.8 8.7,9.8 8.7,9.8  "></polygon>
            </g>
        </symbol>
        <symbol xmlns:xlink="http://www.w3.org/1999/xlink" viewBox="0 0 20 20" id="slide_club">
            <g>
                <rect x="3.5" y="3.5" width="13" height="1.6"></rect>
                <path d="M16.5,5.9h-13L2.7,10v1.6h0.8v4.9h8.1v-4.9h3.2v4.9h1.6v-4.9h0.8V10L16.5,5.9z M10,14.9H5.1v-3.2H10V14.9z"></path>
            </g>
        </symbol>
        <symbol xmlns:xlink="http://www.w3.org/1999/xlink" viewBox="0 0 20 20" id="slide_company">
            <g>
                <rect x="3.2" y="15.4" width="13.6" height="2.1"></rect>
                <rect x="4.6" y="8.9" width="2.1" height="5"></rect>
                <rect x="13.2" y="8.9" width="2.1" height="5"></rect>
                <rect x="8.9" y="8.9" width="2.1" height="5"></rect>
                <polygon points="10,2.5 3.2,6.1 3.2,7.5 16.8,7.5 16.8,6.1  "></polygon>
            </g>
        </symbol>
        <symbol xmlns:xlink="http://www.w3.org/1999/xlink" viewBox="0 0 20 20" id="slide_course">
            <g>
                <rect x="10" y="10.8" width="3.9" height="3.8"></rect>
                <path d="M15.4,4h-0.8V2.5h-1.6V4H6.9V2.5H5.3V4H4.6C3.7,4,3,4.7,3,5.5L3,16c0,0.8,0.7,1.5,1.6,1.5h10.9c0.9,0,1.6-0.7,1.6-1.5V5.5   C17,4.7,16.3,4,15.4,4z M15.4,16H4.6V7.8h10.9V16z"></path>
            </g>
        </symbol>
        <symbol xmlns:xlink="http://www.w3.org/1999/xlink" viewBox="0 0 20 20" id="slide_customer">
            <g>
                <path d="M12.4,9.5c1.6,0,2.8-1.3,2.8-2.8s-1.3-2.8-2.8-2.8c-0.3,0-0.6,0-0.9,0.1c0.5,0.8,0.8,1.7,0.8,2.7S12,8.6,11.5,9.4   C11.8,9.5,12.1,9.5,12.4,9.5z"></path>
                <path d="M7.6,9.5c1.6,0,2.8-1.3,2.8-2.8S9.2,3.9,7.6,3.9S4.8,5.1,4.8,6.7S6.1,9.5,7.6,9.5z"></path>
                <path d="M13.9,11.6c0.8,0.7,1.3,1.6,1.3,2.7v1.9H18v-1.9C18,12.8,15.8,11.9,13.9,11.6z"></path>
                <path d="M7.6,11.4c-1.9,0-5.6,0.9-5.6,2.8v1.9h11.3v-1.9C13.3,12.4,9.5,11.4,7.6,11.4z"></path>
            </g>
        </symbol>
        <symbol xmlns:xlink="http://www.w3.org/1999/xlink" viewBox="0 0 20 20" id="slide_down">
            <polygon fill-rule="evenodd" clip-rule="evenodd" points="13.5,8.2 6.5,8.2 10,11.8 "></polygon>
        </symbol>
        <symbol xmlns:xlink="http://www.w3.org/1999/xlink" viewBox="0 0 20 20" id="slide_entrance">
            <path d="M10,2C6.7,2,4,4.5,4,7.6C4,11.8,10,18,10,18s6-6.2,6-10.4C16,4.5,13.3,2,10,2z M10,3.6c1.1,0,2,0.9,2,2c0,1.1-0.9,2-2,2  c-1.1,0-2-0.9-2-2C8,4.5,8.9,3.6,10,3.6z M10,11.6c-1.4,0-2.7-0.7-3.4-1.7c0-1.1,2.3-1.6,3.4-1.6c1.1,0,3.4,0.6,3.4,1.6  C12.7,10.9,11.4,11.6,10,11.6z"></path>
        </symbol>
        <symbol xmlns:xlink="http://www.w3.org/1999/xlink" viewBox="0 0 20 20" id="slide_financial">
            <path d="M15.6,11.1V6.3c0-1.8-1.4-3.3-3.2-3.3H4.1C3.6,3,3.2,3.5,3.2,4v9.7c0,1.8,1.4,3.3,3.2,3.3h9.4c0.5,0,1-0.5,1-1v-4  C16.8,11.3,16.3,11.1,15.6,11.1z M6.6,6.4h5.5c0.3,0,0.5,0.3,0.5,0.6c0,0.3-0.3,0.5-0.5,0.5H6.6C6.4,7.5,6.1,7.2,6.1,7  C6.1,6.6,6.4,6.4,6.6,6.4z M9.3,13.4H6.6c-0.3,0-0.5-0.2-0.5-0.5c0-0.3,0.3-0.5,0.5-0.5h2.6c0.3,0,0.5,0.3,0.5,0.5  C9.8,13.2,9.5,13.4,9.3,13.4z M10.7,10.4H6.6c-0.3,0-0.5-0.2-0.5-0.5c0-0.3,0.3-0.5,0.5-0.5h4.1c0.3,0,0.5,0.3,0.5,0.5  C11.3,10.2,11,10.4,10.7,10.4z M15.3,14.4c0.2,0,0.3,0.1,0.3,0.3s-0.1,0.3-0.3,0.3h-1.1v0.8c0,0.2-0.1,0.3-0.3,0.3  c-0.2,0-0.3-0.1-0.3-0.3v-0.8h-1.1c-0.2,0-0.3-0.1-0.3-0.3s0.1-0.3,0.3-0.3h1.1v-0.5h-1.1c-0.2,0-0.3-0.1-0.3-0.3s0.1-0.3,0.3-0.3  h0.8l-0.7-0.9c-0.1-0.1-0.1-0.3,0-0.5s0.3-0.1,0.5,0l0.9,1.1l0.9-1.1c0.1-0.1,0.3-0.1,0.5,0s0.1,0.3,0,0.5l-0.7,0.9h0.7  c0.2,0,0.3,0.1,0.3,0.3s-0.1,0.3-0.3,0.3h-1.1v0.5H15.3z"></path>
        </symbol>
        <symbol xmlns:xlink="http://www.w3.org/1999/xlink" viewBox="0 0 20 20" id="slide_home">
            <polygon
                    points="10,3.2 2,10.4 4.4,10.4 4.4,16.8 8.4,16.8 8.4,12 11.6,12 11.6,16.8 15.6,16.8 15.6,10.4 18,10.4 "></polygon>
        </symbol>
        <symbol xmlns:xlink="http://www.w3.org/1999/xlink" viewBox="0 0 20 20" id="slide_inventory">
            <path d="M17.3,8.2h-3.5l-3.2-4.8c-0.1-0.2-0.4-0.3-0.6-0.3S9.5,3.2,9.4,3.4L6.2,8.2H2.7C2.3,8.2,2,8.5,2,8.9C2,9,2,9,2,9.1l1.8,6.7  c0.2,0.6,0.7,1.1,1.4,1.1h9.5c0.7,0,1.2-0.5,1.4-1.1L18,9.1l0-0.2C18,8.5,17.7,8.2,17.3,8.2z M10,14c-0.8,0-1.5-0.7-1.5-1.5  c0-0.8,0.7-1.5,1.5-1.5s1.5,0.7,1.5,1.5C11.5,13.3,10.8,14,10,14z M7.8,8.2L10,5l2.2,3.2H7.8z"></path>
        </symbol>
        <symbol xmlns:xlink="http://www.w3.org/1999/xlink" viewBox="0 0 20 20" id="slide_lesson">
            <g>
                <path d="M11.4,4.3c-0.3-0.3-0.7-0.3-1,0L9.6,5.1c-0.3,0.3-0.3,0.7,0,1l0.6,0.6l-3.4,3.5L6.1,9.6c-0.3-0.3-0.8-0.3-1,0l-0.8,0.8   c-0.3,0.3-0.3,0.8,0,1l4.3,4.3c0.3,0.3,0.8,0.3,1,0l0.8-0.8c0.3-0.3,0.3-0.8,0-1l-0.6-0.6l3.4-3.5l0.6,0.6c0.3,0.3,0.7,0.3,1,0   l0.8-0.8c0.3-0.3,0.3-0.7,0-1L11.4,4.3z"></path>
                <path d="M3.3,12.5c-0.3-0.3-0.8-0.3-1,0c-0.3,0.3-0.3,0.8,0,1l1.3,1.3l-0.1,0.1c-0.3,0.3-0.3,0.7,0,1l0.7,0.7c0.3,0.3,0.7,0.3,1,0   l0.1-0.1l1.3,1.3c0.3,0.3,0.8,0.3,1,0c0.3-0.3,0.3-0.8,0-1L3.3,12.5z"></path>
                <path d="M17.8,6.5l-1.3-1.3l0,0c0.3-0.3,0.3-0.7,0-1l-0.7-0.7c-0.3-0.3-0.7-0.3-1,0l0,0l-1.3-1.3c-0.3-0.3-0.8-0.3-1,0   c-0.3,0.3-0.3,0.8,0,1l4.3,4.3c0.3,0.3,0.8,0.3,1,0C18.1,7.2,18.1,6.8,17.8,6.5z"></path>
            </g>
        </symbol>
        <symbol xmlns:xlink="http://www.w3.org/1999/xlink" viewBox="0 0 20 20" id="slide_message">
            <path d="M11.5,3.4C11.5,2.6,10.8,2,10,2C9.2,2,8.5,2.6,8.5,3.4c0,0.1,0,0.2,0,0.2c-2,0.7-3.7,2.8-3.7,5.3v2c0,0,0,2.8-0.7,2.8  c-0.4,0-0.8,0.3-0.8,0.7c0,0.4,0.3,0.7,0.7,0.7h11.9c0.4,0,0.7-0.3,0.7-0.7c0-0.4-0.3-0.7-0.7-0.7c-0.7,0-0.7-2.8-0.7-2.8v-2  c0-2.5-1.6-4.6-3.7-5.3C11.5,3.6,11.5,3.5,11.5,3.4z M12.2,15.9c0,1.2-1,2.1-2.2,2.1c-1.2,0-2.2-1-2.2-2.1H12.2z"></path>
        </symbol>
        <symbol xmlns:xlink="http://www.w3.org/1999/xlink" viewBox="0 0 20 20" id="slide_notice">
            <path d="M16,4H4C3.2,4,2.5,4.7,2.5,5.5l0,9C2.5,15.3,3.2,16,4,16h12c0.8,0,1.5-0.7,1.5-1.5v-9C17.5,4.7,16.8,4,16,4z M16,7l-6,3.8  L4,7V5.5l6,3.8l6-3.8V7z"></path>
        </symbol>
        <symbol xmlns:xlink="http://www.w3.org/1999/xlink" viewBox="0 0 12 12" id="slide_open">
            <g>
                <defs>
                    <path id="slide_open_SVGID_5_"
                          d="M-711.5-966.2l-9,0c-0.3,0-0.5,0.2-0.5,0.5c0,0.3,0.2,0.5,0.5,0.5l9,0c0.3,0,0.5-0.2,0.5-0.5    C-711-966-711.2-966.2-711.5-966.2L-711.5-966.2z"></path>
                </defs>
                <clipPath id="slide_open_SVGID_2_">
                    <use xlink:href="#slide_open_SVGID_5_" overflow="visible"></use>
                </clipPath>
                <g clip-path="url(#slide_open_SVGID_2_)">
                    <defs>
                        <rect id="slide_open_SVGID_7_" x="-741.5" y="-1026" width="1440" height="2070"></rect>
                    </defs>
                    <clipPath id="slide_open_SVGID_4_">
                        <use xlink:href="#slide_open_SVGID_7_" overflow="visible"></use>
                    </clipPath>
                </g>
            </g>
            <g>
                <defs>
                    <path id="slide_open_SVGID_9_"
                          d="M-711.5-961.6l-9,0c-0.3,0-0.5,0.2-0.5,0.5c0,0.3,0.2,0.5,0.5,0.5l9,0c0.3,0,0.5-0.2,0.5-0.5    C-711-961.3-711.2-961.6-711.5-961.6L-711.5-961.6z"></path>
                </defs>
                <clipPath id="slide_open_SVGID_6_">
                    <use xlink:href="#slide_open_SVGID_9_" overflow="visible"></use>
                </clipPath>
                <g clip-path="url(#slide_open_SVGID_6_)">
                    <defs>
                        <rect id="slide_open_SVGID_11_" x="-741.5" y="-1026" width="1440" height="2070"></rect>
                    </defs>
                    <clipPath id="slide_open_SVGID_8_">
                        <use xlink:href="#slide_open_SVGID_11_" overflow="visible"></use>
                    </clipPath>
                </g>
            </g>
            <g>
                <defs>
                    <path id="slide_open_SVGID_13_"
                          d="M-720.5-956.9L-720.5-956.9c-0.3,0-0.5,0.2-0.5,0.5c0,0.3,0.2,0.5,0.5,0.5l9,0c0.3,0,0.5-0.2,0.5-0.5    c0-0.3-0.2-0.5-0.5-0.5L-720.5-956.9L-720.5-956.9z"></path>
                </defs>
                <clipPath id="slide_open_SVGID_10_">
                    <use xlink:href="#slide_open_SVGID_13_" overflow="visible"></use>
                </clipPath>
                <g clip-path="url(#slide_open_SVGID_10_)">
                    <defs>
                        <rect id="slide_open_SVGID_15_" x="-741.5" y="-1026" width="1440" height="2070"></rect>
                    </defs>
                    <clipPath id="slide_open_SVGID_12_">
                        <use xlink:href="#slide_open_SVGID_15_" overflow="visible"></use>
                    </clipPath>
                </g>
            </g>
            <path d="M10.5,0.8l-9,0C1.2,0.8,1,1.1,1,1.3c0,0.3,0.2,0.5,0.5,0.5l9,0c0.3,0,0.5-0.2,0.5-0.5C11,1.1,10.8,0.8,10.5,0.8L10.5,0.8z"></path>
            <path d="M10.5,5.5l-9,0C1.2,5.5,1,5.7,1,6c0,0.3,0.2,0.5,0.5,0.5l9,0C10.8,6.5,11,6.3,11,6C11,5.7,10.8,5.5,10.5,5.5L10.5,5.5z"></path>
            <path d="M1.5,10.1L1.5,10.1c-0.3,0-0.5,0.2-0.5,0.5c0,0.3,0.2,0.5,0.5,0.5l9,0c0.3,0,0.5-0.2,0.5-0.5c0-0.3-0.2-0.5-0.5-0.5  L1.5,10.1L1.5,10.1z"></path>
        </symbol>
        <symbol xmlns:xlink="http://www.w3.org/1999/xlink" viewBox="0 0 20 20" id="sort">
            <path d="M16.4,1.7H3.6c-1,0-1.7,0.8-1.7,1.9c0,0.5,0.2,1,0.5,1.3l5,5c0,0,0.1,0.2,0.2,0.3v4.4l0-0.3l0,1.1l0-0.4v0.5l0.3,0.2l3,2.4  c0.2,0.1,0.4,0.2,0.6,0.2c0.1,0,0.3,0,0.4-0.1c0.3-0.2,0.5-0.4,0.5-0.7l0-7.4c0,0,0-0.1,0-0.1l5.1-5l0.1-0.1  c0.3-0.3,0.5-0.8,0.5-1.3C18.1,2.5,17.4,1.7,16.4,1.7z M10.7,9.9l0,5.9l-1.5-1.3V9.7c0-0.4-0.2-0.8-0.5-1.1L3.9,3.7  c0,0-0.1-0.1-0.1-0.2c0,0,0-0.1,0-0.2h12.4c0,0.1,0,0.2,0,0.2L11,8.7C10.7,9,10.7,9.5,10.7,9.9z"></path>
        </symbol>
        <symbol xmlns:xlink="http://www.w3.org/1999/xlink" viewBox="0 0 20 20" id="username">
            <rect x="-739.3" y="-325.6" fill="none" width="1440" height="742"></rect>
            <rect x="-688.4" y="-350.4" fill="none" width="1440" height="742"></rect>
            <g>
                <path d="M10,1.8c-4.5,0-8.2,3.7-8.2,8.2s3.7,8.2,8.2,8.2s8.2-3.7,8.2-8.2S14.5,1.8,10,1.8z M16.8,10c0,1.5-0.5,2.9-1.4,4.1   c-1.5-1.3-3.5-2-5.4-2c-2,0-3.9,0.7-5.4,2c-0.9-1.2-1.4-2.6-1.4-4.1c0-3.8,3.1-6.8,6.8-6.8S16.8,6.2,16.8,10z M14.5,15.1   c-1.2,1.1-2.8,1.7-4.5,1.7c-1.6,0-3.2-0.6-4.5-1.7c1.3-1,2.8-1.6,4.5-1.6C11.6,13.5,13.2,14.1,14.5,15.1z"></path>
                <path d="M10.1,5.8c-1.5,0-2.8,1.3-2.8,2.8s1.3,2.8,2.8,2.8c1.5,0,2.8-1.3,2.8-2.8S11.6,5.8,10.1,5.8z M11.4,8.6   c0,0.8-0.6,1.4-1.4,1.4S8.7,9.4,8.7,8.6c0-0.8,0.6-1.4,1.4-1.4S11.4,7.9,11.4,8.6z"></path>
            </g>
            <rect x="-688.4" y="-350.4" fill="none" width="1440" height="742"></rect>
        </symbol>
    </defs>
</svg>