<?xml version="1.0" encoding="utf-8"?>
<!-- Generator: Adobe Illustrator 17.1.0, SVG Export Plug-In . SVG Version: 6.00 Build 0)  -->
<!DOCTYPE svg PUBLIC "-//W3C//DTD SVG 1.1//EN" "http://www.w3.org/Graphics/SVG/1.1/DTD/svg11.dtd">
<svg version="1.1" id="图层_1" xmlns="http://www.w3.org/2000/svg" xmlns:xlink="http://www.w3.org/1999/xlink" x="0px" y="0px"
	 viewBox="0 0 153 153" enable-background="new 0 0 153 153" xml:space="preserve">
<g>
	<path d="M28.7,41.1c0,0.9,0.7,1.6,1.6,1.6s1.6-0.7,1.6-1.6v-2.2h2.2c0.9,0,1.6-0.7,1.6-1.6s-0.7-1.6-1.6-1.6h-2.2v-2.2
		c0-0.9-0.7-1.6-1.6-1.6s-1.6,0.7-1.6,1.6v2.2h-2.2c-0.9,0-1.6,0.7-1.6,1.6s0.7,1.6,1.6,1.6h2.2V41.1z"/>
	<path d="M23.9,92.3h-1.6v-1.6c0-0.5-0.4-1-1-1c-0.5,0-1,0.4-1,1v1.6h-1.6c-0.5,0-1,0.4-1,1c0,0.5,0.4,1,1,1h1.6v1.6
		c0,0.5,0.4,1,1,1c0.5,0,1-0.4,1-1v-1.6h1.6c0.5,0,1-0.4,1-1C24.9,92.7,24.4,92.3,23.9,92.3z"/>
	<path d="M143.2,86.1h-1.7v-1.7c0-0.6-0.5-1.1-1.1-1.1s-1.1,0.5-1.1,1.1v1.7h-1.7c-0.6,0-1.1,0.5-1.1,1.1s0.5,1.1,1.1,1.1h1.7v1.7
		c0,0.6,0.5,1.1,1.1,1.1s1.1-0.5,1.1-1.1v-1.7h1.7c0.6,0,1.1-0.5,1.1-1.1S143.8,86.1,143.2,86.1z"/>
	<path d="M25.5,113.5c0,1-0.8,1.8-1.8,1.8H12.5c-1,0-1.8-0.8-1.8-1.8l0,0c0-1,0.8-1.8,1.8-1.8h11.2
		C24.7,111.7,25.5,112.5,25.5,113.5L25.5,113.5z"/>
	<path d="M72.9,59.4c0,1-0.8,1.8-1.8,1.8H50.7c-1,0-1.8-0.8-1.8-1.8l0,0c0-1,0.8-1.8,1.8-1.8h20.4C72.1,57.6,72.9,58.4,72.9,59.4
		L72.9,59.4z"/>
	<path d="M82.1,68.1c0,1-0.8,1.8-1.8,1.8H50.7c-1,0-1.8-0.8-1.8-1.8l0,0c0-1,0.8-1.8,1.8-1.8h29.6C81.3,66.3,82.1,67.1,82.1,68.1
		L82.1,68.1z"/>
	<path d="M65.8,77.3c0,1-0.8,1.8-1.8,1.8H50.7c-1,0-1.8-0.8-1.8-1.8l0,0c0-1,0.8-1.8,1.8-1.8H64C65,75.5,65.8,76.3,65.8,77.3
		L65.8,77.3z"/>
	<path d="M14.3,55.3c-3.1,0-5.6,2.5-5.6,5.6s2.5,5.6,5.6,5.6s5.6-2.5,5.6-5.6S17.4,55.3,14.3,55.3z M14.3,64c-1.7,0-3.1-1.4-3.1-3.1
		s1.4-3.1,3.1-3.1s3.1,1.4,3.1,3.1S16,64,14.3,64z"/>
	<path d="M126.7,44.9c-3.1,0-5.6,2.5-5.6,5.6s2.5,5.6,5.6,5.6c3.1,0,5.6-2.5,5.6-5.6S129.8,44.9,126.7,44.9z M126.7,53.5
		c-1.7,0-3.1-1.4-3.1-3.1s1.4-3.1,3.1-3.1c1.7,0,3.1,1.4,3.1,3.1S128.4,53.5,126.7,53.5z"/>
	<path d="M118.1,103h-0.8h-10.2c0.5-1,1-2,1-3.6V46.9c0-2-0.5-3.6-2-5.1c-1-1-3.1-2-5.1-2H57.6c-2,0-3.6,0.5-5.1,2
		c-1.5,1-2,3.1-2,5.1v2h-5.6c-2,0-3.6,0.5-5.1,2c-1,1-2,3.1-2,5.1v52c0,1,0.5,2.5,1,3.5h-7.9c-1,0-1.8,0.8-1.8,1.8s0.8,1.8,1.8,1.8
		h45.3l5.5,6c0.5,0.5,1.5,1,2.5,1c1,0,2-0.5,2.6-1c1-1.5,1.9-2.9-1-6h10.9c1,0,1.8-0.8,1.8-1.8s-0.8-1.8-1.8-1.8h-0.8
		c0.3-0.7,0.5-1.5,0.5-2.5v-2h21.4c0,0,0.1-0.1,0.2-0.1h0.2c1.1,0,2-0.9,2-2C120.2,103.9,119.3,103,118.1,103z M92.5,108.6
		c0,2-2.1,3-4,3.1h-6.3l-5.7-6.1c-1-1-2-1.5-3.6-1l-1.9-1.9c1.8-2.2,2.9-5.1,2.9-8.1c0-7.2-5.8-13-13-13c-4.2,0-7.9,2-10.2,5
		c0,0-0.1,0.1-0.1,0.1c-0.2,0.2-0.3,0.4-0.4,0.6c-3.3,4.6-3.3,11.2,0.8,15.7c3,3.4,7.2,4.9,11.2,4.5c0,0,0.1,0,0.1,0
		c0.2,0,0.5-0.1,0.7-0.1c2-0.3,3.8-1.1,5.4-2.2l1.9,1.9c-0.5,1,0,2.6,1,3.6l1,1H44.6c-1.9-0.1-3.3-1.6-3.3-3.5V55.6
		c0-2,1.5-3.6,3.6-3.6h43.3c2,0,4.3,2,4.3,4.1V108.6z M51.3,94.5c0-5.3,4.3-9.6,9.6-9.6s9.6,4.3,9.6,9.6c0,5.3-4.3,9.6-9.6,9.6
		S51.3,99.9,51.3,94.5z M105.1,99.5c0,2-1.5,3.6-3.6,3.6h-3.6h-2V55.6c0-2-0.5-3.6-2-5.1c-1-1-3.1-2-5.1-2l-35,0.3v-2
		c0-2,2.4-3.9,4.4-3.9h43.3c2,0,3.6,1.5,3.6,3.6V99.5z"/>
</g>
</svg>
