<?xml version="1.0" encoding="utf-8"?>
<!-- Generator: Adobe Illustrator 17.1.0, SVG Export Plug-In . SVG Version: 6.00 Build 0)  -->
<!DOCTYPE svg PUBLIC "-//W3C//DTD SVG 1.1//EN" "http://www.w3.org/Graphics/SVG/1.1/DTD/svg11.dtd">
<svg version="1.1" id="图层_1" xmlns="http://www.w3.org/2000/svg" xmlns:xlink="http://www.w3.org/1999/xlink" x="0px" y="0px"
	 viewBox="0 0 20 20" enable-background="new 0 0 20 20" xml:space="preserve">
<g>
	<path d="M12.5,15V7.3c0-0.4-0.3-0.7-0.7-0.7s-0.7,0.3-0.7,0.7V15c0,0.4,0.3,0.7,0.7,0.7S12.5,15.4,12.5,15z"/>
	<path d="M17.1,3.7H2.9C2.5,3.7,2.2,4,2.2,4.4c0,0.4,0.3,0.7,0.7,0.7h14.2c0.4,0,0.7-0.3,0.7-0.7C17.8,4,17.5,3.7,17.1,3.7z"/>
	<path d="M15.3,6c-0.4,0-0.7,0.3-0.7,0.7v8.9c0,0.6-0.5,1.1-1.1,1.1H6.4c-0.4,0-0.8-0.3-1-0.6c-0.1-0.1-0.1-0.3-0.1-0.4V6.7
		c0-0.2-0.1-0.4-0.2-0.5C5,6.1,4.9,6,4.7,6C4.4,6,4.1,6.2,4,6.5c0,0.1-0.1,0.2-0.1,0.3v10.1c0,0.2,0,0.3,0.1,0.5
		c0.2,0.5,0.7,0.8,1.2,0.8h9.5c0.5,0,1-0.3,1.2-0.8c0.1-0.2,0.1-0.3,0.1-0.5V6.7C16.1,6.3,15.7,6,15.3,6z"/>
	<path d="M7.6,3.3h4.7c0.4,0,0.7-0.3,0.7-0.7c0-0.4-0.3-0.7-0.7-0.7H7.6c-0.4,0-0.7,0.3-0.7,0.7C6.9,3,7.2,3.3,7.6,3.3z"/>
	<path d="M8.9,15V7.3c0-0.4-0.3-0.7-0.7-0.7S7.5,6.9,7.5,7.3V15c0,0.4,0.3,0.7,0.7,0.7S8.9,15.4,8.9,15z"/>
</g>
</svg>
