<?xml version="1.0" encoding="utf-8"?>
<!-- Generator: Adobe Illustrator 17.1.0, SVG Export Plug-In . SVG Version: 6.00 Build 0)  -->
<!DOCTYPE svg PUBLIC "-//W3C//DTD SVG 1.1//EN" "http://www.w3.org/Graphics/SVG/1.1/DTD/svg11.dtd">
<svg version="1.1" id="图层_1" xmlns="http://www.w3.org/2000/svg" xmlns:xlink="http://www.w3.org/1999/xlink" x="0px" y="0px"
	 viewBox="0 0 20 20" enable-background="new 0 0 20 20" xml:space="preserve">
<g>
	<path d="M17.1,8.9c-0.4,0-0.8,0.4-0.8,0.8v5.9c0,0.5-0.2,0.9-0.7,0.9h-11c-0.5,0-1-0.5-1-0.9V4.2c0-0.4,0.5-0.7,1-0.7h6
		c0.4,0,0.8-0.4,0.8-0.8S11,1.9,10.6,1.9h-6C4,1.9,3.4,2.1,2.9,2.4C2.3,2.9,2,3.5,2,4.2v11.5c0,0.6,0.3,1.3,0.8,1.8
		c0.5,0.5,1.2,0.8,1.8,0.8h11c0.7,0,1.3-0.3,1.7-0.9c0.4-0.5,0.6-1.1,0.6-1.7V9.7C17.9,9.3,17.6,8.9,17.1,8.9z"/>
	<path d="M9.2,10.6c0.2,0.2,0.4,0.3,0.6,0.3s0.4-0.1,0.6-0.3l7.3-7.3c0.3-0.3,0.3-0.9,0-1.2c-0.3-0.3-0.9-0.3-1.2,0L9.2,9.3
		C8.9,9.7,8.9,10.2,9.2,10.6z"/>
</g>
</svg>
