<?xml version="1.0" encoding="utf-8"?>
<!-- Generator: Adobe Illustrator 17.1.0, SVG Export Plug-In . SVG Version: 6.00 Build 0)  -->
<!DOCTYPE svg PUBLIC "-//W3C//DTD SVG 1.1//EN" "http://www.w3.org/Graphics/SVG/1.1/DTD/svg11.dtd">
<svg version="1.1" id="图层_1" xmlns="http://www.w3.org/2000/svg" xmlns:xlink="http://www.w3.org/1999/xlink" x="0px" y="0px"
	 viewBox="0 0 20 20" enable-background="new 0 0 20 20" xml:space="preserve">
<g>
	<path d="M17.4,4.3L17.4,4.3C17.3,3.6,16.7,3,16,3h-0.7v0L4.7,3C4,3,3.3,3.6,3.3,4.4v0.7h0l0,0.7c0,0.4,0.3,0.7,0.7,0.7
		c0.4,0,0.7-0.3,0.7-0.7l0-0.2c0-0.9,0.3-1.2,1.3-1.2l-1.3,0l0,0.9l0-0.9l11.2,0v0l-1.3,0c1,0,1.3,0.2,1.3,1l0,9.4l0-0.6
		c0,1-0.2,1.3-1.1,1.4l-8.8,0c-1,0-1.2-0.3-1.3-1.2l0-0.2c0-0.4-0.3-0.7-0.7-0.7c-0.4,0-0.7,0.3-0.7,0.7l0,0.7h0v0.7
		C3.3,16.4,4,17,4.7,17l11.4,0c0.7-0.1,1.3-0.7,1.3-1.4L17.4,4.3z"/>
	<path d="M9.1,12.2L9.1,12.2c-0.3,0.3-0.3,0.7,0,1c0.3,0.3,0.7,0.3,1,0l2.7-2.8c0,0,0.1-0.1,0.1-0.1c0.1-0.1,0.2-0.3,0.2-0.5
		c0-0.2-0.1-0.4-0.2-0.5c0,0-0.1-0.1-0.1-0.1l-2.7-2.8c-0.3-0.3-0.7-0.3-1,0c-0.3,0.3-0.3,0.7,0,1l1.6,1.6l-7.3,0
		C3,9.1,2.6,9.4,2.6,9.8c0,0.4,0.3,0.7,0.7,0.7l7.4,0L9.1,12.2z"/>
</g>
</svg>
