<?xml version="1.0" encoding="utf-8"?>
<!-- Generator: Adobe Illustrator 17.1.0, SVG Export Plug-In . SVG Version: 6.00 Build 0)  -->
<!DOCTYPE svg PUBLIC "-//W3C//DTD SVG 1.1//EN" "http://www.w3.org/Graphics/SVG/1.1/DTD/svg11.dtd">
<svg version="1.1" id="图层_1" xmlns="http://www.w3.org/2000/svg" xmlns:xlink="http://www.w3.org/1999/xlink" x="0px" y="0px"
	 viewBox="0 0 20 20" enable-background="new 0 0 20 20" xml:space="preserve">
<rect x="-693.4" y="-301.9" fill="none" width="1440" height="742"/>
<g>
	<defs>
		<path id="SVGID_9_" d="M14.4,10c-0.7,0-1.2-0.5-1.2-1.2c0-0.7,0.5-1.2,1.2-1.2c0.7,0,1.2,0.5,1.2,1.2C15.6,9.5,15.1,10,14.4,10z
			 M12,6.8c-0.7,0-1.2-0.5-1.2-1.2s0.5-1.2,1.2-1.2c0.7,0,1.2,0.5,1.2,1.2S12.7,6.8,12,6.8z M8,6.8c-0.7,0-1.2-0.5-1.2-1.2
			S7.3,4.4,8,4.4s1.2,0.5,1.2,1.2S8.7,6.8,8,6.8z M5.6,10c-0.7,0-1.2-0.5-1.2-1.2c0-0.7,0.5-1.2,1.2-1.2s1.2,0.5,1.2,1.2
			C6.8,9.5,6.2,10,5.6,10z M10,2.8C6,2.8,2.8,6,2.8,10S6,17.2,10,17.2c0.7,0,1.2-0.5,1.2-1.2c0-0.3-0.1-0.6-0.3-0.8
			c-0.2-0.2-0.3-0.5-0.3-0.8c0-0.7,0.5-1.2,1.2-1.2h1.4c2.2,0,4-1.8,4-4C17.2,5.6,14,2.8,10,2.8z"/>
	</defs>
	<use xlink:href="#SVGID_9_"  overflow="visible"/>
	<clipPath id="SVGID_2_">
		<use xlink:href="#SVGID_9_"  overflow="visible"/>
	</clipPath>
	<rect x="-1.3" y="-1.3" clip-path="url(#SVGID_2_)" width="22.6" height="22.6"/>
</g>
</svg>
