<?xml version="1.0" encoding="utf-8"?>
<!-- Generator: Adobe Illustrator 17.1.0, SVG Export Plug-In . SVG Version: 6.00 Build 0)  -->
<!DOCTYPE svg PUBLIC "-//W3C//DTD SVG 1.1//EN" "http://www.w3.org/Graphics/SVG/1.1/DTD/svg11.dtd">
<svg version="1.1" id="图层_1" xmlns="http://www.w3.org/2000/svg" xmlns:xlink="http://www.w3.org/1999/xlink" x="0px" y="0px"
	 viewBox="0 0 30 30" enable-background="new 0 0 30 30" xml:space="preserve">
<g>
	<path fill-rule="evenodd" clip-rule="evenodd" d="M4.6,22.9c-0.1-0.3-0.1-0.6-0.2-0.9c-0.1-0.3-0.3-0.4-0.6-0.3
		c-0.2,0.1-0.4,0.2-0.4,0.5c0,0,0,0.1,0,0.1c0.2,0.7,0.3,1.4,0.5,2c0.1,0.3,0.4,0.4,0.6,0.4C4.8,24.6,5,24.3,4.9,24
		C4.8,23.6,4.7,23.3,4.6,22.9z"/>
	<path fill-rule="evenodd" clip-rule="evenodd" d="M14.2,22.1c0.2-0.1,0.4-0.3,0.4-0.5c-0.2-0.7-0.4-1.5-0.6-2.2
		c-0.1-0.2-0.4-0.3-0.6-0.3c-0.2,0.1-0.4,0.3-0.4,0.6c0.2,0.7,0.4,1.4,0.6,2.2C13.7,22.1,13.9,22.2,14.2,22.1z"/>
	<path fill-rule="evenodd" clip-rule="evenodd" d="M27,12.9c-1.1-6.4-7.3-11.2-14.5-9.8C6.1,4.4,1.7,10.7,3.1,17.6
		c0.1,0.6,0.3,1.2,0.6,1.8c0.5-0.3,0.8-0.7,1.1-1.1C5,17.8,5.1,17.4,5,16.9c-0.3-1.2-0.2-2.3,0-3.5c0.9-5.6,6.5-9.8,12.6-8.2
		c3.9,1,6.4,3.7,7.4,7.6c0,0.1,0,0.2,0,0.4c-0.2-0.1-0.4-0.1-0.5-0.2c-1-0.4-1.8-1-2.5-1.7c-0.3-0.3-0.7-0.7-1.1-1
		c-1.6-1.2-3.5-1.9-5.5-1.5c-2.5,0.4-4.1,2-5,4.3c-0.3,0.8-0.2,1.7,0.3,2.4c0.3,0.6,0.8,1,1.3,1.4c0.6,0.5,1.3,0.9,2,1.4
		c0.6,0.4,1.1,0.7,1.7,1.1c0.5,0.4,1,0.8,1.4,1.3c1.3,1.7,0.2,3.6-1.1,4c-1.3,0.4-2.8,0.3-3.8-0.9c-0.4-0.5-0.7-1.1-1.1-1.6
		c0-0.1,0-0.2-0.1-0.3c0.3-0.1,0.6-0.3,0.9-0.2c0,0.1,0.1,0.1,0.1,0.2c0.1,0.2,0.1,0.4,0.2,0.6s0.1,0.4,0.2,0.6
		c0.1,0.3,0.4,0.4,0.6,0.3c0.2-0.1,0.4-0.3,0.4-0.6c0-0.1,0-0.2-0.1-0.3c-0.2-0.8-0.4-1.6-0.6-2.4c-0.1-0.4-0.2-0.9-0.4-1.3
		c-0.1-0.3-0.4-0.5-0.7-0.4c-0.3,0.1-0.4,0.3-0.3,0.6c0,0.3,0.1,0.5,0.2,0.7c0.2,0.7,0.4,0.7-0.6,0.9c-0.4,0.1-0.4,0.1-0.6-0.2
		c-0.2-0.3-0.5-0.6-0.9-0.7c-1.2-0.4-2.3,0.3-2.5,1.6c-0.1,0.3-0.2,0.5-0.5,0.6c-0.6,0.1-0.6,0.2-0.8-0.5c-0.1-0.3-0.2-0.6-0.3-0.9
		c-0.1-0.3-0.3-0.4-0.6-0.3c-0.2,0.1-0.4,0.2-0.4,0.5c0,0.2,0,0.3,0.1,0.5c0.3,1.1,0.6,2.3,0.9,3.4c0,0.1,0,0.2,0.1,0.2
		c0.1,0.3,0.3,0.4,0.6,0.4c0.3-0.1,0.4-0.3,0.4-0.6c0-0.2-0.1-0.4-0.1-0.6c-0.1-0.3-0.1-0.6-0.2-0.9c0.2-0.1,0.4-0.1,0.5-0.2
		c0.1,0,0.2,0,0.4-0.1c0.1,0.2,0.2,0.3,0.2,0.5c0.7,1.3,1.7,2.3,3,2.8c1,0.4,2,0.7,3.1,0.8c2.2,0.3,4.2,0,6.2-0.8
		C24.8,24.1,28,18.6,27,12.9z M19.1,13.5c-0.1,0-0.2,0-0.3,0c-0.1,0-0.2-0.1-0.3-0.2c0,0,0,0,0,0c-0.3-0.4-0.6-0.6-1-0.7
		c-0.3-0.1-0.7-0.1-1.1,0.1c-0.1,0-0.1,0.1-0.2,0.1c-0.1,0-0.1,0.1-0.2,0.1c-0.1,0.1-0.1,0.1-0.2,0.2c0,0,0,0.1,0,0.1
		c0,0.1,0,0.2,0.1,0.4c0,0,0.1,0.1,0.1,0.1c0.1,0.1,0.2,0.2,0.3,0.3c0.2,0.2,0.5,0.3,0.7,0.4c0.2,0.1,0.4,0.3,0.6,0.4
		c0.2,0.2,0.4,0.3,0.5,0.5c0,0.1,0.1,0.2,0.1,0.3c0,0.1,0,0.3,0,0.4c-0.1,0.2-0.2,0.3-0.4,0.5c-0.1,0.1-0.2,0.1-0.3,0.2
		c-0.6,0.3-1.2,0.4-1.9,0.5c-0.2,0-0.5,0-0.7,0c-0.3,0-0.6,0-0.9-0.1c-0.5-0.1-0.9-0.1-1.3-0.3c-0.2-0.1-0.5-0.2-0.7-0.4
		c-0.1-0.1-0.2-0.2-0.3-0.3c-0.1-0.2-0.1-0.5-0.1-0.7c0-0.2,0.1-0.3,0.3-0.5c0.1-0.1,0.2-0.2,0.3-0.3c0.1-0.1,0.1-0.1,0.2-0.2
		c0.1-0.1,0.2-0.2,0.3-0.2c0.1-0.1,0.2-0.1,0.3-0.2c0.1-0.1,0.2-0.2,0.3-0.3c0.1-0.1,0.1-0.1,0.1-0.2c0-0.1,0-0.2-0.1-0.3
		c-0.5-0.5-1.4-0.2-1.7,0.4c0,0,0,0.1,0,0.1c0,0,0,0,0,0c0,0,0,0,0,0.1c0,0,0,0,0,0c-0.1,0-0.1,0.1-0.2,0.1c0,0-0.1,0-0.1,0
		c-0.1,0-0.3-0.2-0.3-0.3c0,0,0-0.1,0-0.2c0-0.1,0-0.3,0-0.4c0.1-0.6,0.4-1.2,0.7-1.7c0.1-0.2,0.3-0.3,0.4-0.4
		c0.3-0.3,0.6-0.4,0.9-0.5c0.3-0.1,0.7,0,1.1,0.1c0.4,0.2,0.7,0.2,1.1,0c0,0,0.1,0,0.1,0c0.3-0.1,0.7-0.2,1-0.3
		c0.4-0.1,0.8-0.1,1.2,0c0.1,0,0.3,0.1,0.4,0.2c0.4,0.2,0.7,0.5,1,0.8c0.2,0.2,0.3,0.4,0.5,0.6c0.1,0.2,0.2,0.3,0.2,0.5
		c0,0.1,0.1,0.3,0,0.4C19.5,13.2,19.3,13.4,19.1,13.5z"/>
	<path fill-rule="evenodd" clip-rule="evenodd" d="M15.5,13.9c-0.1-0.2-0.2-0.5-0.4-0.7c-0.3-0.3-0.6-0.3-0.9,0
		c-0.1,0.1-0.2,0.3-0.3,0.5c-0.1,0.3-0.3,0.6-0.5,0.8c-0.4,0.4-0.3,0.8,0.2,1c0.3,0.1,0.7,0.1,0.9,0.2c0.4,0,0.7,0,1-0.1
		c0.7-0.2,0.8-0.6,0.3-1.1C15.7,14.3,15.6,14.1,15.5,13.9z"/>
</g>
</svg>
