<?xml version="1.0" encoding="utf-8"?>
<!-- Generator: Adobe Illustrator 17.1.0, SVG Export Plug-In . SVG Version: 6.00 Build 0)  -->
<!DOCTYPE svg PUBLIC "-//W3C//DTD SVG 1.1//EN" "http://www.w3.org/Graphics/SVG/1.1/DTD/svg11.dtd">
<svg version="1.1" id="图层_1" xmlns="http://www.w3.org/2000/svg" xmlns:xlink="http://www.w3.org/1999/xlink" x="0px" y="0px"
	 viewBox="0 0 20 20" enable-background="new 0 0 20 20" xml:space="preserve">
<path d="M15.2,4.1h-3.5c-0.4,0-0.7,0.3-0.7,0.7c0,0.4,0.3,0.7,0.7,0.7h1.9l-1.9,1.9c-0.8-0.6-1.8-0.9-2.8-0.9
	c-1.3,0-2.5,0.5-3.4,1.4c-0.9,0.9-1.4,2.1-1.4,3.4c0,1.3,0.5,2.5,1.4,3.4c0.9,0.9,2.1,1.4,3.4,1.4s2.5-0.5,3.4-1.4
	c1.7-1.7,1.9-4.3,0.4-6.2l1.9-1.9v1.9c0,0.2,0.1,0.4,0.2,0.5C14.9,8.9,15,9,15.2,9c0.4,0,0.7-0.3,0.7-0.7V4.8
	C15.9,4.4,15.6,4.1,15.2,4.1z M11.2,8.8c1.3,1.3,1.3,3.5,0,4.8c-0.6,0.6-1.5,1-2.4,1s-1.7-0.4-2.4-1c-1.3-1.3-1.3-3.5,0-4.8
	c0.6-0.6,1.5-1,2.4-1S10.6,8.2,11.2,8.8z"/>
</svg>
