<?xml version="1.0" encoding="utf-8"?>
<!-- Generator: Adobe Illustrator 17.1.0, SVG Export Plug-In . SVG Version: 6.00 Build 0)  -->
<!DOCTYPE svg PUBLIC "-//W3C//DTD SVG 1.1//EN" "http://www.w3.org/Graphics/SVG/1.1/DTD/svg11.dtd">
<svg version="1.1" id="图层_1" xmlns="http://www.w3.org/2000/svg" xmlns:xlink="http://www.w3.org/1999/xlink" x="0px" y="0px"
	 viewBox="0 0 20 20" enable-background="new 0 0 20 20" xml:space="preserve">
<path d="M10,15.6c-1.3,0-2.4-0.3-3.4-0.9c-1-0.6-1.9-1.4-2.5-2.5c-0.6-1-0.9-2.2-0.9-3.4s0.3-2.4,0.9-3.4c0.6-1,1.4-1.9,2.5-2.5
	C7.6,2.3,8.7,2,10,2s2.4,0.3,3.4,0.9c1,0.6,1.9,1.4,2.5,2.5c0.6,1,0.9,2.2,0.9,3.4s-0.3,2.4-0.9,3.4c-0.6,1-1.5,1.9-2.5,2.5
	C12.4,15.2,11.2,15.6,10,15.6z M10,5.1c-1,0-1.9,0.3-2.6,1.1S6.3,7.8,6.3,8.8s0.4,1.9,1.1,2.6c0.7,0.7,1.6,1.1,2.6,1.1
	s1.9-0.4,2.6-1.1c0.7-0.7,1.1-1.6,1.1-2.6s-0.3-1.9-1.1-2.6S11,5.1,10,5.1z M10,11c-0.6,0-1.2-0.2-1.6-0.7c-0.5-0.4-0.7-1-0.7-1.6
	s0.2-1.2,0.7-1.6c0.4-0.4,1-0.7,1.6-0.7c0.6,0,1.2,0.2,1.6,0.7c0.4,0.4,0.7,1,0.7,1.6s-0.2,1.2-0.7,1.6C11.2,10.8,10.6,11,10,11z
	 M10,16.2c1,0,2-0.2,2.8-0.4c0.9-0.3,1.6-0.7,2.1-1.2l1.7,1.5c-0.7,0.6-1.6,1-2.8,1.3C12.7,17.8,11.4,18,10,18s-2.7-0.2-3.9-0.5
	S4,16.7,3.3,16.1L5,14.5c0.5,0.5,1.2,0.9,2.1,1.2S8.9,16.2,10,16.2z"/>
</svg>
