<?xml version="1.0" encoding="utf-8"?>
<!-- Generator: Adobe Illustrator 17.1.0, SVG Export Plug-In . SVG Version: 6.00 Build 0)  -->
<!DOCTYPE svg PUBLIC "-//W3C//DTD SVG 1.1//EN" "http://www.w3.org/Graphics/SVG/1.1/DTD/svg11.dtd">
<svg version="1.1" id="图层_1" xmlns="http://www.w3.org/2000/svg" xmlns:xlink="http://www.w3.org/1999/xlink" x="0px" y="0px"
	 viewBox="0 0 20 20" enable-background="new 0 0 20 20" xml:space="preserve">
<path d="M10,2C6.7,2,4,4.5,4,7.6C4,11.8,10,18,10,18s6-6.2,6-10.4C16,4.5,13.3,2,10,2z M10,3.6c1.1,0,2,0.9,2,2c0,1.1-0.9,2-2,2
	c-1.1,0-2-0.9-2-2C8,4.5,8.9,3.6,10,3.6z M10,11.6c-1.4,0-2.7-0.7-3.4-1.7c0-1.1,2.3-1.6,3.4-1.6c1.1,0,3.4,0.6,3.4,1.6
	C12.7,10.9,11.4,11.6,10,11.6z"/>
</svg>
