<?xml version="1.0" encoding="utf-8"?>
<!-- Generator: Adobe Illustrator 17.1.0, SVG Export Plug-In . SVG Version: 6.00 Build 0)  -->
<!DOCTYPE svg PUBLIC "-//W3C//DTD SVG 1.1//EN" "http://www.w3.org/Graphics/SVG/1.1/DTD/svg11.dtd">
<svg version="1.1" id="图层_1" xmlns="http://www.w3.org/2000/svg" xmlns:xlink="http://www.w3.org/1999/xlink" x="0px" y="0px"
	 viewBox="0 0 16 16" enable-background="new 0 0 16 16" xml:space="preserve">
<path d="M8,2C4.7,2,2,4.7,2,8s2.7,6,6,6s6-2.7,6-6S11.3,2,8,2z M8,12.8c-2.6,0-4.8-2.2-4.8-4.8S5.4,3.2,8,3.2s4.8,2.2,4.8,4.8
	S10.6,12.8,8,12.8z M9.8,8C9.8,9,9,9.8,8,9.8S6.2,9,6.2,8S7,6.2,8,6.2S9.8,7,9.8,8z"/>
<g>
	<defs>
		<path id="SVGID_9_" d="M-438.8-254.4h-12l-4.2-9.8c-1-0.1-1.8-0.9-1.8-1.9c0-1.1,0.9-2,2-2s2,0.9,2,2c0,0.4-0.1,0.8-0.4,1.1
			c0.7,1.1,1.9,1.8,3.4,1.8c1.9,0,3.4-1.3,3.9-2.9l0-0.2l0.1-2.1c-0.6-0.3-1-1-1-1.7c0-1.1,0.9-2,2-2c1.1,0,2,0.9,2,2
			c0,0.7-0.4,1.3-1,1.7l0.1,2l0.1,0.2c0.4,1.7,2,2.9,3.9,2.9c1.4,0,2.7-0.7,3.4-1.8c-0.2-0.3-0.4-0.7-0.4-1.1c0-1.1,0.9-2,2-2
			c1.1,0,2,0.9,2,2c0,1-0.8,1.9-1.8,1.9L-438.8-254.4z"/>
	</defs>
	<clipPath id="SVGID_2_">
		<use xlink:href="#SVGID_9_"  overflow="visible"/>
	</clipPath>
	<g clip-path="url(#SVGID_2_)">
		<defs>
			<rect id="SVGID_11_" x="-702.6" y="-587.6" width="1440" height="1300"/>
		</defs>
		<clipPath id="SVGID_4_">
			<use xlink:href="#SVGID_11_"  overflow="visible"/>
		</clipPath>
	</g>
</g>
<g>
	<defs>
		<rect id="SVGID_13_" x="-702.6" y="-587.6" width="1440" height="1300"/>
	</defs>
	<clipPath id="SVGID_6_">
		<use xlink:href="#SVGID_13_"  overflow="visible"/>
	</clipPath>
</g>
</svg>
