<?xml version="1.0" encoding="utf-8"?>
<!-- Generator: Adobe Illustrator 17.1.0, SVG Export Plug-In . SVG Version: 6.00 Build 0)  -->
<!DOCTYPE svg PUBLIC "-//W3C//DTD SVG 1.1//EN" "http://www.w3.org/Graphics/SVG/1.1/DTD/svg11.dtd">
<svg version="1.1" id="图层_1" xmlns="http://www.w3.org/2000/svg" xmlns:xlink="http://www.w3.org/1999/xlink" x="0px" y="0px"
	 viewBox="0 0 20 20" enable-background="new 0 0 20 20" xml:space="preserve">
<path d="M15.2,4h-3.1C11.8,3.1,11,2.5,10,2.5S8.2,3.1,7.9,4H4.8C3.9,4,3.3,4.7,3.3,5.5V16c0,0.8,0.7,1.5,1.5,1.5h10.5
	c0.8,0,1.5-0.7,1.5-1.5V5.5C16.8,4.7,16.1,4,15.2,4z M10,4c0.4,0,0.8,0.3,0.8,0.8c0,0.4-0.3,0.8-0.8,0.8c-0.4,0-0.8-0.3-0.8-0.8
	C9.2,4.3,9.6,4,10,4z M11.5,14.5H6.3V13h5.2V14.5z M13.8,11.5H6.3V10h7.5V11.5z M13.8,8.5H6.3V7h7.5V8.5z"/>
</svg>
