<?xml version="1.0" encoding="utf-8"?>
<!-- Generator: Adobe Illustrator 17.1.0, SVG Export Plug-In . SVG Version: 6.00 Build 0)  -->
<!DOCTYPE svg PUBLIC "-//W3C//DTD SVG 1.1//EN" "http://www.w3.org/Graphics/SVG/1.1/DTD/svg11.dtd">
<svg version="1.1" id="图层_1" xmlns="http://www.w3.org/2000/svg" xmlns:xlink="http://www.w3.org/1999/xlink" x="0px" y="0px"
	 viewBox="0 0 20 20" enable-background="new 0 0 20 20" xml:space="preserve">
<g>
	<path d="M12.4,9.5c1.6,0,2.8-1.3,2.8-2.8s-1.3-2.8-2.8-2.8c-0.3,0-0.6,0-0.9,0.1c0.5,0.8,0.8,1.7,0.8,2.7S12,8.6,11.5,9.4
		C11.8,9.5,12.1,9.5,12.4,9.5z"/>
	<path d="M7.6,9.5c1.6,0,2.8-1.3,2.8-2.8S9.2,3.9,7.6,3.9S4.8,5.1,4.8,6.7S6.1,9.5,7.6,9.5z"/>
	<path d="M13.9,11.6c0.8,0.7,1.3,1.6,1.3,2.7v1.9H18v-1.9C18,12.8,15.8,11.9,13.9,11.6z"/>
	<path d="M7.6,11.4c-1.9,0-5.6,0.9-5.6,2.8v1.9h11.3v-1.9C13.3,12.4,9.5,11.4,7.6,11.4z"/>
</g>
</svg>
