<?xml version="1.0" encoding="utf-8"?>
<!-- Generator: Adobe Illustrator 17.1.0, SVG Export Plug-In . SVG Version: 6.00 Build 0)  -->
<!DOCTYPE svg PUBLIC "-//W3C//DTD SVG 1.1//EN" "http://www.w3.org/Graphics/SVG/1.1/DTD/svg11.dtd">
<svg version="1.1" id="图层_1" xmlns="http://www.w3.org/2000/svg" xmlns:xlink="http://www.w3.org/1999/xlink" x="0px" y="0px"
	 viewBox="0 0 12 12" enable-background="new 0 0 12 12" xml:space="preserve">
<g>
	<defs>
		<path id="SVGID_5_" d="M-711.5-966.2l-9,0c-0.3,0-0.5,0.2-0.5,0.5c0,0.3,0.2,0.5,0.5,0.5l9,0c0.3,0,0.5-0.2,0.5-0.5
			C-711-966-711.2-966.2-711.5-966.2L-711.5-966.2z"/>
	</defs>
	<clipPath id="SVGID_2_">
		<use xlink:href="#SVGID_5_"  overflow="visible"/>
	</clipPath>
	<g clip-path="url(#SVGID_2_)">
		<defs>
			<rect id="SVGID_7_" x="-741.5" y="-1026" width="1440" height="2070"/>
		</defs>
		<clipPath id="SVGID_4_">
			<use xlink:href="#SVGID_7_"  overflow="visible"/>
		</clipPath>
	</g>
</g>
<g>
	<defs>
		<path id="SVGID_9_" d="M-711.5-961.6l-9,0c-0.3,0-0.5,0.2-0.5,0.5c0,0.3,0.2,0.5,0.5,0.5l9,0c0.3,0,0.5-0.2,0.5-0.5
			C-711-961.3-711.2-961.6-711.5-961.6L-711.5-961.6z"/>
	</defs>
	<clipPath id="SVGID_6_">
		<use xlink:href="#SVGID_9_"  overflow="visible"/>
	</clipPath>
	<g clip-path="url(#SVGID_6_)">
		<defs>
			<rect id="SVGID_11_" x="-741.5" y="-1026" width="1440" height="2070"/>
		</defs>
		<clipPath id="SVGID_8_">
			<use xlink:href="#SVGID_11_"  overflow="visible"/>
		</clipPath>
	</g>
</g>
<g>
	<defs>
		<path id="SVGID_13_" d="M-720.5-956.9L-720.5-956.9c-0.3,0-0.5,0.2-0.5,0.5c0,0.3,0.2,0.5,0.5,0.5l9,0c0.3,0,0.5-0.2,0.5-0.5
			c0-0.3-0.2-0.5-0.5-0.5L-720.5-956.9L-720.5-956.9z"/>
	</defs>
	<clipPath id="SVGID_10_">
		<use xlink:href="#SVGID_13_"  overflow="visible"/>
	</clipPath>
	<g clip-path="url(#SVGID_10_)">
		<defs>
			<rect id="SVGID_15_" x="-741.5" y="-1026" width="1440" height="2070"/>
		</defs>
		<clipPath id="SVGID_12_">
			<use xlink:href="#SVGID_15_"  overflow="visible"/>
		</clipPath>
	</g>
</g>
<path d="M10.5,0.8l-9,0C1.2,0.8,1,1.1,1,1.3c0,0.3,0.2,0.5,0.5,0.5l9,0c0.3,0,0.5-0.2,0.5-0.5C11,1.1,10.8,0.8,10.5,0.8L10.5,0.8z"
	/>
<path d="M10.5,5.5l-9,0C1.2,5.5,1,5.7,1,6c0,0.3,0.2,0.5,0.5,0.5l9,0C10.8,6.5,11,6.3,11,6C11,5.7,10.8,5.5,10.5,5.5L10.5,5.5z"/>
<path d="M1.5,10.1L1.5,10.1c-0.3,0-0.5,0.2-0.5,0.5c0,0.3,0.2,0.5,0.5,0.5l9,0c0.3,0,0.5-0.2,0.5-0.5c0-0.3-0.2-0.5-0.5-0.5
	L1.5,10.1L1.5,10.1z"/>
</svg>
