<?xml version="1.0" encoding="utf-8"?>
<!-- Generator: Adobe Illustrator 17.1.0, SVG Export Plug-In . SVG Version: 6.00 Build 0)  -->
<!DOCTYPE svg PUBLIC "-//W3C//DTD SVG 1.1//EN" "http://www.w3.org/Graphics/SVG/1.1/DTD/svg11.dtd">
<svg version="1.1" id="图层_1" xmlns="http://www.w3.org/2000/svg" xmlns:xlink="http://www.w3.org/1999/xlink" x="0px" y="0px"
	 viewBox="0 0 20 20" enable-background="new 0 0 20 20" xml:space="preserve">
<rect x="-739.3" y="-325.6" fill="none" width="1440" height="742"/>
<rect x="-688.4" y="-350.4" fill="none" width="1440" height="742"/>
<g>
	<path d="M10,1.8c-4.5,0-8.2,3.7-8.2,8.2s3.7,8.2,8.2,8.2s8.2-3.7,8.2-8.2S14.5,1.8,10,1.8z M16.8,10c0,1.5-0.5,2.9-1.4,4.1
		c-1.5-1.3-3.5-2-5.4-2c-2,0-3.9,0.7-5.4,2c-0.9-1.2-1.4-2.6-1.4-4.1c0-3.8,3.1-6.8,6.8-6.8S16.8,6.2,16.8,10z M14.5,15.1
		c-1.2,1.1-2.8,1.7-4.5,1.7c-1.6,0-3.2-0.6-4.5-1.7c1.3-1,2.8-1.6,4.5-1.6C11.6,13.5,13.2,14.1,14.5,15.1z"/>
	<path d="M10.1,5.8c-1.5,0-2.8,1.3-2.8,2.8s1.3,2.8,2.8,2.8c1.5,0,2.8-1.3,2.8-2.8S11.6,5.8,10.1,5.8z M11.4,8.6
		c0,0.8-0.6,1.4-1.4,1.4S8.7,9.4,8.7,8.6c0-0.8,0.6-1.4,1.4-1.4S11.4,7.9,11.4,8.6z"/>
</g>
<rect x="-688.4" y="-350.4" fill="none" width="1440" height="742"/>
</svg>
